<?xml version="1.0" encoding="UTF-8"?>
<svg width="155px" height="24px" viewBox="0 0 155 24" version="1.1" xmlns="http://www.w3.org/2000/svg" xmlns:xlink="http://www.w3.org/1999/xlink">
    <!-- Generator: Sketch 51.2 (57519) - http://www.bohemiancoding.com/sketch -->
    <title>Horizonal Logo</title>
    <desc>Created with Sketch.</desc>
    <defs></defs>
    <g id="Symbols" stroke="none" stroke-width="1" fill="none" fill-rule="evenodd">
        <g id="Horizontal-Logo" fill="#504252">
            <g id="Horizonal-Logo">
                <g id="Type" transform="translate(49.000000, 7.000000)">
                    <path d="M34.1998862,1.13685792 L34.1998862,5.93616056 L36.89963,5.93616056 C37.8593643,5.93616056 38.5964123,5.72899023 39.1116472,5.31507939 C39.6264456,4.90202818 39.8844997,4.29642031 39.8844997,3.49911542 C39.8844997,2.72201179 39.6264456,2.13359648 39.1116472,1.73515894 C38.5964123,1.33629159 37.8593643,1.13685792 36.89963,1.13685792 L34.1998862,1.13685792 Z M33,0 L36.9446039,0 C38.2444806,0 39.2518086,0.302589026 39.966588,0.908196891 C40.6818039,1.51337494 41.0389753,2.36741527 41.0389753,3.46945826 C41.0389753,4.61190376 40.6818039,5.49775032 39.966588,6.12785758 C39.2518086,6.75796484 38.2444806,7.07258866 36.9446039,7.07258866 L34.1998862,7.07258866 L34.1998862,10.3353064 L33,10.3353064 L33,0 Z" id="Fill-3"></path>
                    <polygon id="Fill-5" points="56.1246516 1.13685792 50.1998862 1.13685792 50.1998862 4.53281799 55.495017 4.53281799 55.495017 5.67010572 50.1998862 5.67010572 50.1998862 9.21349198 56.3193929 9.21349198 56.3193929 10.3353064 49 10.3353064 49 0 56.1246516 0"></polygon>
                    <polygon id="Fill-7" points="72.0542577 1.13685792 68.6196491 1.13685792 68.6196491 10.3353064 67.4197629 10.3353064 67.4197629 1.13685792 64 1.13685792 64 0 72.0542577 0"></polygon>
                    <path d="M87.8192506,0 L87.8192506,6.08315693 C87.8192506,7.43148331 87.4288946,8.48710639 86.649056,9.25002617 C85.8687806,10.0129459 84.7937735,10.3941909 83.4249077,10.3941909 C82.0442527,10.3941909 80.9618226,10.0129459 80.1771809,9.25002617 C79.3921025,8.48710639 79,7.43148331 79,6.08315693 L79,0 L80.1994495,0 L80.1994495,6.08315693 C80.1994495,7.07731661 80.4867585,7.85442025 81.0618131,8.41575728 C81.6368677,8.97666449 82.4241293,9.25776282 83.4249077,9.25776282 C84.4239396,9.25776282 85.2068347,8.97924337 85.7718466,8.42349393 C86.3364219,7.86731467 86.6193645,7.08720234 86.6193645,6.08315693 L86.6193645,0 L87.8192506,0 Z" id="Fill-9"></path>
                    <path d="M98.1998862,5.93573074 L100.989578,5.93573074 C101.949749,5.93573074 102.68636,5.72899023 103.202032,5.31507939 C103.717267,4.90202818 103.974447,4.29642031 103.974447,3.49911542 C103.974447,2.72158198 103.717267,2.13359648 103.202032,1.73472913 C102.68636,1.33586178 101.949749,1.1364281 100.989578,1.1364281 L98.1998862,1.1364281 L98.1998862,5.93573074 Z M103.869217,10.3353064 L101.694314,7.0429315 C101.394343,7.06313275 101.159431,7.07215885 100.989578,7.07215885 L98.1998862,7.07215885 L98.1998862,10.3353064 L97,10.3353064 L97,0 L100.989578,0 C102.299497,0 103.317305,0.302159212 104.042127,0.907767077 C104.766512,1.51337494 105.129796,2.36741527 105.129796,3.46945826 C105.129796,4.31619176 104.927196,5.02452516 104.521994,5.5957479 C104.117229,6.16697065 103.534315,6.57529391 102.774561,6.82157731 L105.23459,10.3353064 L103.869217,10.3353064 Z" id="Fill-11"></path>
                    <polygon id="Fill-1" points="7.79079129 0 7.79079129 4.6087839 1.24146677 4.6087839 1.24146677 0 0 0 0 10.2089552 1.24146677 10.2089552 1.24146677 5.71735459 7.79079129 5.71735459 7.79079129 10.2089552 9.03225806 10.2089552 9.03225806 0"></polygon>
                    <polygon id="Fill-2" points="25.8090766 0 22.1140183 5.32334708 18.3695005 0 17 0 21.4710446 6.75247344 21.4710446 10.2089552 22.7733185 10.2089552 22.7733185 6.70916658 27.1612903 0"></polygon>
                </g>
                <g id="Simbol">
                    <polygon id="Fill-13" points="3.88891556 13.3565466 34.5684368 13.3565466 34.5684368 12.9180254 3.88891556 12.9180254"></polygon>
                    <path d="M14.2594063,2.10220684 C13.4738577,2.10220684 12.8346171,2.73145447 12.8346171,3.50472284 C12.8346171,4.27838796 13.4738577,4.9076356 14.2594063,4.9076356 C15.0451564,4.9076356 15.6843971,4.27838796 15.6843971,3.50472284 C15.6843971,2.73145447 15.0451564,2.10220684 14.2594063,2.10220684 M14.2594063,5.3055772 C13.2507684,5.3055772 12.4301543,4.49779146 12.4301543,3.50472284 C12.4301543,2.5118526 13.2507684,1.70426524 14.2594063,1.70426524 C15.2682458,1.70426524 16.0888599,2.5118526 16.0888599,3.50472284 C16.0888599,4.49779146 15.2682458,5.3055772 14.2594063,5.3055772" id="Fill-15"></path>
                    <polygon id="Fill-16" points="0.638098682 23.7430685 0.293086067 23.5351707 10.778487 6.66847758 20.9930369 23.5371545 20.6456059 23.7408863 10.7738519 7.43817519"></polygon>
                    <polygon id="Fill-17" points="9.39188692 11.7955762 9.04707583 11.5878769 10.7872534 8.78839936 12.3261064 11.5972005 11.9702113 11.7862525 10.7650855 9.58666307"></polygon>
                    <polygon id="Fill-18" points="19.2084228 7.54988053 18.8636117 7.3421812 20.6037893 4.54270371 22.1428438 7.35150486 21.7869488 7.54055687 20.5816214 5.34096742"></polygon>
                    <path d="M20.6364163,2.45837052 L13.9118948,13.2752008 C14.0396623,13.3327298 14.2494509,13.2504039 14.3465865,13.3384826 L20.6317812,3.22806813 L30.5033338,19.5307793 L30.8509662,19.3270474 L20.6364163,2.45837052 Z" id="Fill-19"></path>
                    <polygon id="Fill-20" points="14.1105189 1.41124453 14.4400643 1.41124453 14.4400643 0.129936065 14.1105189 0.129936065"></polygon>
                    <polygon id="Fill-21" points="15.8210519 2.11430775 15.6106587 1.90720355 16.5312297 1.00122186 16.7416229 1.20832606"></polygon>
                    <polygon id="Fill-22" points="16.3150124 3.62484231 17.6168708 3.62484231 17.6168708 3.30196307 16.3150124 3.30196307"></polygon>
                    <polygon id="Fill-23" points="16.5214759 5.89197568 15.6009048 4.98599399 15.811298 4.77888979 16.7318691 5.68487148"></polygon>
                    <polygon id="Fill-24" points="14.0966136 6.75369977 14.426159 6.75369977 14.426159 5.4723913 14.0966136 5.4723913"></polygon>
                    <polygon id="Fill-25" points="11.9737582 5.8823743 11.763365 5.6752701 12.683533 4.7692884 12.8939262 4.97639261"></polygon>
                    <polygon id="Fill-26" points="10.8877141 3.61135277 12.1895724 3.61135277 12.1895724 3.28847352 10.8877141 3.28847352"></polygon>
                    <polygon id="Fill-27" points="12.6934481 2.10472621 11.7732801 1.19854614 11.9836733 0.991441936 12.9038413 1.89762201"></polygon>
                </g>
            </g>
        </g>
    </g>
</svg>