<?xml version="1.0" encoding="UTF-8"?>
<svg width="106px" height="76px" viewBox="0 0 106 76" version="1.1" xmlns="http://www.w3.org/2000/svg" xmlns:xlink="http://www.w3.org/1999/xlink">
    <!-- Generator: Sketch 51.2 (57519) - http://www.bohemiancoding.com/sketch -->
    <title>LOGO</title>
    <desc>Created with Sketch.</desc>
    <defs></defs>
    <g id="Symbols" stroke="none" stroke-width="1" fill="none" fill-rule="evenodd">
        <g id="Logo" fill="#F4F4F4">
            <g id="LOGO">
                <g id="Group-28">
                    <path d="M34.1998862,67.1368579 L34.1998862,71.9361606 L36.89963,71.9361606 C37.8593643,71.9361606 38.5964123,71.7289902 39.1116472,71.3150794 C39.6264456,70.9020282 39.8844997,70.2964203 39.8844997,69.4991154 C39.8844997,68.7220118 39.6264456,68.1335965 39.1116472,67.7351589 C38.5964123,67.3362916 37.8593643,67.1368579 36.89963,67.1368579 L34.1998862,67.1368579 Z M33,66 L36.9446039,66 C38.2444806,66 39.2518086,66.302589 39.966588,66.9081969 C40.6818039,67.5133749 41.0389753,68.3674153 41.0389753,69.4694583 C41.0389753,70.6119038 40.6818039,71.4977503 39.966588,72.1278576 C39.2518086,72.7579648 38.2444806,73.0725887 36.9446039,73.0725887 L34.1998862,73.0725887 L34.1998862,76.3353064 L33,76.3353064 L33,66 Z" id="Fill-3"></path>
                    <polygon id="Fill-5" points="56.1246516 67.1368579 50.1998862 67.1368579 50.1998862 70.532818 55.495017 70.532818 55.495017 71.6701057 50.1998862 71.6701057 50.1998862 75.213492 56.3193929 75.213492 56.3193929 76.3353064 49 76.3353064 49 66 56.1246516 66"></polygon>
                    <polygon id="Fill-7" points="72.0542577 67.1368579 68.6196491 67.1368579 68.6196491 76.3353064 67.4197629 76.3353064 67.4197629 67.1368579 64 67.1368579 64 66 72.0542577 66"></polygon>
                    <path d="M87.8192506,66 L87.8192506,72.0831569 C87.8192506,73.4314833 87.4288946,74.4871064 86.649056,75.2500262 C85.8687806,76.0129459 84.7937735,76.3941909 83.4249077,76.3941909 C82.0442527,76.3941909 80.9618226,76.0129459 80.1771809,75.2500262 C79.3921025,74.4871064 79,73.4314833 79,72.0831569 L79,66 L80.1994495,66 L80.1994495,72.0831569 C80.1994495,73.0773166 80.4867585,73.8544202 81.0618131,74.4157573 C81.6368677,74.9766645 82.4241293,75.2577628 83.4249077,75.2577628 C84.4239396,75.2577628 85.2068347,74.9792434 85.7718466,74.4234939 C86.3364219,73.8673147 86.6193645,73.0872023 86.6193645,72.0831569 L86.6193645,66 L87.8192506,66 Z" id="Fill-9"></path>
                    <path d="M98.1998862,71.9357307 L100.989578,71.9357307 C101.949749,71.9357307 102.68636,71.7289902 103.202032,71.3150794 C103.717267,70.9020282 103.974447,70.2964203 103.974447,69.4991154 C103.974447,68.721582 103.717267,68.1335965 103.202032,67.7347291 C102.68636,67.3358618 101.949749,67.1364281 100.989578,67.1364281 L98.1998862,67.1364281 L98.1998862,71.9357307 Z M103.869217,76.3353064 L101.694314,73.0429315 C101.394343,73.0631328 101.159431,73.0721588 100.989578,73.0721588 L98.1998862,73.0721588 L98.1998862,76.3353064 L97,76.3353064 L97,66 L100.989578,66 C102.299497,66 103.317305,66.3021592 104.042127,66.9077671 C104.766512,67.5133749 105.129796,68.3674153 105.129796,69.4694583 C105.129796,70.3161918 104.927196,71.0245252 104.521994,71.5957479 C104.117229,72.1669707 103.534315,72.5752939 102.774561,72.8215773 L105.23459,76.3353064 L103.869217,76.3353064 Z" id="Fill-11"></path>
                    <polygon id="Fill-13" points="23.4259837 28.8512619 89.8982798 28.8512619 89.8982798 27.9890551 23.4259837 27.9890551"></polygon>
                    <path d="M45.8953803,4.55478148 C44.1933584,4.55478148 42.808337,5.91815135 42.808337,7.59356616 C42.808337,9.26984059 44.1933584,10.6332105 45.8953803,10.6332105 C47.5978389,10.6332105 48.9828603,9.26984059 48.9828603,7.59356616 C48.9828603,5.91815135 47.5978389,4.55478148 45.8953803,4.55478148 M45.8953803,11.4954173 C43.7099981,11.4954173 41.9320009,9.74521483 41.9320009,7.59356616 C41.9320009,5.4423473 43.7099981,3.69257469 45.8953803,3.69257469 C48.0811991,3.69257469 49.8591964,5.4423473 49.8591964,7.59356616 C49.8591964,9.74521483 48.0811991,11.4954173 45.8953803,11.4954173" id="Fill-15"></path>
                    <polygon id="Fill-16" points="16.3825471 51.443315 15.6350198 50.99287 38.3533884 14.4483681 60.4849132 50.9971681 59.7321462 51.438587 38.3433457 16.1160462"></polygon>
                    <polygon id="Fill-17" points="35.3490883 25.5570817 34.6019976 25.1070665 38.3723823 19.041532 41.7065638 25.1272678 40.9354579 25.5368805 38.3243519 20.7711033"></polygon>
                    <polygon id="Fill-18" points="56.6182495 16.3580745 55.8711588 15.9080593 59.6415434 9.84252471 62.9761615 15.9282605 62.2050557 16.3378732 59.593513 11.5720961"></polygon>
                    <path d="M59.7122354,5.32646946 L45.1424387,28.7629351 C45.4192683,28.8875811 45.8738103,28.7092083 46.0842707,28.9000457 L59.7021927,6.99414761 L81.0905565,42.3166884 L81.8437601,41.8752695 L59.7122354,5.32646946 Z" id="Fill-19"></path>
                    <polygon id="Fill-20" points="45.5727908 3.05769649 46.2177078 3.05769649 46.2177078 0.281528142 45.5727908 0.281528142"></polygon>
                    <polygon id="Fill-21" points="49.2789458 4.58100013 48.8230938 4.13227436 50.8176644 2.16931402 51.2735164 2.61803979"></polygon>
                    <polygon id="Fill-22" points="50.3491936 7.78908853 53.1698867 7.78908853 53.1698867 7.15425331 50.3491936 7.15425331"></polygon>
                    <polygon id="Fill-23" points="50.7965311 12.7659473 48.8019605 10.802987 49.2578124 10.3542612 51.252383 12.3172215"></polygon>
                    <polygon id="Fill-24" points="45.5426627 14.6330162 46.1875797 14.6330162 46.1875797 11.8568478 45.5426627 11.8568478"></polygon>
                    <polygon id="Fill-25" points="40.9431427 12.7451443 40.4872908 12.2964185 42.4809881 10.3334582 42.9368401 10.782184"></polygon>
                    <polygon id="Fill-26" points="38.5900472 7.75986118 41.4107403 7.75986118 41.4107403 7.12502596 38.5900472 7.12502596"></polygon>
                    <polygon id="Fill-27" points="42.5024708 4.56024012 40.5087735 2.59684996 40.9646254 2.14812419 42.9583227 4.11151435"></polygon>
                    <polygon id="Fill-1" points="7.79079129 66 7.79079129 70.6087839 1.24146677 70.6087839 1.24146677 66 0 66 0 76.2089552 1.24146677 76.2089552 1.24146677 71.7173546 7.79079129 71.7173546 7.79079129 76.2089552 9.03225806 76.2089552 9.03225806 66"></polygon>
                    <polygon id="Fill-2" points="25.8090766 66 22.1140183 71.3233471 18.3695005 66 17 66 21.4710446 72.7524734 21.4710446 76.2089552 22.7733185 76.2089552 22.7733185 72.7091666 27.1612903 66"></polygon>
                </g>
            </g>
        </g>
    </g>
</svg>