<?xml version="1.0" encoding="utf-8"?>
<!-- Generator: Adobe Illustrator 22.0.1, SVG Export Plug-In . SVG Version: 6.00 Build 0)  -->
<svg version="1.1" id="Layer_1" xmlns="http://www.w3.org/2000/svg" xmlns:xlink="http://www.w3.org/1999/xlink" x="0px" y="0px"
	 viewBox="0 0 32 32" style="enable-background:new 0 0 32 32;" xml:space="preserve">
<style type="text/css">
	.st0{fill:#5C4F5D;}
	.st1{fill:#FDC478;}
</style>
<rect x="0" y="0" transform="matrix(6.123234e-17 -1 1 6.123234e-17 0 32)" class="st0" width="32" height="32"/>
<g>
	<g>
		<rect x="2" y="17" class="st1" width="31.7" height="0.4"/>
	</g>
	<g>
		<g>
			<path class="st1" d="M12.7,9c-1,0-1.9-0.8-1.9-1.9c0-1,0.8-1.9,1.9-1.9c1,0,1.9,0.8,1.9,1.9C14.6,8.2,13.8,9,12.7,9z M12.7,5.7
				c-0.8,0-1.5,0.7-1.5,1.5c0,0.8,0.7,1.5,1.5,1.5c0.8,0,1.5-0.7,1.5-1.5C14.2,6.3,13.5,5.7,12.7,5.7z"/>
		</g>
	</g>
	<g>
		<polygon class="st1" points="-1.4,28.4 -1.7,28.2 9.1,10.5 19.7,28.2 19.3,28.4 9.1,11.3 		"/>
	</g>
	<g>
		<polygon class="st1" points="7.7,15.9 7.3,15.6 9.1,12.7 10.7,15.6 10.4,15.8 9.1,13.5 		"/>
	</g>
	<g>
		<polygon class="st1" points="17.8,11.4 17.5,11.2 19.3,8.2 20.9,11.2 20.5,11.4 19.3,9.1 		"/>
	</g>
	<g>
		<path class="st1" d="M19.3,6l-7,11.4c0.1,0.1,0.3,0,0.4,0.1l6.5-10.6L29.5,24l0.4-0.2L19.3,6z"/>
	</g>
	<g>
		<rect x="12.6" y="3.6" class="st1" width="0.3" height="1.3"/>
	</g>
	<g>
		<rect x="14" y="4.9" transform="matrix(0.7071 -0.7071 0.7071 0.7071 0.7056 11.8872)" class="st1" width="1.3" height="0.3"/>
	</g>
	<g>
		<rect x="14.8" y="6.9" class="st1" width="1.3" height="0.3"/>
	</g>
	<g>
		<rect x="14.5" y="8.4" transform="matrix(0.7071 -0.7072 0.7072 0.7071 -2.1045 13.0442)" class="st1" width="0.3" height="1.3"/>
	</g>
	<g>
		<rect x="12.6" y="9.2" class="st1" width="0.3" height="1.3"/>
	</g>
	<g>
		<rect x="10" y="8.9" transform="matrix(0.7071 -0.7071 0.7071 0.7071 -3.2606 10.2325)" class="st1" width="1.3" height="0.3"/>
	</g>
	<g>
		<rect x="9.2" y="6.9" class="st1" width="1.3" height="0.3"/>
	</g>
	<g>
		<rect x="10.6" y="4.4" transform="matrix(0.7072 -0.707 0.707 0.7072 -0.4507 9.075)" class="st1" width="0.3" height="1.3"/>
	</g>
</g>
</svg>
