<?xml version="1.0" encoding="utf-8"?>
<!-- Generator: Adobe Illustrator 22.0.1, SVG Export Plug-In . SVG Version: 6.00 Build 0)  -->
<svg version="1.1" id="Capa_1" xmlns="http://www.w3.org/2000/svg" xmlns:xlink="http://www.w3.org/1999/xlink" x="0px" y="0px"
	 viewBox="0 0 512 512" style="enable-background:new 0 0 512 512;" xml:space="preserve">
<style type="text/css">
	.st0{fill:#fec578;}
</style>
<g>
	<g>
		<g>
			<path class="st0" d="M480,256h-47.9L179.2,3.1c-4.2-4.2-10.9-4.2-15.1,0l-161,161c-4.2,4.2-4.2,10.9,0,15.1L79.9,256H32
				c-17.7,0-32,14.3-32,32v192c0,17.7,14.3,32,32,32h352c8.2,0,15.7-3.1,21.3-8.2c5.7,5.1,13.1,8.2,21.3,8.2H480
				c17.7,0,32-14.3,32-32V288C512,270.3,497.7,256,480,256z M405.4,264.2c-5.7-5.1-13.1-8.2-21.3-8.2H111.1l145.4-145.4L408,262.1
				C407.1,262.7,406.2,263.4,405.4,264.2z M171.7,25.8l69.7,69.7L95.5,241.4l-69.8-69.7L171.7,25.8z M490.7,480
				c0,5.9-4.8,10.7-10.7,10.7h-53.3c-5.9,0-10.7-4.8-10.7-10.7h-21.3c0,5.9-4.8,10.7-10.7,10.7H32c-5.9,0-10.7-4.8-10.7-10.7V288
				c0-5.9,4.8-10.7,10.7-10.7h352c5.9,0,10.7,4.8,10.7,10.7H416c0-5.9,4.8-10.7,10.7-10.7H480c5.9,0,10.7,4.8,10.7,10.7V480z"/>
			<rect x="394.7" y="309.3" class="st0" width="21.3" height="21.3"/>
			<rect x="394.7" y="352" class="st0" width="21.3" height="21.3"/>
			<rect x="394.7" y="394.7" class="st0" width="21.3" height="21.3"/>
			<rect x="394.7" y="437.3" class="st0" width="21.3" height="21.3"/>
			<path class="st0" d="M323.5,333.4c-2-1.8-4.5-2.7-7.1-2.7H127.6L107,302.9c-2-2.7-5.2-4.3-8.5-4.3H74.7
				c-5.9,0-10.7,4.8-10.7,10.7v85.3c0,5.9,4.8,10.7,10.7,10.7H160v53.3c0,5.9,4.8,10.7,10.7,10.7h32c3.2,0,6.2-1.4,8.2-3.8
				l50.1-60.2h91c5.9,0,10.7-4.8,10.7-10.7v-21.3c0-3-1.3-5.9-3.5-7.9L323.5,333.4z M341.4,384H256c-3.2,0-6.2,1.4-8.2,3.8
				L197.7,448h-16.3v-53.3c0-5.9-4.8-10.7-10.7-10.7H85.4v-64h7.7l20.6,27.7c2,2.7,5.2,4.3,8.5,4.3h190l29.1,26.1L341.4,384
				L341.4,384z"/>
			
				<rect x="272" y="149" transform="matrix(0.7071 -0.7071 0.7071 0.7071 -49.2031 254.5666)" class="st0" width="21.3" height="75.4"/>
			
				<rect x="234.7" y="183.2" transform="matrix(0.7071 -0.7071 0.7071 0.7071 -78.9823 235.9692)" class="st0" width="21.3" height="60.3"/>
		</g>
	</g>
</g>
</svg>
