<?xml version="1.0" encoding="utf-8"?>
<!-- Generator: Adobe Illustrator 22.0.1, SVG Export Plug-In . SVG Version: 6.00 Build 0)  -->
<svg version="1.1" id="Layer_1" xmlns="http://www.w3.org/2000/svg" xmlns:xlink="http://www.w3.org/1999/xlink" x="0px" y="0px"
	 viewBox="0 0 503.6 503.6" style="enable-background:new 0 0 503.6 503.6;" xml:space="preserve">
<style type="text/css">
	.st0{fill:#fec578;}
</style>
<g transform="translate(1 1)">
	<g>
		<path class="st0" d="M443.9,192H181.2c1.6-3.6,2.5-7.5,2.5-11.8v-10.1c0-15.9-12.6-28.5-28.5-28.5H94.7
			c-15.9,0-28.5,12.6-28.5,28.5v10.1c0,4.2,0.9,8.2,2.5,11.8H49.4V66.1c0-9.2-7.6-16.8-16.8-16.8H15.8C6.6,49.4-1,56.9-1,66.1v134.3
			v235c0,9.2,7.6,16.8,16.8,16.8h16.8c9.2,0,16.8-7.6,16.8-16.8V326.3h75.5h327.3v109.1c0,9.2,7.6,16.8,16.8,16.8h16.8
			c9.2,0,16.8-7.6,16.8-16.8V250.8C502.6,218.1,476.6,192,443.9,192z M82.9,180.3v-10.1c0-6.7,5-11.8,11.8-11.8h60.4
			c6.7,0,11.8,5,11.8,11.8v10.1c0,6.7-5,11.8-11.8,11.8h-30.2H94.7C88,192,82.9,187,82.9,180.3z M15.8,66.1h16.8v125.9H15.8V66.1z
			 M41,309.6c-5,0-8.4,3.4-8.4,8.4v117.5H15.8V208.8H41h53.7h21.8v100.7H41z M485.8,435.5H469V318c0-5-3.4-8.4-8.4-8.4H133.3V208.8
			h21.8h288.7c23.5,0,42,18.5,42,42L485.8,435.5L485.8,435.5z"/>
	</g>
</g>
</svg>
