<?xml version="1.0" encoding="utf-8"?>
<!-- Generator: Adobe Illustrator 23.0.1, SVG Export Plug-In . SVG Version: 6.00 Build 0)  -->
<svg version="1.1" id="Layer_1" xmlns="http://www.w3.org/2000/svg" xmlns:xlink="http://www.w3.org/1999/xlink" x="0px" y="0px"
	 viewBox="0 0 44 45" style="enable-background:new 0 0 44 45;" xml:space="preserve">
<style type="text/css">
	.st0{fill:#fec578;}
</style>
<title>boat</title>
<desc>Created with Sketch.</desc>
<g id="Page-1">
	<g id="Hype-Tur---XL" transform="translate(-757.000000, -2641.000000)">
		<g id="boat" transform="translate(757.000000, 2641.000000)">
			<rect id="Rectangle-path" x="21.5" y="14.7" class="st0" width="2" height="28.4"/>
			<path id="Shape" class="st0" d="M38.3,43c-1.1,0.8-2.7,0.8-3.9,0c-1.7-1.2-4-1.2-5.7,0c-1.1,0.8-2.7,0.8-3.9,0
				c-1.7-1.2-4-1.2-5.7,0c-1.1,0.8-2.7,0.8-3.9,0c-1.7-1.2-4-1.2-5.7,0c-1.1,0.8-2.7,0.8-3.9,0c-1.7-1.2-4-1.2-5.7,0l0.9,1.1
				c1.1-0.8,2.7-0.8,3.9,0c1.7,1.2,4,1.2,5.7,0c1.1-0.8,2.7-0.8,3.9,0c0.8,0.6,1.8,0.9,2.8,0.9c1,0,2-0.3,2.8-0.9
				c1.1-0.8,2.7-0.8,3.9,0c1.7,1.2,4,1.2,5.7,0c1.1-0.8,2.7-0.8,3.9,0c1.7,1.2,4,1.2,5.7,0c1.1-0.8,2.7-0.8,3.9,0L44,43
				C42.3,41.8,40,41.8,38.3,43z"/>
			<path class="st0" d="M35.4,5.9H8.6c-0.4,0-0.7,0.3-0.7,0.7v12h1.5V7.4h25.4v11.2h1.5v-12C36.2,6.2,35.8,5.9,35.4,5.9z"/>
			<path class="st0" d="M25.7,0.7c0-0.4-0.4-0.7-0.8-0.7h-4.9c-0.4,0-0.7,0.3-0.8,0.7l-0.7,6l1.6,0.2l0.6-5.3h3.5l0.6,5.3l1.6-0.2
				L25.7,0.7z"/>
			<rect x="16.6" class="st0" width="10.8" height="2"/>
			<path class="st0" d="M40.6,20.5l-15.7-6.2c-1.1-0.4-2.2-0.6-3.4-0.6c0,0,0,0,0,0l0,1.5c0,0,0,0,0,0c1,0,1.9,0.2,2.8,0.5l15.2,6
				c-0.5,6.9-2.9,13.5-6.9,19.2l-0.9,1.3L33,43l0.9-1.3c4.2-6,6.7-13.1,7.2-20.5C41.1,20.9,40.9,20.6,40.6,20.5z"/>
			<path class="st0" d="M21.5,13.7c-1.2,0-2.3,0.2-3.4,0.6L2.4,20.5c-0.3,0.1-0.5,0.4-0.5,0.7c0.5,7.4,3,14.5,7.2,20.5l0.9,1.3
				l1.2-0.9l-0.9-1.3c-4-5.7-6.3-12.3-6.9-19.2l15.2-6c0.9-0.4,1.9-0.5,2.8-0.5c0,0,0,0,0,0L21.5,13.7
				C21.5,13.7,21.5,13.7,21.5,13.7z"/>
			<rect x="8.8" y="39.1" class="st0" width="26.4" height="2"/>
			<path class="st0" d="M24,18c-1.3-0.5-2.7-0.5-3.9,0L2.9,25l0.6,1.4l17.1-7c0.9-0.4,1.9-0.4,2.8,0l17.1,7l0.6-1.4L24,18z"/>
			<rect x="21.5" y="8.8" class="st0" width="2" height="2"/>
			<rect x="18.6" y="8.8" class="st0" width="2" height="2"/>
			<rect x="15.6" y="8.8" class="st0" width="2" height="2"/>
			<rect x="12.7" y="8.8" class="st0" width="2" height="2"/>
			<rect x="24.4" y="8.8" class="st0" width="2" height="2"/>
			<rect x="27.4" y="8.8" class="st0" width="2" height="2"/>
			<rect x="30.3" y="8.8" class="st0" width="2" height="2"/>
			<rect x="9.8" y="8.8" class="st0" width="2" height="2"/>
			<rect x="33.2" y="8.8" class="st0" width="2" height="2"/>
			<rect x="21.5" y="11.7" class="st0" width="2" height="2"/>
			<rect x="18.6" y="11.7" class="st0" width="2" height="2"/>
			<rect x="15.6" y="11.7" class="st0" width="2" height="2"/>
			<rect x="12.7" y="11.7" class="st0" width="2" height="2"/>
			<rect x="24.4" y="11.7" class="st0" width="2" height="2"/>
			<rect x="27.4" y="11.7" class="st0" width="2" height="2"/>
			<rect x="30.3" y="11.7" class="st0" width="2" height="2"/>
			<rect x="9.8" y="11.7" class="st0" width="2" height="2"/>
			<rect x="33.2" y="11.7" class="st0" width="2" height="2"/>
			<rect x="12.7" y="14.7" class="st0" width="2" height="2"/>
			<rect x="30.3" y="14.7" class="st0" width="2" height="2"/>
			<rect x="9.8" y="14.7" class="st0" width="2" height="2"/>
			<rect x="33.2" y="14.7" class="st0" width="2" height="2"/>
			<rect x="16.6" y="2.9" class="st0" width="2.9" height="2"/>
			<rect x="24.4" y="2.9" class="st0" width="2.9" height="2"/>
			<rect x="13.7" y="2" class="st0" width="2" height="4.9"/>
			<rect x="28.4" y="2" class="st0" width="2" height="4.9"/>
			<rect x="10.8" y="2" class="st0" width="2" height="4.9"/>
			<rect x="31.3" y="2" class="st0" width="2" height="4.9"/>
		</g>
	</g>
</g>
</svg>
