<?xml version="1.0" encoding="UTF-8"?>
<svg width="102px" height="99px" viewBox="0 0 102 99" version="1.1" xmlns="http://www.w3.org/2000/svg" xmlns:xlink="http://www.w3.org/1999/xlink">
    <!-- Generator: Sketch 49 (51002) - http://www.bohemiancoding.com/sketch -->
    <title>003-world</title>
    <desc>Created with Sketch.</desc>
    <defs></defs>
    <g id="Page-1" stroke="none" stroke-width="1" fill="none" fill-rule="evenodd">
        <g id="Hype-Tur---XL" transform="translate(-270.000000, -2589.000000)" fill="#5B4E5C" fill-rule="nonzero">
            <g id="003-world" transform="translate(270.000000, 2589.000000)">
                <g id="Group" transform="translate(0.000000, 3.000000)">
                    <path d="M19.5086086,82.2803537 C19.4776795,82.2512314 19.4457606,82.2234092 19.4126045,82.1968871 C18.4228711,81.333619 17.4331377,80.407946 16.522583,79.4510706 C15.9440838,78.8496431 15.0127447,78.8496431 14.4342455,79.4510706 C13.8552515,80.0602986 13.8552515,81.0468164 14.4342455,81.6560444 C15.4239789,82.6961265 16.4137123,83.6634027 17.5222137,84.5994765 C18.1316421,85.175942 19.0704042,85.1239379 19.6189639,84.4835074 C20.1672762,83.8430769 20.118037,82.8568191 19.5086086,82.2803537 Z" id="Shape"></path>
                    <path d="M2.91476836,36.0820407 C2.07103123,35.8161899 1.14799144,36.2177633 0.853168967,36.978588 C0.809471583,37.0914469 0.781149205,37.2089272 0.76928078,37.3278668 C0.445596459,38.6607694 0.197438479,40.0131304 0.0140173633,41.3654914 C-0.101430045,42.1564767 0.508714901,42.8844652 1.38428099,42.9999997 L1.58928106,42.9999997 C2.40847213,43.0004861 3.09872895,42.4490828 3.19691319,41.7157432 C3.36954483,40.4509451 3.60691333,39.1764178 3.9090187,37.9408074 C4.20384117,37.1799828 3.75850549,36.3476483 2.91476836,36.0820407 Z" id="Shape"></path>
                    <path d="M11.7515134,74.4195805 C11.0144015,73.2523353 10.3155812,72.0410431 9.67419812,70.8077274 C9.26878659,70.023691 8.38760285,69.7660161 7.70601368,70.2323636 C7.70481707,70.2331895 7.70338114,70.2340154 7.70218453,70.2351165 C7.02059536,70.701464 6.79658993,71.7150954 7.20200147,72.4991318 C7.20271943,72.5005082 7.2034374,72.50216 7.20439469,72.5035365 C7.89364216,73.8249461 8.64032692,75.1243323 9.43487609,76.3686597 C9.9247683,77.0860751 10.827491,77.2105078 11.4511643,76.6469816 C12.0444436,76.1107096 12.1758314,75.1375464 11.7515134,74.4195805 Z" id="Shape"></path>
                    <path d="M6.8742034,63.8846747 C6.32396329,62.65397 5.81957652,61.3825808 5.3954331,60.1010205 C5.13091663,59.2919085 4.17688052,58.8260715 3.26497216,59.0607699 C3.24892349,59.0648384 3.23316141,59.0691611 3.21739932,59.0737381 C2.31494822,59.3183534 1.80339687,60.16281 2.07106575,60.9655652 C2.52959918,62.3284944 3.05691262,63.6914235 3.65300608,65.0340105 C4.01066215,65.8232889 5.02172836,66.2057228 5.9112832,65.888384 C6.80083805,65.5710453 7.23185947,64.6739531 6.8742034,63.8846747 Z" id="Shape"></path>
                    <path d="M7.11489631,25.1673627 C6.32166176,24.7791673 5.35450518,25.089255 4.95494007,25.8599179 C4.27961877,27.1617134 3.65789439,28.5051663 3.11120572,29.869448 C2.78882019,30.6687504 3.19106514,31.571155 4.01163412,31.8898346 C4.83729482,32.2074727 5.77175727,31.8148511 6.09869854,31.0126848 C6.09977048,31.0100812 6.10084242,31.0072172 6.10191436,31.0046136 C6.61644487,29.7340612 7.17385294,28.4739232 7.82773547,27.265857 C8.22730058,26.4951941 7.90813086,25.5558185 7.11489631,25.1673627 Z" id="Shape"></path>
                    <path d="M2.98922863,53.3349464 C2.98900364,53.3337045 2.98900364,53.3322143 2.98877865,53.3309725 C2.84478533,52.0394631 2.74578993,50.7280844 2.70079202,49.436575 C2.67356828,48.6134861 2.04697237,47.9709602 1.30135698,48.0010127 C0.555741593,48.0310651 -0.0263063873,48.7227677 0.00091734892,49.5458566 C0.00091734892,50.9367128 0.144910665,52.3375038 0.306903145,53.7184253 C0.399148863,54.4406771 0.951498222,54.9828627 1.61184257,55 L1.81883296,55 C2.55859862,54.8969276 3.08259929,54.1513293 2.98922863,53.3349464 Z" id="Shape"></path>
                    <path d="M43.9930993,1.50353278 C43.9151992,0.588997087 43.1980317,-0.080484989 42.3912791,0.007822622 C41.0377653,0.162360941 39.674514,0.383129969 38.3307377,0.681168156 C37.5239851,0.766440193 36.9312142,1.57693849 37.0064365,2.49147418 C37.0816588,3.40600988 37.7966354,4.07797561 38.603388,3.99270357 L38.5936505,3.94854976 L38.8760383,3.94854976 C40.1321769,3.67258848 41.4077906,3.4628579 42.6736668,3.31935804 C43.4804195,3.23105043 44.0709994,2.41806848 43.9930993,1.50353278 Z" id="Shape"></path>
                    <path d="M14.4492562,16.3661652 C13.7739689,15.832498 12.741829,15.8887879 12.1441889,16.4917908 C11.148573,17.5064592 10.1962447,18.5791086 9.30884794,19.6807485 C8.78290301,20.3289283 8.94496114,21.2353654 9.67111145,21.7050119 C9.94679966,21.8833036 10.2779502,21.9796971 10.6182993,21.9806634 L10.6182993,21.9999904 C11.1407271,22.0016816 11.6320419,21.7786961 11.9385726,21.4008529 C12.7718598,20.3765211 13.6592566,19.3715162 14.5899411,18.4244924 C15.1875812,17.8214895 15.1245436,16.900074 14.4492562,16.3661652 Z" id="Shape"></path>
                    <path d="M54.6402565,0.513803008 C53.2942613,0.270101914 51.9190052,0.0960297044 50.5535028,0.00319119244 C49.7454179,-0.0545427572 49.0512062,0.678011126 49.0026821,1.63946997 C48.954158,2.6009288 49.5698533,3.42690144 50.3779382,3.48463539 C51.6654119,3.60068353 52.943132,3.76315093 54.201345,3.99524721 L54.4256776,3.99524721 C55.2337624,4.06574645 55.9367523,3.3436369 55.9960054,2.38217806 C56.0552584,1.42100934 55.4483414,0.584302253 54.6402565,0.513803008 Z" id="Shape"></path>
                    <path d="M22.7179214,8.67430504 C22.2647445,7.97081357 21.4115067,7.7905939 20.768319,8.26280807 C19.6577096,9.13492774 18.5664152,10.0843238 17.5234081,11.0668384 C16.9072613,11.6522074 16.8229999,12.697371 17.3350874,13.4016905 C17.8471749,14.1060099 18.7614961,14.2023294 19.3776429,13.6169605 C20.3433902,12.6896434 21.3670823,11.8064842 22.4100894,10.989562 C23.0544843,10.4475231 23.1921033,9.41091498 22.7179214,8.67430504 Z" id="Shape"></path>
                    <path d="M33.7464828,3.1505 C33.5045517,2.35175 32.5936552,1.88175 31.712,2.10125 C31.6344828,2.1205 31.5586207,2.145 31.4849655,2.17425 C30.0394483,2.65425 28.593931,3.17425 27.2035862,3.80425 C26.3746207,4.15375 26.0154483,5.046 26.4011034,5.797 C26.6714483,6.32375 27.2535172,6.66025 27.8935172,6.66325 C28.1324138,6.659 28.3677241,6.60875 28.5828966,6.51425 C29.8849655,5.95425 31.2311724,5.44425 32.5884138,4.99425 C33.4703448,4.77475 33.9886897,3.94925 33.7464828,3.1505 Z" id="Shape"></path>
                    <path d="M51.9969726,94.3656969 C51.9450555,93.5621241 51.2389838,92.9520489 50.4196835,93.0029693 C49.1242298,93.0999606 47.8188871,93.129058 46.5234334,93.0902615 C45.7041331,93.0689234 45.0222893,93.7027614 45.0005336,94.5063342 C44.9787779,95.309907 45.6250214,95.9786619 46.4443217,96 L47.7002196,96 C48.6891155,96 49.6780115,96 50.6075737,95.9127078 C51.4268741,95.8620299 52.0488896,95.1692696 51.9969726,94.3656969 Z" id="Shape"></path>
                    <path d="M92.9185386,58.0475128 C92.1507173,57.8394018 91.3697566,58.334334 91.1745761,59.1530225 C90.8687854,60.4470292 90.496103,61.7308469 90.0756408,62.9840976 C89.8264692,63.7712001 90.2125299,64.6265691 90.9452331,64.9098242 C91.690359,65.1948623 92.5112159,64.7816971 92.7785438,63.9872075 C92.7790216,63.9856792 92.7794994,63.9841508 92.7799772,63.9826225 C93.2291073,62.6376706 93.6209016,61.2621516 93.9553602,59.9070107 C94.1507795,59.0883221 93.6863599,58.2558784 92.9185386,58.0475128 Z" id="Shape"></path>
                    <path d="M94.9796284,40.2567302 C94.739145,38.8580603 94.4359269,37.4492551 94.069974,36.080991 C93.8195576,35.2772626 92.9441459,34.8224414 92.1150011,35.065435 C91.3289865,35.2955061 90.8592598,36.0744031 91.0377925,36.851273 C91.3828339,38.1283195 91.6651404,39.4459071 91.895168,40.7533594 C92.0303092,41.469671 92.6704654,41.9923985 93.4217145,42 L93.6831094,42 C94.5376095,41.865454 95.1179063,41.0852901 94.9796284,40.2567302 Z" id="Shape"></path>
                    <path d="M89.2798145,69.2240622 C89.2586602,69.2103098 89.2370195,69.1968272 89.2151357,69.1844231 C88.518015,68.7802122 87.6574951,69.0617307 87.2699086,69.8208058 C86.6571621,71.0612129 85.9860587,72.2800476 85.2663247,73.4449516 C84.8016586,74.1776007 84.9606809,75.1893414 85.6213286,75.7046496 C86.2819764,76.2199579 87.1942879,76.0436043 87.658954,75.3109552 C88.4175926,74.0597621 89.1373266,72.7546381 89.7987039,71.4387281 C90.2069584,70.6680578 89.9745038,69.6765411 89.2798145,69.2240622 Z" id="Shape"></path>
                    <path d="M93.5964949,46.0001552 C92.8215262,45.9877929 92.1845688,46.7155192 92.1738086,47.6256578 C92.1735747,47.6479099 92.1735747,47.670162 92.1742764,47.6924141 L92.1742764,47.8792219 C92.1742764,49.3187409 92.1181362,50.7692485 92.0058558,52.2087675 C91.9356806,53.1153347 92.5043341,53.9172347 93.2762618,53.9996499 C93.2769636,53.9996499 93.2776654,53.9999246 93.2783671,53.9999246 L93.4093609,53.9999246 C94.1497098,54.0081662 94.7679538,53.3395041 94.8222227,52.4724961 C94.9438598,50.9450676 95,49.3956617 95,47.8572445 L95,47.6374706 C94.9948538,46.7314528 94.3679549,46.0001552 93.5964949,46.0001552 Z" id="Shape"></path>
                    <path d="M38.6722319,91.9720781 C37.4091806,91.750537 36.1558451,91.4685757 34.9413728,91.085914 C34.1820846,90.8092395 33.3501711,91.2228666 33.0829871,92.0098407 C32.8158032,92.7968148 33.2151217,93.6590626 33.9744099,93.9359888 C34.0300327,93.9563807 34.0871129,93.9729963 34.1446789,93.9863391 C35.4465933,94.3690008 36.7873708,94.7013123 38.1281483,94.9933437 L38.4001901,94.9933437 C39.2051424,95.0711348 39.9185235,94.4581207 39.9935779,93.6238174 C40.0686323,92.7895141 39.4771842,92.0501209 38.6722319,91.9720781 Z" id="Shape"></path>
                    <path d="M63.9054831,90.9662312 C63.6292649,90.2414985 62.8214857,89.8449373 62.0529117,90.0569942 L62.0529117,90.0963551 C60.7901998,90.4998044 59.4867553,90.8442124 58.193494,91.0803779 C57.3696763,91.259716 56.8521172,92.0506243 57.0377053,92.8466987 C57.2232934,93.6427731 58.0417649,94.1429026 58.8655825,93.9635645 C60.2504923,93.6585174 61.6455853,93.2845888 62.9999456,92.861459 C63.7916863,92.5795365 64.196976,91.7310629 63.9054831,90.9662312 Z" id="Shape"></path>
                    <path d="M29.0863224,88.1019299 C27.8271118,87.5047898 26.5890644,86.8570446 25.3933433,86.2092994 C24.6364943,85.7844697 23.6629869,86.0268681 23.2188242,86.7507739 C22.7746614,87.4746798 23.0280908,88.4058135 23.7849399,88.8306432 C25.0653137,89.5492356 26.3880139,90.2172228 27.7318774,90.8548469 C28.5265557,91.2126249 29.4741381,90.8862221 29.8481978,90.1261336 C30.2222574,89.3660451 29.8812653,88.4597079 29.0863224,88.1019299 Z" id="Shape"></path>
                    <path d="M82.5025767,78.4035218 C81.8907491,77.8390596 80.9447577,77.8704329 80.3711057,78.4747546 L80.3812859,78.4747546 C79.4650714,79.5033872 78.4979562,80.408584 77.5104807,81.3034944 C76.8808378,81.8715568 76.8261194,82.8479864 77.3883187,83.4841957 C77.9505181,84.120405 78.9168698,84.175694 79.5465127,83.6076316 C80.5645287,82.6510032 81.6436257,81.6326569 82.6005608,80.5834515 C83.1693772,79.9539284 83.125348,78.9780131 82.5025767,78.4035218 Z" id="Shape"></path>
                    <path d="M73.7731161,86.7227368 C73.3200479,86.019261 72.3382223,85.7899635 71.5799993,86.2104659 C71.5544142,86.2245651 71.5293622,86.2394064 71.5048432,86.2549897 L71.5048432,86.215413 C70.332196,86.9080053 69.1062466,87.5610208 67.8696368,88.194248 C67.0836966,88.5684952 66.7734781,89.4634233 67.1767089,90.1928713 C67.5799396,90.9223194 68.5441755,91.2102399 69.3301156,90.8359927 C70.6520089,90.2027655 71.9632417,89.5002791 73.2211724,88.758216 C73.9791289,88.3374662 74.2264509,87.4262127 73.7731161,86.7227368 Z" id="Shape"></path>
                </g>
                <path d="M101.860103,24.6784621 C101.786697,24.5194911 101.686218,24.3745241 101.563093,24.2500443 L98.8038398,21.3870099 C98.4086939,20.9938614 97.8279491,20.850191 97.2940596,21.0135707 L92.3169911,22.517701 L86.4861159,16.3559531 L99.5743483,9.09463398 C100.337048,8.744794 100.670501,7.84516842 100.319086,7.08558258 C100.24568,6.92661155 100.145201,6.7816445 100.022076,6.65716475 L96.3465424,2.99538525 C95.94593,2.611832 95.3670074,2.47646026 94.8367622,2.64269261 L78.2500046,7.64262949 L72.6690241,1.74021437 C71.246707,0.101749579 68.9312769,-0.445702016 66.9214471,0.381310365 L66.8277366,0.381310365 C65.3124899,1.00267182 64.109091,2.20156747 63.4853956,3.71114385 C63.3281702,4.10532974 63.2164985,4.51585361 63.1522027,4.93519479 L62.5170538,4.71735521 C61.6947442,4.45387306 60.8136053,4.90433418 60.5491334,5.72356658 C60.2846616,6.54279897 60.7368147,7.42064059 61.5591243,7.68412274 C62.3608697,7.94345556 63.162615,8.23390833 63.9643603,8.53473441 C64.2056649,8.910767 64.4886185,9.25879166 64.8077548,9.57206571 L70.6906914,15.1321615 L69.0039025,20.681884 C52.5061699,8.95770625 29.5921318,12.7774194 17.8239159,29.2134153 C6.0556999,45.6494111 9.88976066,68.4774424 26.3874932,80.2016201 C42.8852258,91.9257979 65.7992639,88.1060847 77.5674799,71.6700888 C86.9520653,58.5631485 86.6245992,40.8826144 76.761049,28.1296634 L79.426592,23.3371928 L85.6114846,29.1462481 L84.122529,34.0528251 C83.9431775,34.5919781 84.0842638,35.1858502 84.4869587,35.5880755 C84.4869587,35.5880755 87.5377559,38.5963362 87.6106418,38.7000694 C88.3319523,39.1165579 89.2557816,38.8717477 89.6740949,38.1531364 C89.6806025,38.1419851 89.6871102,38.1305745 89.6930973,38.1191638 L93.7642976,30.6814984 L101.115365,26.6877729 C101.878065,26.3376736 102.211518,25.438048 101.860103,24.6784621 Z M24.1165756,26.7290068 C30.3938772,20.4780484 38.9082565,16.9700532 47.7836816,16.9780925 C48.4779202,16.9780925 49.1718985,16.9988392 49.866137,17.0403324 C55.7698982,22.4655751 54.0310479,27.4136455 50.0743826,31.8741701 C47.7394294,34.3412032 45.2344959,36.6427821 42.577543,38.7620499 C38.7354127,42.0192702 35.1535894,45.0586509 33.7999934,48.0980316 C32.1965027,51.7079446 33.37309,54.9755382 39.8495264,57.8281993 C43.0877446,59.2597165 44.8474194,60.369661 45.5346297,61.2098993 C45.5447817,61.222088 45.5546734,61.2306459 45.5648253,61.2381666 C45.5434802,61.2446499 45.5218747,61.2516519 45.4929806,61.2617659 C43.9248917,61.8566754 42.2558037,62.1419415 40.5783858,62.1020042 C32.7275288,62.4339502 27.136136,57.4340134 22.7942164,53.5647676 C19.6705332,50.795093 17.0778762,48.4922175 14.3810964,48.4714709 C14.8267419,40.2768129 18.2937699,32.5341721 24.1165756,26.7290068 Z M81.3736878,50.3594139 L81.3841001,50.3594139 C81.3794145,64.8172189 72.0502745,77.6350032 58.2584325,82.1328717 C57.8710957,79.7016265 58.322468,77.2112533 59.5391425,75.0686455 C61.1889679,72.4288967 63.3057838,70.1094239 65.7865089,68.2222589 C75.3970407,60.2348079 75.9384791,55.7742833 76.3549702,52.3407167 C76.6152771,50.1726942 76.8131104,48.5544574 81.1133809,46.1997154 C81.2859644,47.5796253 81.3729069,48.9688713 81.3736878,50.3594139 Z M79.4370042,39.1354892 C79.902433,40.4414893 80.2848239,41.7754973 80.5823547,43.1292147 C74.0330324,46.4486749 73.7414886,48.8137902 73.3458221,52.0398906 C72.9918047,54.9444182 72.5336645,58.7410508 63.8498253,65.9608767 C61.0684458,68.0809225 58.7035573,70.6937007 56.8735996,73.6682483 C55.2781784,76.4778601 54.7252865,79.7568643 55.311758,82.9316168 C37.2493205,87.0451541 19.2597689,75.7921841 15.1307804,57.797598 C14.6585836,55.7395327 14.3831789,53.6415301 14.3082105,51.5315983 C15.9637626,51.5315983 18.1086917,53.4921544 20.7429978,55.8261498 C25.5118207,60.0688349 31.6134152,65.4837043 40.7033331,65.1621316 C42.8451385,65.1989568 44.9715859,64.7964723 46.9506994,63.9795739 C47.7849831,63.6120993 48.4164878,62.899712 48.6791375,62.029391 C48.900919,61.0587083 48.6195272,60.0418643 47.9294535,59.3219563 C46.9506994,58.1290253 44.8057703,56.7182548 41.1198242,55.0792713 C36.715431,53.1394618 35.7575015,51.2515188 36.6217205,49.3220826 C37.6629482,46.8947273 41.0157014,44.1354261 44.5767002,41.0234322 C47.3515721,38.7892799 49.9645331,36.3629619 52.3963204,33.762113 C56.7486523,28.824416 58.9872919,23.4406666 54.5620741,17.5486248 C59.4800529,18.5501681 64.1072689,20.646096 68.0980344,23.6792528 L65.7032106,31.5525974 C65.5264622,32.0920096 65.667028,32.6845851 66.0676403,33.0878477 C66.0676403,33.0878477 69.9514197,36.9259735 70.0763671,36.9985867 C70.7976776,37.4150752 71.7215068,37.170265 72.1398201,36.4516538 C72.1463278,36.4405025 72.1525751,36.4290918 72.1588225,36.4176812 L75.1887951,30.9613185 C76.9773641,33.4773656 78.4069697,36.2283682 79.4370042,39.1354892 Z M93.3998679,27.5484985 L92.0566842,28.2123906 C91.7560297,28.3609883 91.5139442,28.6055391 91.3694739,28.9074025 L90.7030881,30.2559332 L88.1104311,34.9239241 L87.3503349,34.094059 L88.8601151,29.1252421 C89.0360826,28.5430399 88.8429348,27.9128611 88.3707381,27.5277519 L80.1554514,19.8203803 C79.56065,19.2381781 78.604803,19.2467361 78.0204139,19.8393116 C78.0063574,19.8535749 77.9928214,19.8678382 77.9792854,19.8826202 C77.8751627,19.9967266 70.4824459,33.264194 70.4824459,33.264194 L68.8685429,31.6563305 L73.9080851,15.1108962 C74.0887381,14.525582 73.8950697,13.8896979 73.418708,13.5030327 L66.879798,7.37240468 C66.1561447,6.76167588 65.9156211,5.75261185 66.2862982,4.88280955 C66.6184498,4.12918836 67.2249649,3.52883287 67.9834993,3.20233284 L68.0355607,3.20233284 C68.8979576,2.87064616 69.8764513,3.120643 70.4720336,3.82473163 L76.7193999,10.4014121 C77.1116824,10.8210126 77.7093471,10.9820583 78.2604169,10.8163446 L94.9200604,5.80603441 L96.5339634,7.41389793 L83.3103713,14.6544704 C82.5783883,15.052287 82.3087103,15.9661759 82.7082814,16.6951604 C82.7145288,16.7065711 82.7207762,16.7177224 82.7272838,16.729133 C82.7897575,16.8432395 90.7551495,25.2871163 90.7551495,25.2871163 C91.1497748,25.7030861 91.7471792,25.8599825 92.2961666,25.6916755 L97.3044719,24.1875451 L98.0853927,24.9655436 L93.3998679,27.5484985 Z" id="Shape"></path>
            </g>
        </g>
    </g>
</svg>