<?xml version="1.0" encoding="UTF-8"?>
<svg width="36px" height="45px" viewBox="0 0 36 45" version="1.1" xmlns="http://www.w3.org/2000/svg" xmlns:xlink="http://www.w3.org/1999/xlink">
    <!-- Generator: Sketch 49 (51002) - http://www.bohemiancoding.com/sketch -->
    <title>ski</title>
    <desc>Created with Sketch.</desc>
    <defs></defs>
    <g id="Page-1" stroke="none" stroke-width="1" fill="none" fill-rule="evenodd">
        <g id="Hype-Tur---XL" transform="translate(-761.000000, -2907.000000)" fill="#5B4E5C" fill-rule="nonzero">
            <g id="ski" transform="translate(761.000000, 2907.000000)">
                <path d="M35.5472051,40.72664 C35.1545481,40.2518516 34.5262621,40.1726467 33.97649,40.3309683 C33.5053192,40.4892898 32.9555471,40.4892898 32.4842888,40.3309683 L21.6583769,36.6119539 C21.9775035,36.3131958 22.2094605,35.9380521 22.3531986,35.5035269 L24.7092275,28.5393174 C25.3375135,26.4817541 24.2380567,24.2658693 22.1960834,23.5536426 L19.2117685,22.5248609 L19.9185684,20.3089761 L25.8086843,22.2874227 C26.9081411,22.6830944 28.1647132,22.208306 28.7144853,21.1795243 C29.0286283,20.5464144 29.0286283,19.8341877 28.7929992,19.2010777 C28.5573701,18.5679678 28.0076854,18.0931794 27.3793994,17.8557411 L22.9028833,16.3520829 L23.5311693,14.4527531 C24.0809415,12.5534232 23.1385124,10.5749766 21.2536544,9.94186668 L19.7614532,9.46707826 C17.8765952,8.91308503 15.9132232,9.86274996 15.2849372,11.7620798 L13.6619378,16.5320779 L4.08210609,13.3244148 L4.29010671,12.7116567 C4.44722193,12.2368682 4.21159281,11.8411084 3.81893591,11.682875 C3.34776511,11.5245535 2.95502077,11.7619917 2.79799299,12.1576634 L2.5733803,12.8192307 L1.07016272,12.3158969 C0.598991916,12.1576634 0.20624758,12.3950136 0.0492197908,12.7907734 C-0.10789543,13.2655618 0.127733685,13.6613216 0.52039059,13.819555 L2.06032959,14.3302015 L1.77696263,15.1648916 C1.61984741,15.6396801 1.85547652,16.0354399 2.24813343,16.1936733 C2.32664732,16.27279 2.40524865,16.27279 2.48376254,16.27279 C2.79790555,16.27279 3.11204856,16.0353518 3.26907635,15.7187968 L3.57054173,14.8308922 L13.1589418,18.0104504 L12.4577375,20.0714497 C11.3582807,23.6326712 13.2430513,27.4313309 16.7772258,28.618346 L17.8766826,28.934901 C18.1123117,29.0140177 18.2693395,29.1723393 18.3478534,29.3305727 C18.5049686,29.4888942 18.5049686,29.7262444 18.4263673,29.8845659 L17.0912814,33.7623424 C16.9551498,34.1737845 16.9244612,34.5983541 16.9828657,35.0057435 L4.83970397,30.8342309 C4.05439016,30.5967926 3.11196113,31.0716691 2.87633202,31.8630125 L2.40516122,33.3666707 C2.248046,33.7623424 2.32664732,34.1580141 2.48367511,34.5537739 C2.71930423,34.9494456 3.03344724,35.1868838 3.42610414,35.3451173 L31.0705142,44.7625617 C31.4631711,44.9207952 31.9344293,45 32.3270862,45 C32.8768583,45 33.5051443,44.8416785 33.9763151,44.683445 C34.9187442,44.2086566 35.6255441,43.4172251 35.9396871,42.3884435 C36.0969772,41.7554216 35.939862,41.1223117 35.5472051,40.72664 Z M16.7772258,12.2367801 C17.0913688,11.4454367 17.8766826,10.8123268 18.6620838,10.8123268 C18.8191991,10.8123268 18.9762269,10.8123268 19.3688838,10.8123268 L20.8610849,11.2871152 C21.8820278,11.6827869 22.4318,12.7907734 22.117657,13.819555 L21.2537418,16.4311116 C21.2537418,16.6685498 21.2537418,16.9059 21.3322557,17.0642215 C21.4107696,17.2224549 21.5678848,17.3807765 21.8035139,17.4598932 L26.9868299,19.2009015 C27.222459,19.2800182 27.3794868,19.4383398 27.4580007,19.6756899 C27.6151159,19.9131282 27.5365146,20.1504784 27.4580007,20.3879166 C27.3008855,20.7044716 26.8297147,20.862705 26.4370578,20.7044716 L19.8400546,18.4885867 C19.7339122,18.4885867 19.6281195,18.4889392 19.5290591,18.4962517 L19.2122057,18.3901754 C19.0840305,18.1842781 19.0418008,17.9275453 19.1332546,17.6972434 L19.8400546,15.4022418 C19.9970823,14.9274534 19.7615407,14.5316936 19.3688838,14.3734602 C18.897713,14.2151386 18.5049686,14.4525769 18.3479408,14.8482486 L17.6411409,17.1432501 C17.5707582,17.3702041 17.533687,17.599625 17.5266925,17.825786 L15.2150791,17.0517989 L16.7772258,12.2367801 Z M17.4055118,27.0356592 C14.6567386,26.165111 13.2431388,23.1578828 14.1070539,20.4672095 L14.734553,18.5329908 L18.3711977,19.73886 C18.425493,19.7835283 18.4822363,19.8257298 18.5411654,19.8654643 L17.5625396,22.762123 C17.4054244,23.2369114 17.6410535,23.6326712 18.0337104,23.7909046 L21.8034265,25.0571245 C23.0599985,25.4527962 23.6882846,26.7981329 23.2956277,28.0643528 L21.0181127,34.9493575 C20.8609975,35.2659124 20.7039697,35.5033507 20.3898267,35.6615841 C20.0756837,35.8198176 19.7615407,35.8198176 19.4473977,35.7407008 C18.8191116,35.5032626 18.4264547,34.8701526 18.6620838,34.2370427 L19.9971698,30.3592662 C20.1541976,29.7261563 20.1541976,29.0930463 19.8400546,28.5390531 C19.6044254,27.9850599 19.1332546,27.5893882 18.5049686,27.3519499 L17.4055118,27.0356592 Z M33.348204,43.1007582 C32.7984319,43.4173132 32.1701458,43.4173132 31.5418598,43.2590798 L3.8974498,33.8415472 L4.3686206,32.337889 L32.0130306,41.7553335 C32.8769458,42.0718885 33.7407735,41.9927718 34.5261747,41.7553335 C34.290633,42.3094148 33.8979761,42.7842033 33.348204,43.1007582 Z" id="Shape"></path>
                <path d="M22.9787234,9.31034483 C25.5063617,9.31034483 27.5744681,7.21547621 27.5744681,4.65512923 C27.5744681,2.09486861 25.5063617,0 22.9787234,0 C20.4510851,0 18.3829787,2.09486861 18.3829787,4.6552156 C18.3829787,7.21556259 20.4510851,9.31034483 22.9787234,9.31034483 Z M22.9787234,1.55173853 C24.6637872,1.55173853 26.0425532,2.94826003 26.0425532,4.6552156 C26.0425532,6.3620848 24.6638724,7.75869267 22.9787234,7.75869267 C21.2935744,7.75869267 19.9148936,6.36217118 19.9148936,4.6552156 C19.9148936,2.94826003 21.2936597,1.55173853 22.9787234,1.55173853 Z" id="Shape"></path>
            </g>
        </g>
    </g>
</svg>