<?xml version="1.0" encoding="UTF-8"?>
<svg width="46px" height="45px" viewBox="0 0 46 45" version="1.1" xmlns="http://www.w3.org/2000/svg" xmlns:xlink="http://www.w3.org/1999/xlink">
    <!-- Generator: Sketch 49 (51002) - http://www.bohemiancoding.com/sketch -->
    <title>007-sports</title>
    <desc>Created with Sketch.</desc>
    <defs></defs>
    <g id="Page-1" stroke="none" stroke-width="1" fill="none" fill-rule="evenodd">
        <g id="Hype-Tur---XL" transform="translate(-756.000000, -2982.000000)" fill="#5B4E5C" fill-rule="nonzero">
            <g id="007-sports" transform="translate(756.000000, 2982.000000)">
                <path d="M45.9700884,25.3386599 C45.9997961,25.2057408 45.9927046,25.0672914 45.9493889,24.9381864 C45.4236594,17.3802033 39.1381928,11.4991551 31.5241237,11.4410865 C28.9828743,2.96535162 20.0172032,-1.85596749 11.4987759,0.672545682 C2.98025279,3.20105886 -1.86525559,12.121796 0.675897936,20.5975308 C2.01389188,25.0600448 5.23774623,28.7220886 9.5075013,30.6294865 C7.99739468,31.4332939 6.59452308,32.4222727 5.33156489,33.5731571 L3.14431565,35.5678964 C2.20785405,36.4218584 2.14441385,37.8693793 3.00267727,38.8011475 C3.09860421,38.9052706 3.20401843,39.0004307 3.31757829,39.0851976 L5.78312107,40.9250871 C9.33213037,43.5623003 13.6407929,44.9912277 18.0702026,45 L20.2643517,45 C24.6932822,44.9908463 29.0013697,43.5619189 32.5498999,40.9250871 L33.4177464,40.2774643 C40.6314331,39.305458 46.0093792,33.1728744 45.9999877,25.929835 C45.9999877,25.7299797 45.9777549,25.5362268 45.9700884,25.3386599 Z M41.9497817,18.301769 C43.337512,20.1824687 44.1854257,22.403094 44.4030581,24.7261262 L43.7529399,25.0495562 L39.9886939,22.5528902 L41.2114989,18.301769 L41.9497817,18.301769 Z M36.7626354,14.1101467 C38.2122726,14.7561486 39.5314837,15.6595976 40.6556784,16.7761558 L40.6334456,16.7761558 C40.2911369,16.7764419 39.9905147,17.0024233 39.896696,17.3299534 L38.459996,22.3324391 L35.9967532,23.4629185 L32.200308,20.9448939 L32.200308,17.9363846 L36.4736088,14.9614389 C36.7454817,14.7702605 36.8622998,14.4263301 36.7626354,14.1101467 Z M19.4455707,17.7166963 C19.3633476,17.7835373 19.2959783,17.8666832 19.2477753,17.9607945 C19.238863,17.9880648 19.2313881,18.0158119 19.2255424,18.0439404 L17.1847231,16.0133492 L19.6203666,13.5899126 C20.2681849,14.1759388 20.9627688,14.7085685 21.6972184,15.1826528 L21.6956851,15.1826528 C20.8493048,15.9376407 20.0942514,16.7879793 19.4455707,17.7166963 Z M18.4366607,19.4154666 C17.5672809,21.1271093 17.0508471,22.9944599 16.9179293,24.9076742 C16.2086833,22.9103604 15.1049964,21.0743803 13.671938,19.5077662 L16.0991483,17.0896693 L18.4366607,19.4154666 Z M20.2467187,19.3101993 L20.8600378,19.615322 L22.0974091,22.6924838 L19.0139473,25.764306 L18.4220944,25.4698626 C18.4973218,23.2962452 19.1251114,21.1769778 20.2467187,19.3101993 Z M18.8238184,27.3715395 C19.1189782,27.5180937 19.4753741,27.4604064 19.7085312,27.2281318 L23.1845172,23.7703295 L26.1997472,24.9702243 L27.6295474,29.949063 C27.6434429,29.9876801 27.66098,30.0249622 27.6816795,30.0604327 C25.0096207,28.8447097 22.1054589,28.2163478 19.1672771,28.2182548 C18.986348,28.2182548 18.8061855,28.2258829 18.6252564,28.2304597 L18.6237231,28.2266457 C18.5623912,27.8849083 18.5041258,27.5401197 18.4703933,27.1953312 L18.8238184,27.3715395 Z M26.7440679,23.5468272 L23.5900745,22.2912475 L22.1794405,18.7823372 C22.1096755,18.6085126 21.9781952,18.4662492 21.8099158,18.3826265 L21.1199318,18.0378379 C22.4313805,16.3395444 24.1434991,14.989186 26.1046828,14.1063327 C26.0050184,14.4224207 26.1218366,14.7664465 26.3937094,14.9576249 L30.6670102,17.9363846 L30.6670102,20.9448939 L26.7440679,23.5468272 Z M31.4336591,22.2683633 L35.0629749,24.6811206 C35.0691081,24.6971395 35.0675748,24.7139213 35.0752413,24.7299402 C35.0893284,24.7563524 35.1052364,24.7819064 35.1227735,24.8062209 L33.9222014,28.9810614 L28.9451169,28.9810614 L27.7246119,24.7299402 L31.4336591,22.2683633 Z M34.9242114,13.4487934 L34.9242114,13.4526075 L35.1235401,14.0407313 L31.4336591,16.6075756 L27.7437781,14.0369173 L27.9431068,13.4487934 C30.2244622,12.7999311 32.642856,12.7999311 34.9242114,13.4487934 Z M29.9478936,11.5127903 C27.4257146,11.7723352 25.0163289,12.6869403 22.9614224,14.1650688 C22.1579744,13.6867891 21.4027294,13.1327054 20.7059414,12.5105413 L26.9242304,6.32570539 C28.2849364,7.82585992 29.3149291,9.59271071 29.9478936,11.5127903 Z M25.8309891,5.25243651 L19.6211333,11.43117 C17.450367,9.036434 16.1471597,5.98797277 15.9189858,2.77102664 L15.8300546,1.53985679 C19.5166773,1.46805762 23.0926152,2.7955318 25.8309891,5.25243651 Z M14.3013567,1.65122655 L14.3895213,2.87934518 C14.6426113,6.46310593 16.1030774,9.85711855 18.5347918,12.5128297 L16.1006816,14.9347407 L6.37037411,5.25243651 C8.57918535,3.2696161 11.3485127,2.01212942 14.3013567,1.65122655 Z M5.2863326,6.33104504 L15.0166401,16.0133492 L12.5886631,18.4291577 C9.91708347,16.010584 6.50377102,14.5592491 2.90052131,14.3100021 L1.66544997,14.2222793 C2.02864987,11.284139 3.2929497,8.52869085 5.2863326,6.33104504 Z M1.55428588,15.7440785 L2.79165717,15.8318012 C6.02566961,16.0566385 9.0913068,17.3511213 11.5007884,19.5092919 L5.28403266,25.6956534 C2.81542328,22.9703361 1.48183756,19.4123201 1.55428588,15.7440785 Z M6.35964103,26.7849412 L12.5886631,20.5901888 C14.5642214,22.7803973 15.8193215,25.5192544 16.1857796,28.4394687 C14.5500384,28.6779411 12.9495631,29.113313 11.4195236,29.7362399 C9.54966699,29.1030151 7.82834861,28.0990663 6.35964103,26.7849412 Z M34.2035615,37.770119 C34.1715539,37.8048267 34.1363839,37.8364832 34.0985306,37.8648024 L31.6291546,39.7054547 C28.3464599,42.1444335 24.3612274,43.4660913 20.2643517,43.4744822 L18.0702026,43.4744822 C13.9733268,43.4660913 9.98809432,42.1444335 6.70539967,39.7054547 L4.23909024,37.8648024 C3.90032727,37.6120274 3.83161636,37.1339383 4.08566463,36.7968732 C4.11403064,36.7592096 4.1459424,36.7242158 4.18082493,36.6923687 L6.36424092,34.6976294 C7.9250422,33.2822418 9.71305903,32.136983 11.6541182,31.3092425 C11.770553,31.2875979 11.8802796,31.2393503 11.9745774,31.1681233 C18.7628698,28.3784442 26.560743,29.7548334 31.9703133,34.6976294 L34.1567959,36.6923687 C34.468822,36.9770862 34.489809,37.4595614 34.2035615,37.770119 Z M33.0029894,33.5731571 C31.6743869,32.3625831 30.1911129,31.3315546 28.5916917,30.5066746 L34.182862,30.5066746 L35.8694895,32.1848491 L34.4879882,34.9309529 L33.0029894,33.5731571 Z M35.7322593,38.1660157 C36.0421772,37.5027553 35.9963699,36.728888 35.6103622,36.1064379 L37.2739902,32.7950944 L41.6929543,32.7950944 L42.0341131,33.4739923 C40.4721618,35.6492306 38.2702504,37.2886927 35.7322593,38.1660157 Z M42.9770912,31.9430394 L42.8567273,31.6913133 C42.7262054,31.4314823 42.4587407,31.2678602 42.1667433,31.2694812 L37.1175939,31.2694812 L35.3612013,29.5218913 L36.7128033,24.8146118 L39.0319161,23.7504966 L43.274551,26.5644901 C43.5030123,26.7159072 43.795393,26.7342146 44.0411998,26.6125469 L44.4421572,26.4126916 C44.3749796,28.3419248 43.8743579,30.2315875 42.9770912,31.9430394 Z" id="Shape"></path>
                <path d="M26.2272727,35.6666667 L25.4545455,35.6666667 L25.4545455,34.8333333 C25.4545455,34.373125 25.1085568,34 24.6818182,34 C24.2550795,34 23.9090909,34.373125 23.9090909,34.8333333 L23.9090909,35.6666667 L22.3636364,35.6666667 L22.3636364,34.8333333 C22.3636364,34.373125 22.0176477,34 21.5909091,34 C21.1641705,34 20.8181818,34.373125 20.8181818,34.8333333 L20.8181818,35.6666667 L19.2727273,35.6666667 L19.2727273,34.8333333 C19.2727273,34.373125 18.9267386,34 18.5,34 C18.0732614,34 17.7272727,34.373125 17.7272727,34.8333333 L17.7272727,35.6666667 L16.1818182,35.6666667 L16.1818182,34.8333333 C16.1818182,34.373125 15.8358295,34 15.4090909,34 C14.9823523,34 14.6363636,34.373125 14.6363636,34.8333333 L14.6363636,35.6666667 L13.0909091,35.6666667 L13.0909091,34.8333333 C13.0909091,34.373125 12.7449205,34 12.3181818,34 C11.8914432,34 11.5454545,34.373125 11.5454545,34.8333333 L11.5454545,35.6666667 L10.7727273,35.6666667 C10.3459886,35.6666667 10,36.0397917 10,36.5 C10,36.9602083 10.3459886,37.3333333 10.7727273,37.3333333 L11.5454545,37.3333333 L11.5454545,38.1666667 C11.5454545,38.626875 11.8914432,39 12.3181818,39 C12.7449205,39 13.0909091,38.626875 13.0909091,38.1666667 L13.0909091,37.3333333 L14.6363636,37.3333333 L14.6363636,38.1666667 C14.6363636,38.626875 14.9823523,39 15.4090909,39 C15.8358295,39 16.1818182,38.626875 16.1818182,38.1666667 L16.1818182,37.3333333 L17.7272727,37.3333333 L17.7272727,38.1666667 C17.7272727,38.626875 18.0732614,39 18.5,39 C18.9267386,39 19.2727273,38.626875 19.2727273,38.1666667 L19.2727273,37.3333333 L20.8181818,37.3333333 L20.8181818,38.1666667 C20.8181818,38.626875 21.1641705,39 21.5909091,39 C22.0176477,39 22.3636364,38.626875 22.3636364,38.1666667 L22.3636364,37.3333333 L23.9090909,37.3333333 L23.9090909,38.1666667 C23.9090909,38.626875 24.2550795,39 24.6818182,39 C25.1085568,39 25.4545455,38.626875 25.4545455,38.1666667 L25.4545455,37.3333333 L26.2272727,37.3333333 C26.6540114,37.3333333 27,36.9602083 27,36.5 C27,36.0397917 26.6540114,35.6666667 26.2272727,35.6666667 Z" id="Shape"></path>
            </g>
        </g>
    </g>
</svg>