<?xml version="1.0" encoding="UTF-8"?>
<svg width="45px" height="45px" viewBox="0 0 45 45" version="1.1" xmlns="http://www.w3.org/2000/svg" xmlns:xlink="http://www.w3.org/1999/xlink">
    <!-- Generator: Sketch 49 (51002) - http://www.bohemiancoding.com/sketch -->
    <title>001-guide</title>
    <desc>Created with Sketch.</desc>
    <defs></defs>
    <g id="Page-1" stroke="none" stroke-width="1" fill="none" fill-rule="evenodd">
        <g id="Hype-Tur---XL" transform="translate(-756.000000, -3055.000000)" fill="#5B4E5C" fill-rule="nonzero">
            <g id="001-guide" transform="translate(756.000000, 3055.000000)">
                <path d="M29.25,15 C28.0073438,15 27,16.0073438 27,17.25 L27,18 L28.5,18 L28.5,17.25 C28.5,16.8358125 28.8358125,16.5 29.25,16.5 C29.6641875,16.5 30,16.8358125 30,17.25 L30,18 L31.5,18 L31.5,17.25 C31.5,16.0073438 30.4926562,15 29.25,15 Z" id="Shape"></path>
                <path d="M36.75,15 C35.5073438,15 34.5,16.0073438 34.5,17.25 L34.5,18 L36,18 L36,17.25 C36,16.8358125 36.3358125,16.5 36.75,16.5 C37.1641875,16.5 37.5,16.8358125 37.5,17.25 L37.5,18 L39,18 L39,17.25 C39,16.0073438 37.9926562,15 36.75,15 Z" id="Shape"></path>
                <path d="M30,19.5 L30,21 C30,22.6568438 31.3431562,24 33,24 C34.6568438,24 36,22.6568438 36,21 L36,19.5 L30,19.5 Z M33,22.5 C32.1715313,22.5 31.5,21.8284687 31.5,21 L34.5,21 C34.5,21.8284687 33.8284687,22.5 33,22.5 Z" id="Shape"></path>
                <path d="M44.25,26.25 L36.75,26.25 L36.75,26.17125 C39.4506563,24.927 41.364,22.4310938 41.86425,19.5 L42.75,19.5 C43.9926562,19.5 45,18.4926563 45,17.25 C45,16.0073438 43.9926562,15 42.75,15 L42,15 L42,12.75 C41.99475,9.35503125 39.9119063,6.30928125 36.75,5.073 L36.75,3.75 C36.75,1.67896875 35.0710312,-8.29977092e-16 33,-8.29977092e-16 C30.9289688,-8.29977092e-16 29.25,1.67896875 29.25,3.75 L29.25,5.073 C26.0880938,6.30928125 24.00525,9.35503125 24,12.75 L24,15 L23.25,15 C22.0073438,15 21,16.0073438 21,17.25 C21,18.4926563 22.0073438,19.5 23.25,19.5 L24.13575,19.5 C24.636,22.4310938 26.5493437,24.927 29.25,26.17125 L29.25,26.25 L16.23675,26.25 L13.5,20.091 L13.5,15.75 C13.5,15.3358125 13.1641875,15 12.75,15 L10.5,15 L10.5,-8.29977092e-16 L7.8105,-8.29977092e-16 C6.93215625,-0.0024375 6.08934375,0.34640625 5.46975,0.969 C5.13103125,1.30978125 4.6700625,1.5009375 4.1895,1.5 L0,1.5 L0,10.5 L4.1895,10.5 C5.06784375,10.5024375 5.91065625,10.1535938 6.53025,9.531 C6.8690625,9.19021875 7.3299375,8.9990625 7.8105,9 L9,9 L9,15 L8.25,15 C7.8358125,15 7.5,15.3358125 7.5,15.75 L7.5,20.25 C7.5,20.3455313 7.518,20.4402188 7.55325,20.529 L11.29875,29.89275 C11.86425,31.3199063 13.2459375,32.25525 14.781,32.25 L21,32.25 L21,44.25 C21,44.6641875 21.3358125,45 21.75,45 L44.25,45 C44.6641875,45 45,44.6641875 45,44.25 L45,27 C45,26.5858125 44.6641875,26.25 44.25,26.25 Z M42,16.5 L42.75,16.5 C43.1641875,16.5 43.5,16.8358125 43.5,17.25 C43.5,17.6641875 43.1641875,18 42.75,18 L42,18 L42,16.5 Z M24,18 L23.25,18 C22.8358125,18 22.5,17.6641875 22.5,17.25 C22.5,16.8358125 22.8358125,16.5 23.25,16.5 L24,16.5 L24,18 Z M30.75,3.75 C30.75,2.50734375 31.7573438,1.5 33,1.5 C34.2426562,1.5 35.25,2.50734375 35.25,3.75 L35.25,4.5 L30.75,4.5 L30.75,3.75 Z M32.25,6 L33.75,6 C37.1860313,6.00421875 40.072125,8.58571875 40.458,12 L39.75,12 C38.5073438,12 37.5,10.9926562 37.5,9.75 C37.5,9.3358125 37.1641875,9 36.75,9 L35.25,9 C34.8358125,9 34.5,9.3358125 34.5,9.75 C34.5,10.9926562 33.4926563,12 32.25,12 L25.542,12 C25.927875,8.58571875 28.8139688,6.00421875 32.25,6 Z M25.5,18 L25.5,13.5 L32.25,13.5 C34.0313437,13.49775 35.5662188,12.2447812 35.925,10.5 L36.075,10.5 C36.4337813,12.2447812 37.9686563,13.49775 39.75,13.5 L40.5,13.5 L40.5,18 C40.5,22.1421562 37.1421562,25.5 33,25.5 C28.8578438,25.5 25.5,22.1421562 25.5,18 Z M35.25,27.75 C35.25,28.9926563 34.2426562,30 33,30 C31.7573438,30 30.75,28.9926563 30.75,27.75 L35.25,27.75 Z M29.25,27.75 C29.25,29.8210313 30.9289687,31.5 33,31.5 C35.0710313,31.5 36.75,29.8210313 36.75,27.75 L38.48625,27.75 L34.8045,34.5 L31.1955,34.5 L27.51375,27.75 L29.25,27.75 Z M34.5,36 L34.5,40.5 L31.5,40.5 L31.5,36 L34.5,36 Z M7.8105,7.5 C6.93215625,7.4975625 6.08934375,7.84640625 5.46975,8.469 C5.1309375,8.80978125 4.6700625,9.0009375 4.1895,9 L1.5,9.00000343 L1.5,3 L4.1895,3 C5.06784375,3.0024375 5.91065625,2.65359375 6.53025,2.031 C6.8690625,1.69021875 7.3299375,1.4990625 7.8105,1.5 L9,1.49999657 L9,7.5 L7.8105,7.5 Z M9,16.5 L12,16.5 L12,19.5 L9,19.5 L9,16.5 Z M18,30.7500135 L14.781,30.75 C13.86,30.7531875 13.0311562,30.1919063 12.69225,29.3355 L9.35775,21 L12.2625,21 L15.0645,27.3045 C15.184875,27.5754375 15.4535625,27.75 15.75,27.75 L18,27.75 L18,30.7500135 Z M43.5,43.5 L22.5,43.5 L22.5,31.5 C22.5,31.0858125 22.1641875,30.75 21.75,30.75 L19.5,30.75 L19.5,27.75 L25.8045,27.75 L30,35.44125 L30,41.25 C30,41.6641875 30.3358125,42 30.75,42 L35.25,42 C35.6641875,42 36,41.6641875 36,41.25 L36,35.44125 L40.1955,27.75 L43.5,27.75 L43.5,43.5 Z" id="Shape"></path>
            </g>
        </g>
    </g>
</svg>