<?xml version="1.0" encoding="UTF-8"?>
<svg width="45px" height="45px" viewBox="0 0 45 45" version="1.1" xmlns="http://www.w3.org/2000/svg" xmlns:xlink="http://www.w3.org/1999/xlink">
    <!-- Generator: Sketch 49 (51002) - http://www.bohemiancoding.com/sketch -->
    <title>honeymoon</title>
    <desc>Created with Sketch.</desc>
    <defs></defs>
    <g id="Page-1" stroke="none" stroke-width="1" fill="none" fill-rule="evenodd">
        <g id="Hype-Tur---XL" transform="translate(-469.000000, -2911.000000)" fill="#5B4E5C" fill-rule="nonzero">
            <g id="honeymoon" transform="translate(469.000000, 2911.000000)">
                <path d="M29.0355,20.1419063 C27.6077812,20.1419063 26.24325,20.723625 25.2490312,21.7137188 C24.2548125,20.723625 22.8902812,20.1419063 21.4625625,20.1419063 C18.8559375,20.1419063 16.6784062,22.0138125 16.2035625,24.4839375 C15.696375,24.253125 15.1396875,24.1275938 14.5694062,24.1275938 C12.3857812,24.1275938 10.6093125,25.9040625 10.6093125,28.0876875 C10.6093125,29.1899063 11.0950312,30.2267813 11.9417812,30.932625 L15.7964062,34.1446875 C16.1785312,34.4630625 16.6628437,34.6385625 17.1600937,34.6385625 C17.6573437,34.6385625 18.1415625,34.46325 18.5237812,34.1447813 L21.1049062,31.993875 L23.5330312,34.0172813 C24.013875,34.417875 24.62325,34.6385625 25.2490312,34.6385625 C25.8748125,34.6385625 26.4842812,34.417875 26.965125,34.0172813 L32.5989375,29.3224688 C33.737625,28.3735313 34.3906875,26.9791875 34.3906875,25.497 C34.3905938,22.5441563 31.9883437,20.1419063 29.0355,20.1419063 Z M21.178125,29.4921563 L20.518875,30.0415313 C20.509875,30.04875 20.5010625,30.0560625 20.4923437,30.0636563 L17.3235938,32.7042188 C17.2319062,32.7805313 17.0885625,32.7805313 16.996875,32.7042188 L13.14225,29.4921563 C12.7242187,29.1436875 12.4844062,28.6317188 12.4844062,28.0876875 C12.4844062,26.9379375 13.41975,26.0025938 14.5695,26.0025938 C15.3073125,26.0025938 15.9756562,26.3807813 16.3572187,27.01425 C16.5268125,27.2957813 16.8315937,27.468 17.1602812,27.468 C17.484,27.468 17.784375,27.301125 17.9554687,27.0270938 C17.9672812,27.0092813 17.978625,26.9909063 17.9892187,26.9723438 C18.374625,26.3641875 19.0296562,26.0025938 19.7509687,26.0025938 C20.900625,26.0025938 21.8359687,26.9380313 21.8359687,28.0876875 C21.8359687,28.6319063 21.5961562,29.1437813 21.178125,29.4921563 Z M31.3984687,27.882 L25.76475,32.5767188 C25.6201875,32.6971875 25.437,32.7634688 25.2490312,32.7634688 C25.0610625,32.7634688 24.877875,32.6970938 24.7333125,32.5767188 L22.563,30.7681875 C23.2954687,30.070875 23.7109687,29.1072188 23.7109687,28.0876875 C23.7109687,25.9040625 21.9345,24.1275938 19.750875,24.1275938 C19.187625,24.1275938 18.6375937,24.250125 18.1354687,24.4755 C18.573,23.0535 19.8990937,22.0168125 21.4626562,22.0168125 C22.6940625,22.0168125 23.8094062,22.64775 24.4460625,23.7046875 C24.61575,23.9862188 24.9204375,24.1584375 25.249125,24.1584375 C25.5778125,24.1584375 25.8825,23.9862188 26.0521875,23.7046875 C26.6888437,22.6478438 27.8041875,22.0168125 29.0356875,22.0168125 C30.9545625,22.0168125 32.5157812,23.5779375 32.5157812,25.4969063 C32.5155938,26.421 32.1084375,27.2904375 31.3984687,27.882 Z" id="Shape"></path>
                <path d="M40.3125,11.25 L36.5625,11.25 L36.5625,2.8125 C36.5625,1.2616875 35.3008125,0 33.75,0 L11.25,0 C9.6991875,0 8.4375,1.2616875 8.4375,2.8125 L8.4375,11.25 L4.6875,11.25 C2.1028125,11.25 0,13.3528125 0,15.9375 L0,40.3125 C0,42.8971875 2.1028125,45 4.6875,45 L40.3125,45 C42.8971875,45 45,42.8971875 45,40.3125 L45,15.9375 C45,13.3528125 42.8971875,11.25 40.3125,11.25 Z M10.3125,2.8125 C10.3125,2.2955625 10.7330625,1.875 11.25,1.875 L33.75,1.875 C34.2669375,1.875 34.6875,2.2955625 34.6875,2.8125 L34.6875,11.25 L10.3125,11.25 L10.3125,2.8125 Z M1.875,15.9375 C1.875,14.3866875 3.1366875,13.125 4.6875,13.125 L6.5625,13.125 L6.5625,15 C6.5625,16.5508125 5.3008125,17.8125 3.75,17.8125 L1.875,17.8125 L1.875,15.9375 Z M6.5625,43.125 L4.6875,43.125 C3.1366875,43.125 1.875,41.8633125 1.875,40.3125 L1.875,38.4375 L3.75,38.4375 C5.3008125,38.4375 6.5625,39.6991875 6.5625,41.25 L6.5625,43.125 Z M43.125,40.3125 C43.125,41.8633125 41.8633125,43.125 40.3125,43.125 L38.4375,43.125 L38.4375,41.25 C38.4375,39.6991875 39.6991875,38.4375 41.25,38.4375 L43.125,38.4375 L43.125,40.3125 Z M43.125,36.5625 L41.25,36.5625 C38.6653125,36.5625 36.5625,38.6653125 36.5625,41.25 L36.5625,43.125 L8.4375,43.125 L8.4375,41.25 C8.4375,38.6653125 6.3346875,36.5625 3.75,36.5625 L1.875,36.5625 L1.875,19.6875 L3.75,19.6875 C6.3346875,19.6875 8.4375,17.5846875 8.4375,15 L8.4375,13.125 L36.5625,13.125 L36.5625,15 C36.5625,17.5846875 38.6653125,19.6875 41.25,19.6875 L43.125,19.6875 L43.125,36.5625 Z M43.125,17.8125 L41.25,17.8125 C39.6991875,17.8125 38.4375,16.5508125 38.4375,15 L38.4375,13.125 L40.3125,13.125 C41.8633125,13.125 43.125,14.3866875 43.125,15.9375 L43.125,17.8125 Z" id="Shape"></path>
            </g>
        </g>
    </g>
</svg>