<?xml version="1.0" encoding="UTF-8"?>
<svg width="45px" height="45px" viewBox="0 0 45 45" version="1.1" xmlns="http://www.w3.org/2000/svg" xmlns:xlink="http://www.w3.org/1999/xlink">
    <!-- Generator: Sketch 49 (51002) - http://www.bohemiancoding.com/sketch -->
    <title>003-wine</title>
    <desc>Created with Sketch.</desc>
    <defs></defs>
    <g id="Page-1" stroke="none" stroke-width="1" fill="none" fill-rule="evenodd">
        <g id="Hype-Tur---XL" transform="translate(-469.000000, -3055.000000)" fill="#5B4E5C" fill-rule="nonzero">
            <g id="003-wine" transform="translate(469.000000, 3055.000000)">
                <path d="M44.5746961,18.0476913 C44.4924301,17.6992039 44.1844397,17.4525294 43.8294563,17.450935 L25.9713118,17.3780488 C25.9701849,17.3780488 25.969396,17.3780488 25.9682691,17.3780488 C25.6136238,17.3780488 25.3049572,17.6225594 25.2206628,17.9710469 C24.926421,19.1889307 24.7773279,20.4590877 24.7773279,21.7451886 C24.7773279,28.8182309 29.313227,34.5731707 34.8884949,34.5731707 C40.4637629,34.5731707 44.9996619,28.8182309 45,21.7449608 C44.9998873,20.4871034 44.8568797,19.2433677 44.5746961,18.0476913 Z M34.8883822,33.0183018 C30.1613556,33.0183018 26.3158147,27.9610201 26.3158147,21.7451886 C26.3158147,20.7916313 26.4061946,19.8493486 26.5850387,18.9353093 L43.2042347,19.0037541 C43.3748522,19.8964969 43.460837,20.8160027 43.460837,21.7453025 C43.4609497,27.9610201 39.6155216,33.0183018 34.8883822,33.0183018 Z" id="Shape"></path>
                <path d="M44.5745858,18.0520222 C44.4923202,17.7012809 44.1843316,17.4530111 43.8293501,17.4514064 L25.9713051,17.3780488 C25.9701782,17.3780488 25.9693894,17.3780488 25.9682624,17.3780488 C25.6136191,17.3780488 25.3049543,17.6249431 25.2206603,17.9748821 C24.9264201,19.2014449 24.7773279,20.4798167 24.7773279,21.773433 C24.7773279,22.41153 24.8228557,23.0838987 24.9159397,23.829052 C24.9651864,24.2194522 25.291882,24.5121951 25.6793188,24.5121951 L44.0978964,24.5121951 C44.4852206,24.5121951 44.8120289,24.2195669 44.8612755,23.8289374 C44.9545849,23.0837841 45,22.4114153 45,21.7733184 C44.9998873,20.5072112 44.8567678,19.2554316 44.5745858,18.0520222 Z M43.4077674,22.9471555 L26.3693351,22.9471555 C26.3337243,22.5338309 26.3160316,22.1462962 26.3160316,21.773433 C26.3160316,20.8145109 26.406411,19.8653317 26.585254,18.9453809 L43.2043574,19.0142683 C43.3749739,19.9127849 43.4609583,20.8382376 43.4609583,21.7735476 C43.461071,22.1462962 43.443491,22.5338309 43.4077674,22.9471555 Z" id="Shape"></path>
                <path d="M34.7975709,32.9268293 C34.395144,32.9268293 34.0688259,33.2704193 34.0688259,33.695152 L34.0688259,43.6828968 C34.0688259,44.1075169 34.395144,44.4512195 34.7975709,44.4512195 C35.1999977,44.4512195 35.5263158,44.1076295 35.5263158,43.6828968 L35.5263158,33.695152 C35.5263158,33.2704193 35.1999977,32.9268293 34.7975709,32.9268293 Z" id="Shape"></path>
                <path d="M37.858266,42.9878049 L31.7368757,42.9878049 C31.3143089,42.9878049 30.9716599,43.3150207 30.9716599,43.7195122 C30.9716599,44.1240037 31.3143089,44.4512195 31.7368757,44.4512195 L37.858266,44.4512195 C38.2808328,44.4512195 38.6234818,44.1240037 38.6234818,43.7195122 C38.6234818,43.3150207 38.2808328,42.9878049 37.858266,42.9878049 Z" id="Shape"></path>
                <path d="M23.0427644,7.61883142 L18.8117555,5.73739888 C18.6241298,5.65350468 18.4117661,5.6488502 18.2216553,5.72309486 C18.0307539,5.79733953 17.877129,5.94401248 17.7942168,6.13246225 L15.0604852,12.3415416 C12.5064722,12.3618623 10.1639192,13.8854674 9.11271859,16.2732168 L0.20993285,37.7534252 C-0.364014092,39.138304 0.279515869,40.7594261 1.64519556,41.3672334 L9.27481539,44.7601239 C9.63413939,44.9197386 10.0135702,45 10.3939046,45 C10.7406901,45 11.0879275,44.9333614 11.4204801,44.8001978 C12.1183435,44.5210424 12.6615655,43.9829389 12.9507417,43.2865829 L21.8132009,21.9017346 C22.8580758,19.5288568 22.4046565,16.7635267 20.7020188,14.8503075 L23.4357504,8.64054704 C23.6083524,8.24934348 23.4321357,7.79150136 23.0427644,7.61883142 Z M19.0812767,14.7012505 C18.9490012,15.0009538 19.0196008,15.352878 19.2570416,15.5783366 C20.7984862,17.0410928 21.2591348,19.330644 20.3960117,21.2900675 L11.5272267,42.6900145 C11.3992437,42.9987997 11.1586401,43.2364053 10.8493571,43.3606005 C10.5397353,43.4845687 10.2019865,43.4770761 9.89936817,43.3431178 L2.26974834,39.9502273 C1.66496347,39.6807215 1.37962791,38.9624554 1.63412554,38.3495395 L10.5299078,16.8844297 C11.334179,15.0573752 13.1434505,13.8904624 15.1123336,13.8904624 C15.239526,13.8904624 15.367622,13.8956845 15.4961698,13.9057882 C15.8229615,13.9351909 16.127952,13.7476493 16.2605664,13.4463567 L18.8924085,7.46829865 L21.7130059,8.72239781 L19.0812767,14.7012505 Z" id="Shape"></path>
                <path d="M25.8189498,2.3896294 C25.7459321,2.19731052 25.6006807,2.04137937 25.4154488,1.95845184 L21.2208534,0.0678865232 C20.8330311,-0.108462818 20.3832782,0.070966363 20.2122691,0.464843642 L17.7372842,6.16220491 C17.6553073,6.35087361 17.6504917,6.56532171 17.7235093,6.75775466 C17.796527,6.95007354 17.9417784,7.10600469 18.1270103,7.18893222 L22.3217177,9.07938347 C22.422397,9.12512479 22.5273319,9.14634146 22.6308109,9.14634146 C22.9242254,9.14634146 23.2038651,8.97387044 23.3303021,8.68242635 L25.805287,2.98506508 C25.8872638,2.79651044 25.8919674,2.58194828 25.8189498,2.3896294 Z M22.2414207,7.34041471 L19.4450237,6.08030399 L21.3010384,1.80731155 L24.0974354,3.06742227 L22.2414207,7.34041471 Z" id="Shape"></path>
                <path d="M16.8518256,22.8883336 L11.2509231,20.3716712 C11.0599425,20.285098 10.8424959,20.2828197 10.6483753,20.3640391 C10.4547032,20.4452585 10.3027485,20.6031408 10.2271637,20.801462 L6.06405496,31.7287182 C5.91624963,32.1161337 6.09433375,32.5528731 6.46810854,32.7205518 L12.0685625,35.2380116 C12.1671367,35.282893 12.2725518,35.304878 12.3784154,35.304878 C12.4777747,35.304878 12.5772461,35.2852851 12.6709982,35.2455298 C12.8646702,35.1643104 13.0166249,35.0064281 13.0922097,34.8081069 L17.255767,23.8801672 C17.4035724,23.4927518 17.2256004,23.0561263 16.8518256,22.8883336 Z M11.9542881,33.4862697 L7.75551765,31.5990861 L11.3655339,22.1238688 L15.5645286,24.0102549 L11.9542881,33.4862697 Z" id="Shape"></path>
            </g>
        </g>
    </g>
</svg>