<?xml version="1.0" encoding="UTF-8"?>
<svg width="81px" height="81px" viewBox="0 0 81 81" version="1.1" xmlns="http://www.w3.org/2000/svg" xmlns:xlink="http://www.w3.org/1999/xlink">
    <!-- Generator: Sketch 49 (51002) - http://www.bohemiancoding.com/sketch -->
    <title>map</title>
    <desc>Created with Sketch.</desc>
    <defs></defs>
    <g id="Page-1" stroke="none" stroke-width="1" fill="none" fill-rule="evenodd">
        <g id="Hype-Tur---XL" transform="translate(-276.000000, -2946.000000)" fill="#5B4E5C" fill-rule="nonzero">
            <g id="map" transform="translate(276.000000, 2946.000000)">
                <path d="M80.4613184,0.27242062 C80.1224473,0.0172438139 79.68375,-0.0637546516 79.2773262,0.0523642423 L60.7363945,5.34953733 L40.8469395,0.0455616368 C40.6173867,-0.0151872123 40.3785,-0.0151872123 40.1516367,0.0455616368 L21.251584,5.08091351 L21.9468867,7.69042462 L40.5,2.74809442 L60.4016367,8.05475951 C60.6392578,8.11693216 60.8835234,8.11408456 61.1198789,8.04795691 L78.2999473,3.14074714 L78.2999473,73.231472 L60.7378184,78.2492637 L40.8482051,72.945288 C40.6186523,72.8845391 40.3797656,72.8845391 40.1516367,72.945288 L20.2620234,78.2492637 L2.69989453,73.231472 L2.69989453,3.13963974 L9.08006836,4.95799201 L9.81856055,2.36066231 L1.71856055,0.0522060422 C1.31356055,-0.0624890505 0.874705078,0.018509415 0.535833984,0.273686221 C0.198386719,0.528863028 0,0.928476551 0,1.35102909 L0,74.249648 C0,74.8517577 0.399621094,75.3822028 0.978802734,75.5483129 L19.8788555,80.9481579 C20.1150527,81.0157093 20.3634316,81.0169749 20.5983633,80.9535367 L40.5,75.6467134 L60.4016367,80.9535367 C60.516334,80.9832783 60.6324551,80.9994147 60.75,80.9994147 C60.8756133,80.9994147 60.9998027,80.9818545 61.1198789,80.9481579 L80.0199316,75.5483129 C80.6003789,75.3822028 81,74.8517577 81,74.249648 L81,1.35102909 C81,0.92705275 80.8014551,0.528863028 80.4613184,0.27242062 Z" id="Shape"></path>
                <path d="M38.7052415,26.4205889 L33.3260712,19.6023054 C33.0866853,19.2996399 32.7316251,19.1141095 32.3497738,19.0923764 C31.9691833,19.0733599 31.5953693,19.2165427 31.3250949,19.4906036 L27.5689895,23.299331 L25.4361066,21.136567 L29.192212,17.3278397 C29.5767424,16.9379221 29.6924167,16.3514478 29.4840769,15.8415188 C29.2755794,15.3328681 28.7848304,15.0001598 28.2414449,15.0001598 L18.8278574,15.0001598 L18.8278574,17.7275052 L24.9951574,17.7275052 L22.5839628,20.1724799 C22.0580702,20.7055803 22.0580702,21.5675537 22.5839628,22.1006541 L26.6183799,26.1915923 C27.1442725,26.7248524 27.9941792,26.7248524 28.5199142,26.1915923 L32.1642852,22.4961647 L35.172605,26.3103254 L33.3988798,26.6102742 C33.1057542,26.6607717 32.8353222,26.8079496 32.6323406,27.0302346 L24.9628506,35.4548505 L17.4831042,35.4548505 C16.7408345,35.4548505 16.1383511,36.0657746 16.1383511,36.8184433 L16.1383511,40.3448 L9.41426996,33.5265165 L9.41426996,23.1818763 C9.41426996,22.8205634 9.27306536,22.4728336 9.02028391,22.2177892 L4.59188073,17.7273454 L12.1039339,17.7273454 L12.1039339,15 L1.3451205,15 C0.801892533,15 0.310985917,15.3327083 0.1024885,15.841359 C-0.106008917,16.351288 0.00966538692,16.9377623 0.394353365,17.3276799 L6.72429081,23.7462979 L6.72429081,34.0909381 C6.72429081,34.4522511 6.86691376,34.7999808 7.11827686,35.0550252 L16.5318643,44.6004943 C16.7887432,44.860972 17.1329294,45 17.4826315,45 C17.6561429,45 17.8309151,44.9672405 17.99765,44.8962883 C18.4992731,44.6863081 18.8273846,44.1872456 18.8273846,43.6362474 L18.8273846,38.1820361 L25.5514657,38.1820361 C25.926698,38.1820361 26.2844374,38.0225534 26.5384796,37.7428995 L34.2952769,29.2228816 L37.8751917,28.6173907 C38.3459263,28.5382886 38.7399123,28.2110136 38.9107447,27.759732 C39.0817346,27.3068523 39.0037254,26.7982017 38.7052415,26.4205889 Z" id="Shape"></path>
                <path d="M36.6250504,45.4090619 L32.3817685,45.4090619 L29.3471468,42.3995057 C29.0899782,42.1431828 28.7393524,42 28.3750302,42 L17.3749496,42 C16.6160122,42 16,42.6094859 16,43.3635928 L16,52.9090619 C16,53.3373319 16.2035112,53.7422709 16.5499476,54.000032 L21.4999597,57.6818763 L21.4999597,65.1818763 C21.4999597,65.5964034 21.6897746,65.9877591 22.015586,66.2467986 L28.8906565,71.7013296 C29.1394461,71.899005 29.4433434,72 29.7499799,72 C29.9534911,72 30.1555521,71.956374 30.3453671,71.8649671 C30.8224825,71.6372488 31.1249295,71.1613577 31.1249295,70.6362474 L31.1249295,64.472514 L37.4843737,59.4283553 C37.8101851,59.1693158 38,58.7779601 38,58.3632732 L38,46.772335 C38,46.0187075 37.3839878,45.4090619 36.6250504,45.4090619 Z M35.2499396,57.7092025 L28.8904953,62.7533612 C28.564684,63.0124007 28.3748691,63.4037564 28.3748691,63.8184433 L28.3748691,67.7989581 L24.249859,64.5276458 L24.249859,57.0003196 C24.249859,56.5707711 24.0463478,56.1658321 23.6999114,55.9093495 L18.7498993,52.2275052 L18.7498993,44.7275052 L27.8057466,44.7275052 L30.8403683,47.7370613 C31.0975369,47.9933842 31.4481627,48.136567 31.8124849,48.136567 L35.2499396,48.136567 L35.2499396,57.7092025 Z" id="Shape"></path>
                <path d="M72.8410022,38.7877422 C72.6064464,38.3502954 72.1494971,38.0769109 71.6522705,38.0769109 L64.3982585,38.0769109 L60.7281322,30.7444325 C60.4989467,30.2880555 60.0326783,30 59.521868,30 L48.7390949,30 C48.3549605,30 47.986937,30.16422 47.7323216,30.4510134 L42.3410141,36.5086967 C42.1213056,36.7563676 42,37.0740804 42,37.4039402 L42,43.4616234 C42,44.2060559 42.6024213,44.8077226 43.3477874,44.8077226 L51.4348277,44.8077226 L51.4348277,63.6539008 C51.4348277,64.3983332 52.037249,65 52.7826151,65 L60.8696554,65 C61.3198129,65 61.7416974,64.7752032 61.9911004,64.3995953 L63.3388878,62.3803675 L61.0959977,60.8875588 L60.1484556,62.3078015 L54.1304025,62.3078015 L54.1304025,43.4616234 C54.1304025,42.7171909 53.5279812,42.1155242 52.7826151,42.1155242 L44.6955748,42.1155242 L44.6955748,37.9155305 L49.3442014,32.692514 L58.6888396,32.692514 L62.358966,40.0249925 C62.5881514,40.4813695 63.0544199,40.7694249 63.5652302,40.7694249 L69.1345474,40.7694249 L65.1395179,46.7531224 L67.38225,48.2460889 L72.7735575,40.1691779 C73.0485485,39.7569715 73.075558,39.2253467 72.8410022,38.7877422 Z" id="Shape"></path>
                <path d="M59.4805349,5.18295516 L47.3311854,13.7754427 L46.0342478,11.8102524 L47.9171849,9.90801482 C48.230153,9.59183866 48.3653478,9.13766902 48.2792583,8.69825637 L46.9532616,2 L44.3528598,2.52654163 L45.5383782,8.52148658 L43.3887811,10.6943735 C42.9418613,11.1458743 42.8716222,11.8545234 43.2229732,12.3849897 L45.875122,16.4039122 C46.0726307,16.7039184 46.381714,16.9103592 46.733065,16.9772366 C46.8152697,16.9919936 46.8962311,17 46.9784358,17 C47.2489808,17 47.5140869,16.9169527 47.7395669,16.7561958 L61,7.37876251 L59.4805349,5.18295516 Z" id="Shape"></path>
                <path d="M56.3332812,19.6665625 C56.7292187,19.6665625 57.1039062,19.490625 57.3585937,19.1865625 L63.6253125,11.6665625 L79,11.6665625 L79,9 L63,9 C62.6040625,9 62.229375,9.1759375 61.9746875,9.48 L55.7079688,17 L52.3332812,17 C51.5959375,17 51,17.5973438 51,18.3332813 L51,25 C51,25.7359375 51.5959375,26.3332812 52.3332812,26.3332812 L64.7639063,26.3332812 L67.0945313,32.1626562 C67.2985937,32.6679688 67.7878125,33 68.333125,33 L79,33 L78.9998437,30.3332812 L69.2357813,30.3332812 L66.9051563,24.5039062 C66.7010938,23.9985937 66.211875,23.6665625 65.6665625,23.6665625 L53.6665625,23.6665625 L53.6665625,19.6665625 L56.3332812,19.6665625 Z" id="Shape"></path>
                <path d="M15.5014608,0 C13.8151468,0 12.1837259,0.500530786 10.7837967,1.44499131 C8.89531961,2.71938677 7.61066582,4.66094521 7.16618909,6.91087628 C6.72312391,9.16080735 7.1729331,11.4513263 8.43233609,13.3589558 L14.3879164,22.3965726 C14.6355624,22.7740715 15.0544746,23 15.5014608,23 C15.9484469,23 16.3673591,22.7740715 16.6150051,22.3965726 L22.5705854,13.3603827 C23.5061195,11.9439297 24,10.2945722 24,8.5913089 C24,3.85457854 20.18713,0 15.5014608,0 Z M20.3436535,11.8599002 L15.5014608,19.2077302 L10.6594248,11.8584733 C9.79619268,10.5501489 9.48832119,8.98212562 9.79211491,7.43978686 C10.0959086,5.89887501 10.9765497,4.56882979 12.269359,3.69492238 C13.2288892,3.04821187 14.3465114,2.70591033 15.5014608,2.70591033 C18.7108211,2.70591033 21.3232589,5.34681667 21.3232589,8.59115036 C21.3232589,9.75868558 20.9846473,10.8884868 20.3436535,11.8599002 Z" id="Shape"></path>
                <circle id="Oval" cx="15.5" cy="7.5" r="2.5"></circle>
                <path d="M66.5000492,46 C64.8151468,46 63.1835691,46.4992659 61.7837967,47.4450013 C59.8953196,48.7181371 58.610509,50.6595504 58.1661891,52.9109239 C57.7231239,55.1608705 58.1729331,57.4526736 59.4323361,59.3603163 L65.3866617,68.3979954 C65.6355624,68.7740699 66.0518084,69 66.5002061,69 C66.9471922,69 67.3648497,68.7740699 67.6150051,68.3979954 L73.5705854,59.3603163 C74.5061195,57.9438535 75,56.2944846 75,54.5912096 C75,49.8544466 71.1869732,46 66.5000492,46 Z M71.3408305,57.8598234 L66.4986377,65.207704 L61.6578564,57.8598234 C60.7946243,56.55149 60.4854981,54.9821875 60.7905465,53.4398381 C61.0943403,51.8974887 61.9749813,50.5688613 63.2692022,49.6962162 C64.2287324,49.0482329 65.3463545,48.705929 66.4998924,48.705929 C69.7092527,48.705929 72.3216905,51.3455851 72.320279,54.5912096 C72.3205927,55.7573259 71.9819811,56.8869764 71.3408305,57.8598234 Z" id="Shape"></path>
                <circle id="Oval" cx="66.5" cy="53.5" r="2.5"></circle>
                <path d="M73.8555932,68.2076757 L71.128749,63 L68.6896558,64.165178 L70.7687807,68.138714 L63.5973738,71.0732475 L62.3552992,69.2961108 L66.4277508,67.3523676 L65.2075651,65.0232323 L59.7540365,67.6271464 C59.4036545,67.7937529 59.1459408,68.0972149 59.0451241,68.4577381 C58.9455856,68.8196344 59.0123707,69.2050265 59.2291825,69.5148964 L61.9560267,73.4206913 C62.2150186,73.7917418 62.6459261,74 63.0904143,74 C63.2717566,74 63.454377,73.9661294 63.6290088,73.8919804 L73.1727238,69.9861855 C73.5189517,69.8455158 73.7876897,69.5747039 73.9171058,69.2375239 C74.0465219,68.900344 74.023195,68.5279203 73.8555932,68.2076757 Z" id="Shape"></path>
            </g>
        </g>
    </g>
</svg>