<?xml version="1.0" encoding="UTF-8"?>
<svg width="49px" height="45px" viewBox="0 0 49 45" version="1.1" xmlns="http://www.w3.org/2000/svg" xmlns:xlink="http://www.w3.org/1999/xlink">
    <!-- Generator: Sketch 49 (51002) - http://www.bohemiancoding.com/sketch -->
    <title>ticket</title>
    <desc>Created with Sketch.</desc>
    <defs></defs>
    <g id="Page-1" stroke="none" stroke-width="1" fill="none" fill-rule="evenodd">
        <g id="Hype-Tur---XL" transform="translate(-754.000000, -2709.000000)" fill="#5B4E5C" fill-rule="nonzero">
            <g id="ticket" transform="translate(754.000000, 2709.000000)">
                <path d="M48.2740024,23.198879 L47.3359242,23.198879 C46.5500575,23.198879 45.9107505,22.5595728 45.9107505,21.7737071 C45.9107505,20.9878413 46.5499617,20.3485352 47.3358285,20.3485352 L48.2739066,20.3485352 C48.6749822,20.3485352 48.9999042,20.0236136 48.9999042,19.6225385 L48.9999042,15.2669418 C48.9999042,14.8658668 48.6749822,14.5409452 48.2739066,14.5409452 L47.3358285,14.5409452 C46.5499617,14.5409452 45.9106547,13.901639 45.9106547,13.1157733 L45.9106547,12.8517745 L46.9755597,11.8763392 C47.2642728,11.6118615 47.2912858,11.1660522 47.0365784,10.8686226 L44.202611,7.56107037 C44.0773168,7.41479819 43.8990503,7.32437191 43.7070858,7.30962016 C43.5147381,7.29352735 43.3249767,7.35694069 43.1789917,7.48213895 L42.4665964,8.09261218 C41.8698205,8.60384639 40.9682385,8.53430245 40.4570037,7.93762306 C40.209289,7.64862294 40.0889759,7.28030825 40.1182878,6.90069027 C40.147504,6.52116807 40.3228009,6.17574732 40.611993,5.92803294 L41.3243883,5.31755971 C41.6289069,5.05672202 41.6642537,4.5983642 41.4033198,4.2939418 L38.5692567,0.986485409 C38.3085144,0.682158805 37.850156,0.646620508 37.5456374,0.907553989 L36.8331463,1.51793143 C36.54405,1.76564581 36.1759264,1.88615033 35.796308,1.85664684 C35.4167853,1.82743072 35.0713641,1.652134 34.8236494,1.3629423 L33.8732142,0.253591847 C33.74792,0.107319665 33.5696535,0.016893378 33.377689,0.00214163202 C33.1850539,-0.012610114 32.9956757,0.0492705867 32.8495949,0.174660427 L20.298429,10.9288748 L18.2259976,10.9288748 C17.824922,10.9288748 17.5,11.2537964 17.5,11.6548715 C17.5,12.0559465 17.824922,12.3808681 18.2259976,12.3808681 L44.4587553,12.3808681 L44.4587553,13.1157733 C44.4587553,14.7022565 45.7494389,15.9929385 47.3359242,15.9929385 L47.5480048,15.9929385 L47.5480048,18.8965419 L47.3359242,18.8965419 C45.7494389,18.8965419 44.4587553,20.1872239 44.4587553,21.7737071 C44.4587553,23.3601903 45.7494389,24.6508723 47.3359242,24.6508723 L47.5480048,24.6508723 L47.5480048,27.5544757 L47.3359242,27.5544757 C45.7494389,27.5544757 44.4587553,28.8450619 44.4587553,30.4315451 L44.4587553,32.0774185 L39.4389403,32.0774185 C39.0378647,32.0774185 38.7129427,32.4023401 38.7129427,32.8034151 C38.7129427,33.2044902 39.0378647,33.5294118 39.4389403,33.5294118 L45.1847529,33.5294118 C45.5858285,33.5294118 45.9107505,33.2044902 45.9107505,32.8034151 L45.9107505,30.4315451 C45.9107505,29.6457752 46.5500575,29.006469 47.3359242,29.006469 L48.2740024,29.006469 C48.675078,29.006469 49,28.6815474 49,28.2804723 L49,23.9248757 C49,23.5238006 48.675078,23.198879 48.2740024,23.198879 Z M22.5300646,10.9288748 L33.2429115,1.74984037 L33.7210028,2.30791616 C34.2209344,2.89156803 34.9183863,3.24551414 35.684616,3.30452113 C36.4507499,3.36343232 37.1941814,3.12079484 37.777834,2.62076812 L37.9390498,2.48273393 L39.8283294,4.68754521 L39.6672095,4.82567519 C38.4625458,5.85781846 38.3221167,7.67774327 39.3544529,8.88250113 C40.3867891,10.0871632 42.2067163,10.2274964 43.4112841,9.1952573 L43.5724041,9.05712731 L45.1762275,10.9288748 L22.5300646,10.9288748 Z" id="Shape"></path>
                <path d="M33.3932138,32.6190931 L4.57996701,32.6190931 L4.57996701,31.884285 C4.57996701,30.2978047 3.27830539,29.0071251 1.6783262,29.0071251 L1.46434516,29.0071251 L1.46434516,26.1035271 L1.6783262,26.1035271 C3.27830539,26.1035271 4.57996701,24.8128474 4.57996701,23.2263671 C4.57996701,21.6398868 3.27830539,20.3492072 1.6783262,20.3492072 L1.46434516,20.3492072 L1.46434516,17.4456091 L1.6783262,17.4456091 C3.27830539,17.4456091 4.57996701,16.1549295 4.57996701,14.5684492 L4.57996701,12.9225789 L12.9356608,12.9225789 C13.3401477,12.9225789 13.6678334,12.5976579 13.6678334,12.1965835 C13.6678334,11.7955092 13.3401477,11.4705882 12.9356608,11.4705882 L3.84779442,11.4705882 C3.44330747,11.4705882 3.11562184,11.7955092 3.11562184,12.1965835 L3.11562184,14.5684492 C3.11562184,15.3542177 2.47087718,15.9936185 1.6783262,15.9936185 L0.732172582,15.9936185 C0.327685631,15.9936185 0,16.3185395 0,16.7196138 L0,21.0752025 C0,21.4762768 0.327685631,21.8011978 0.732172582,21.8011978 L1.6783262,21.8011978 C2.47078057,21.8011978 3.11562184,22.4405028 3.11562184,23.2263671 C3.11562184,24.0122314 2.47087718,24.6515364 1.6783262,24.6515364 L0.732172582,24.6515364 C0.327685631,24.6515364 0,24.9764574 0,25.3775317 L0,29.7331204 C0,30.1341948 0.327685631,30.4591157 0.732172582,30.4591157 L1.6783262,30.4591157 C2.47078057,30.4591157 3.11562184,31.0984208 3.11562184,31.884285 L3.11562184,32.276834 L2.08117086,33.090286 C1.92515308,33.2128977 1.82632572,33.3931752 1.80719785,33.5894496 C1.78816658,33.7858199 1.85057369,33.9816155 1.98012157,34.1314316 L4.83809672,37.4389777 C4.96445663,37.5852497 5.14423934,37.6756758 5.33783663,37.6904275 C5.53143392,37.7064245 5.7230991,37.6432028 5.87042239,37.517909 L6.5889736,36.9074369 C6.8805288,36.6596272 7.25188009,36.5385482 7.63463082,36.5687221 C8.01738155,36.5979382 8.36574074,36.7732346 8.61556239,37.0624258 C9.1312422,37.6591998 9.06110665,38.5606831 8.4592548,39.0720122 L7.74080019,39.6823885 C7.43369152,39.9432257 7.39804411,40.4015827 7.66119731,40.7060045 L10.5191725,44.0135506 C10.7822291,44.3180683 11.2444861,44.3536065 11.5514981,44.0924819 L12.2700493,43.4821056 C12.5615079,43.2343917 12.9340185,43.1137916 13.3157066,43.1433908 C13.6984573,43.1726069 14.0468165,43.3479033 14.2966381,43.6370944 L15.2551572,44.7463471 C15.3999688,44.9138844 15.6051587,45 15.8115079,45 C15.9800844,45 16.1494337,44.9426216 16.2874829,44.8252783 L28.9230872,34.090146 C28.9301394,34.0841112 28.9362256,34.0775974 28.9430845,34.0713711 L33.3928274,34.0713711 C33.7973144,34.0713711 34.125,33.7464501 34.125,33.3453758 C34.125,32.9443014 33.7977008,32.6190931 33.3932138,32.6190931 Z M15.8911108,43.2501013 L15.4089531,42.6921223 C14.9047693,42.1084715 14.2014818,41.7545261 13.4286383,41.6955192 C12.6558914,41.6360334 11.9062333,41.8792451 11.3176164,42.3792709 L11.1550294,42.5173049 L9.24968046,40.3124018 L9.4121708,40.1743679 C10.0006911,39.6743421 10.3577448,38.9769881 10.4172537,38.2106651 C10.4767627,37.4444378 10.2319645,36.7010086 9.72768414,36.1174536 C9.22350039,35.5338028 8.52021283,35.1798574 7.74736936,35.1208505 C6.97481571,35.0627057 6.22496433,35.3046722 5.63634742,35.8046022 L5.47385708,35.942732 L3.8562957,34.0709879 L26.6949795,34.0709879 L15.8911108,43.2501013 Z" id="Shape"></path>
                <path d="M40.4043894,14.1176471 L19.8801065,14.1176471 C19.4820594,14.1176471 19.1595909,14.4443953 19.1595909,14.8477251 C19.1595909,15.251055 19.4820594,15.5778032 19.8801065,15.5778032 L39.6838739,15.5778032 L39.6838739,28.5398438 L8.44103107,28.5398438 L8.44103107,15.5778032 L14.3734246,15.5778032 C14.7714716,15.5778032 15.0939401,15.251055 15.0939401,14.8477251 C15.0939401,14.4443953 14.7714716,14.1176471 14.3734246,14.1176471 L7.72051554,14.1176471 C7.32246849,14.1176471 7,14.4444916 7,14.8477251 L7,29.2699219 C7,29.6732518 7.32246849,30 7.72051554,30 L40.4044845,30 C40.8025315,30 41.125,29.6732518 41.125,29.2699219 L41.125,14.8477251 C41.1249049,14.4443953 40.8024364,14.1176471 40.4043894,14.1176471 Z" id="Shape"></path>
                <path d="M14.5197047,19.4117647 L10.8552077,19.4117647 C10.6125948,19.4117647 10.5,19.7015151 10.5,19.9718447 C10.5,20.2808207 10.6299306,20.5415864 10.8552077,20.5415864 L12.1287723,20.5415864 L12.1287723,26.0746578 C12.1287723,26.3354234 12.4060568,26.4705882 12.6918339,26.4705882 C12.9691184,26.4705882 13.2549831,26.3354234 13.2549831,26.0746578 L13.2549831,20.5415864 L14.5197923,20.5415864 C14.7450694,20.5415864 14.875,20.2711591 14.875,19.9718447 C14.8749124,19.7015151 14.7623176,19.4117647 14.5197047,19.4117647 Z" id="Shape"></path>
                <path d="M16.1875,19.4117647 C15.9653825,19.4117647 15.75,19.5276063 15.75,19.7979359 L15.75,26.0746578 C15.75,26.3354234 15.9653825,26.4705882 16.1875,26.4705882 C16.4029506,26.4705882 16.625,26.3354234 16.625,26.0746578 L16.625,19.7979359 C16.625,19.5276063 16.4029506,19.4117647 16.1875,19.4117647 Z" id="Shape"></path>
                <path d="M22.1342928,23.9613199 C21.8171531,23.9613199 21.5559183,24.0571489 21.5372519,24.3540253 C21.5092524,24.7563136 21.4346812,25.378815 20.585833,25.378815 C19.9422205,25.378815 19.5877481,25.0244412 19.5877481,24.2773621 L19.5877481,21.6051844 C19.5877481,20.8581053 19.9421262,20.5036347 20.5671666,20.5036347 C21.4532533,20.5036347 21.5185856,21.1549817 21.5373462,21.451858 C21.5465851,21.7392483 21.798581,21.8445634 22.143626,21.8445634 C22.5540032,21.8445634 22.75,21.7296654 22.75,21.2315481 C22.75,20.1204155 21.826392,19.4117647 20.5297396,19.4117647 C19.3544185,19.4117647 18.375,20.0055174 18.375,21.6050876 L18.375,24.2772653 C18.375,25.8767387 19.3451796,26.4705882 20.5205007,26.4705882 C21.826392,26.4705882 22.75,25.733092 22.75,24.5741417 C22.75,24.0857041 22.5540032,23.9613199 22.1342928,23.9613199 Z" id="Shape"></path>
                <path d="M27.9381865,25.6266311 L26.0113393,22.4425274 L27.5933889,20.2941055 C27.6552023,20.2078391 27.6640456,20.1214757 27.6640456,20.0544012 C27.6640456,19.7378324 27.2928075,19.4117647 27.0011587,19.4117647 C26.8775317,19.4117647 26.7714127,19.4596474 26.6830694,19.5939904 L24.7739087,22.4136427 L24.7739087,19.7953111 C24.7739087,19.5268189 24.4823492,19.4117647 24.1994543,19.4117647 C23.9078055,19.4117647 23.625,19.5268189 23.625,19.7953111 L23.6250893,19.7953111 L23.6250893,26.0293694 C23.6250893,26.2883625 23.9078949,26.4226086 24.1995437,26.4226086 C24.4824385,26.4226086 24.773998,26.2883625 24.773998,26.0293694 L24.773998,24.1496335 L25.2513552,23.497498 L26.9129941,26.2308839 C27.0101806,26.4034167 27.1604266,26.4705882 27.3106726,26.4705882 C27.6465377,26.4705882 28,26.1542134 28,25.8472406 C28,25.7705701 27.9823135,25.6938026 27.9381865,25.6266311 Z" id="Shape"></path>
                <path d="M32.8548846,25.3698642 L30.1276435,25.3698642 L30.1276435,23.4288853 L31.592502,23.4288853 C31.8623726,23.4288853 31.9876174,23.1681233 31.9876174,22.9460072 C31.9876174,22.6852452 31.8430891,22.4438061 31.592502,22.4438061 L30.1276435,22.4438061 L30.1276435,20.5125863 L32.8548846,20.5125863 C33.1054717,20.5125863 33.25,20.2518243 33.25,19.9525141 C33.25,19.6918496 33.1246577,19.4117647 32.8548846,19.4117647 L29.4242854,19.4117647 C29.1447732,19.4117647 28.875,19.5469276 28.875,19.8076896 L28.875,26.0746633 C28.875,26.3354253 29.1447732,26.4705882 29.4242854,26.4705882 L32.8548846,26.4705882 C33.1247551,26.4705882 33.25,26.1906009 33.25,25.9298389 C33.25,25.6306262 33.1054717,25.3698642 32.8548846,25.3698642 Z" id="Shape"></path>
                <path d="M37.2697047,19.4117647 L33.6052077,19.4117647 C33.3625948,19.4117647 33.25,19.7015151 33.25,19.9718447 C33.25,20.2808207 33.3799306,20.5415864 33.6052077,20.5415864 L34.8787723,20.5415864 L34.8787723,26.0746578 C34.8787723,26.3354234 35.1560568,26.4705882 35.4418339,26.4705882 C35.7191184,26.4705882 36.0049831,26.3354234 36.0049831,26.0746578 L36.0049831,20.5415864 L37.2697923,20.5415864 C37.4950694,20.5415864 37.625,20.2711591 37.625,19.9718447 C37.6249124,19.7015151 37.5123176,19.4117647 37.2697047,19.4117647 Z" id="Shape"></path>
            </g>
        </g>
    </g>
</svg>