<?xml version="1.0" encoding="UTF-8"?>
<svg width="45px" height="36px" viewBox="0 0 45 36" version="1.1" xmlns="http://www.w3.org/2000/svg" xmlns:xlink="http://www.w3.org/1999/xlink">
    <!-- Generator: Sketch 49 (51002) - http://www.bohemiancoding.com/sketch -->
    <title>004-bed-1</title>
    <desc>Created with Sketch.</desc>
    <defs></defs>
    <g id="Page-1" stroke="none" stroke-width="1" fill="none" fill-rule="evenodd">
        <g id="Hype-Tur---XL" transform="translate(-469.000000, -2714.000000)" fill="#5B4E5C" fill-rule="nonzero">
            <g id="004-bed-1" transform="translate(469.000000, 2714.000000)">
                <path d="M39.749924,12.7499609 L16.2793905,12.7499609 C16.4209294,12.4308723 16.4999196,12.0760416 16.4999196,11.6999442 L16.4999196,10.7999553 C16.4999196,9.37491344 15.3749352,8.2499274 13.9498955,8.2499274 L8.54997051,8.2499274 C7.12493075,8.2499274 5.99994639,9.37491344 5.99994639,10.7999553 L5.99994639,11.6999442 C5.99994639,12.0760416 6.07893655,12.430783 6.22047549,12.7499609 L4.50002681,12.7499609 L4.50002681,1.50001117 C4.50002681,0.674991623 3.82503619,0 3.00001787,0 L1.50000894,0 C0.674990618,0 0,0.674991623 0,1.50001117 L0,13.5000112 L0,34.4999888 C0,35.3250084 0.674990618,36 1.50000894,36 L3.00001787,36 C3.82503619,36 4.50002681,35.3250084 4.50002681,34.4999888 L4.50002681,24.7499609 L11.2500223,24.7499609 L40.4999732,24.7499609 L40.4999732,34.4999888 C40.4999732,35.3250084 41.1749638,36 41.9999821,36 L43.4999911,36 C44.3250094,36 45,35.3250084 45,34.4999888 L45,17.9999553 C45,15.0749916 42.6749727,12.7499609 39.749924,12.7499609 Z M7.49995532,11.6999442 L7.49995532,10.7999553 C7.49995532,10.199933 7.94994907,9.74993857 8.54997051,9.74993857 L13.9499848,9.74993857 C14.5500063,9.74993857 15,10.199933 15,10.7999553 L15,11.6999442 C15,12.2999665 14.5500063,12.7499609 13.9499848,12.7499609 L11.2500223,12.7499609 L8.54997051,12.7499609 C7.95003842,12.7499609 7.49995532,12.2999665 7.49995532,11.6999442 Z M1.50000894,1.50001117 L3.00001787,1.50001117 L3.00001787,12.7500503 L1.50000894,12.7500503 L1.50000894,1.50001117 Z M3.74997766,23.2499497 C3.29998392,23.2499497 3.00001787,23.5499162 3.00001787,23.9999106 L3.00001787,34.4998995 L1.50000894,34.4998995 L1.50000894,14.2499721 L3.74997766,14.2499721 L8.54997051,14.2499721 L10.4999732,14.2499721 L10.4999732,23.2499497 L3.74997766,23.2499497 Z M43.4999911,34.4999888 L41.9999821,34.4999888 L41.9999821,24 C41.9999821,23.5500056 41.7000161,23.2500391 41.2500223,23.2500391 L11.9999821,23.2500391 L11.9999821,14.2499721 L13.9499848,14.2499721 L39.749924,14.2499721 C41.8499544,14.2499721 43.4999017,15.9000112 43.4999017,17.9999553 L43.4999911,34.4999888 Z" id="Shape"></path>
            </g>
        </g>
    </g>
</svg>