<?xml version="1.0" encoding="UTF-8"?>
<svg width="24px" height="24px" viewBox="0 0 24 24" version="1.1" xmlns="http://www.w3.org/2000/svg" xmlns:xlink="http://www.w3.org/1999/xlink">
    <!-- Generator: Sketch 49 (51002) - http://www.bohemiancoding.com/sketch -->
    <title>facebook</title>
    <desc>Created with Sketch.</desc>
    <defs></defs>
    <g id="Page-1" stroke="none" stroke-width="1" fill="none" fill-rule="evenodd">
        <g id="Hype-Tur---XL" transform="translate(-1066.000000, -35.000000)" fill="#5B4E5C" fill-rule="nonzero">
            <g id="Nav-Bar" transform="translate(656.000000, 35.000000)">
                <g id="facebook" transform="translate(410.000000, 0.000000)">
                    <path d="M12,0 C5.37,0 0,5.37 0,12 C0,18.63 5.37,24 12,24 C18.63,24 24,18.63 24,12 C24,5.37 18.63,0 12,0 Z M14.5714286,8.26865672 L13.0268741,8.26865672 C12.6110325,8.26865672 12.3140028,8.62686567 12.3140028,9.07462687 L12.3140028,9.76119403 L14.5120226,9.76119403 L14.155587,12 L12.3140028,12 L12.3140028,18 L10.0565771,18 L10.0565771,12 L8.57142857,12 L8.57142857,9.76119403 L10.0565771,9.76119403 L10.0565771,8.62686567 C10.0862801,7.31343284 10.5318246,6.08955224 12.7298444,6 L14.5417256,6 L14.5714286,8.26865672 Z" id="Shape"></path>
                </g>
            </g>
        </g>
    </g>
</svg>