<?xml version="1.0" encoding="UTF-8"?>
<svg width="23px" height="16px" viewBox="0 0 23 16" version="1.1" xmlns="http://www.w3.org/2000/svg" xmlns:xlink="http://www.w3.org/1999/xlink">
    <!-- Generator: Sketch 49 (51002) - http://www.bohemiancoding.com/sketch -->
    <title>Shape</title>
    <desc>Created with Sketch.</desc>
    <defs></defs>
    <g id="Page-1" stroke="none" stroke-width="1" fill="none" fill-rule="evenodd" fill-opacity="0.6">
        <g id="Hype-Tur---XL" transform="translate(-513.000000, -2133.000000)" fill="#5B4E5C" fill-rule="nonzero">
            <g id="Group-4" transform="translate(510.000000, 2133.000000)">
                <path d="M8.04878049,5.81818182 C10.8247571,5.81818182 13.075122,8.0975 13.075122,10.9090909 C13.075122,13.7206818 10.8247571,16 8.04878049,16 C5.2728039,16 3.02243902,13.7206818 3.02243902,10.9090909 L3,10.1818182 C3,4.55854545 7.50072976,0 13.0526829,0 L13.0526829,2.90909091 C11.1347298,2.90909091 9.33152976,3.66559091 7.97531512,5.03922727 C7.71425951,5.30368182 7.47600195,5.58504545 7.26108098,5.88059091 C7.51773854,5.83968182 7.78076878,5.81818182 8.04878049,5.81818182 Z M20.9736585,5.81818182 C23.7495902,5.81818182 26,8.0975 26,10.9090909 C26,13.7206818 23.7495902,16 20.9736585,16 C18.1977268,16 15.9473171,13.7206818 15.9473171,10.9090909 L15.924878,10.1818182 C15.924878,4.55854545 20.4255629,0 25.977561,0 L25.977561,2.90909091 C24.0596527,2.90909091 22.2563629,3.66559091 20.9001932,5.03922727 C20.6390927,5.30368182 20.4008351,5.58504545 20.1859141,5.88059091 C20.4425717,5.83968182 20.705602,5.81818182 20.9736585,5.81818182 Z" id="Shape"></path>
            </g>
        </g>
    </g>
</svg>