<?xml version="1.0" encoding="UTF-8"?>
<svg width="61px" height="45px" viewBox="0 0 61 45" version="1.1" xmlns="http://www.w3.org/2000/svg" xmlns:xlink="http://www.w3.org/1999/xlink">
    <!-- Generator: Sketch 49 (51002) - http://www.bohemiancoding.com/sketch -->
    <title>001-transport-2 copy</title>
    <desc>Created with Sketch.</desc>
    <defs></defs>
    <g id="Page-1" stroke="none" stroke-width="1" fill="none" fill-rule="evenodd">
        <g id="Hype-Tur---XL" transform="translate(-461.000000, -2641.000000)" fill="#5B4E5C" fill-rule="nonzero">
            <g id="001-transport-2-copy" transform="translate(461.000000, 2641.000000)">
                <path d="M49.2212822,28.4231719 C48.7980575,27.9976311 48.4352935,27.6328819 48.0725295,27.2681327 C42.7519904,21.9184778 31.8086089,22.4656016 31.3853842,22.4656016 L5.08499226,22.4656016 C4.60130689,22.4656016 4.17808219,22.8911423 4.17808219,23.3774746 C4.17808219,23.8638069 4.60130689,24.2893476 5.08499226,24.2893476 L30.9621595,24.2893476 L35.4967099,30.2469179 C35.5571706,30.3685009 37.6128334,33.1649115 40.6963276,33.3472861 C41.6032377,33.4080776 43.1147545,33.4080776 44.7471926,33.4080776 C47.8306868,33.4080776 51.2164844,33.3472861 51.3978664,33.3472861 L51.4583271,33.3472861 C53.2116865,35.3534067 54.602282,37.3595273 54.0581359,38.575358 C53.7558326,39.3048564 52.3047765,40.5814786 46.0773273,40.5814786 L5.68959897,40.5814786 C5.2059136,40.5814786 4.7826889,41.0070193 4.7826889,41.4933516 C4.7826889,41.9796839 5.2059136,42.4052246 5.68959897,42.4052246 L46.0773273,42.4052246 C51.8210911,42.4052246 54.9045853,41.3717685 55.7510347,39.2440648 C57.0207088,36.0829051 52.9093832,32.0098724 49.2212822,28.4231719 Z M40.8172489,31.4627486 C38.5802041,31.3411655 37.0082267,29.1526703 36.947766,29.0918787 L33.259665,24.1677645 C36.4640806,24.2285561 43.2961365,24.8972629 46.8028554,28.4231719 C47.1656194,28.7879211 47.5888441,29.2134618 48.0120688,29.578211 C48.5562149,30.1253348 49.2212822,30.7332501 49.825889,31.401957 C47.4074621,31.5235401 42.7519904,31.5843316 40.8172489,31.4627486 Z" id="Shape"></path>
                <path d="M60.1099222,43.2366996 L0.890077821,43.2366996 C0.41536965,43.2366996 0,43.4307104 0,43.6524371 C0,43.8741637 0.41536965,44.0681746 0.890077821,44.0681746 L60.1099222,44.0681746 C60.5846304,44.0681746 61,43.8741637 61,43.6524371 C61,43.4307104 60.5846304,43.2366996 60.1099222,43.2366996 Z" id="Shape"></path>
                <path d="M30.6239651,29.4242867 L25.4523258,24.3609763 C25.2760199,24.2120554 25.0409454,24.1127748 24.8058708,24.1127748 L5.05961162,24.1127748 C4.58946259,24.1127748 4.17808219,24.4602569 4.17808219,24.8573792 L4.17808219,30.0199702 C4.17808219,30.4170926 4.58946259,30.7645747 5.05961162,30.7645747 L30.0362788,30.7645747 C30.5064278,30.7645747 30.9178082,30.4170926 30.9178082,30.0199702 C30.9178082,29.7717687 30.800271,29.5732076 30.6239651,29.4242867 Z M5.94114105,29.2753658 L5.94114105,25.6019837 L9.87863917,25.6019837 L13.5810628,29.2753658 L5.94114105,29.2753658 Z M15.8730393,29.2753658 L12.1706157,25.6019837 L17.1659491,25.6019837 L20.8683727,29.2753658 L15.8730393,29.2753658 Z M23.1603492,29.2753658 L19.4579256,25.6019837 L24.3944904,25.6019837 L28.1556827,29.2753658 L23.1603492,29.2753658 Z" id="Shape"></path>
                <path d="M39.2018701,5.40267161 L30.9113705,5.40267161 C30.4877683,2.35648442 27.7040969,0 24.4363088,0 C20.9869768,0 18.1427908,2.58638534 17.9007324,5.80499822 C17.1745573,5.51762207 16.3878675,5.40267161 15.5406632,5.40267161 C12.2123604,5.40267161 9.48920362,7.75915603 9.06560145,10.8053432 L1.74333537,10.8053432 C1.25921861,10.8053432 0.835616438,11.2076698 0.835616438,11.6674717 C0.835616438,12.0697983 1.25921861,12.4721249 1.74333537,12.4721249 L9.8522912,12.4721249 C10.336408,12.4721249 10.7600101,12.0697983 10.7600101,11.6099964 C10.7600101,9.13856155 12.878021,7.06945327 15.5406632,7.06945327 C18.1427908,7.06945327 20.3213163,9.08108632 20.3213163,11.6099964 C20.3213163,12.0697983 20.7449184,12.4721249 21.2290352,12.4721249 L30.3062245,12.4721249 C30.7903413,12.4721249 31.2139435,12.0697983 31.2139435,11.6099964 C31.2139435,11.1501946 30.7903413,10.747868 30.3062245,10.747868 L22.0762395,10.747868 C21.8341811,9.08108632 20.8659476,7.64420557 19.5346265,6.66712666 C19.5951411,6.5521762 19.6556557,6.37975051 19.6556557,6.26480006 C19.6556557,3.79336517 21.7736665,1.7242569 24.4363088,1.7242569 C27.0384364,1.7242569 29.2169618,3.73588994 29.2169618,6.26480006 C29.2169618,6.72460189 29.640564,7.1269285 30.1246808,7.1269285 L39.2018701,7.1269285 C39.6859869,7.1269285 40.109589,6.72460189 40.109589,6.26480006 C40.109589,5.80499822 39.6859869,5.40267161 39.2018701,5.40267161 Z" id="Shape"></path>
                <path d="M23.3236568,14.9665499 L1.7448364,14.9665499 C1.25991909,14.9665499 0.835616438,15.1605607 0.835616438,15.3822874 C0.835616438,15.604014 1.25991909,15.7980248 1.7448364,15.7980248 L23.3236568,15.7980248 C23.8085741,15.7980248 24.2328767,15.604014 24.2328767,15.3822874 C24.2328767,15.1605607 23.8085741,14.9665499 23.3236568,14.9665499 Z" id="Shape"></path>
            </g>
        </g>
    </g>
</svg>