<?xml version="1.0" encoding="UTF-8"?>
<svg width="45px" height="45px" viewBox="0 0 45 45" version="1.1" xmlns="http://www.w3.org/2000/svg" xmlns:xlink="http://www.w3.org/1999/xlink">
    <!-- Generator: Sketch 49 (51002) - http://www.bohemiancoding.com/sketch -->
    <title>landmark</title>
    <desc>Created with Sketch.</desc>
    <defs></defs>
    <g id="Page-1" stroke="none" stroke-width="1" fill="none" fill-rule="evenodd">
        <g id="Hype-Tur---XL" transform="translate(-756.000000, -2775.000000)" fill="#5B4E5C" fill-rule="nonzero">
            <g id="landmark" transform="translate(756.000000, 2775.000000)">
                <path d="M37.3627193,43.86 L31.374386,30.3863158 C31.2538596,30.1153509 30.9866667,29.9416667 30.6902632,29.9416667 L14.2223684,29.9416667 C13.9266667,29.9416667 13.6586842,30.1153509 13.5389474,30.3863158 L7.55061404,43.86 C7.4472807,44.0913158 7.46903509,44.3592982 7.60675439,44.5718421 C7.74447368,44.784386 7.98105263,44.9124561 8.23403509,44.9124561 L14.9708772,44.9124561 C15.2725439,44.9124561 15.5457895,44.7313158 15.6617544,44.4521053 L17.9679825,38.9264035 C18.7232456,37.1059649 20.4838596,35.93 22.4547368,35.93 C22.4570175,35.9292105 22.4570175,35.9292105 22.4585088,35.93 C24.4286842,35.93 26.1892105,37.1059649 26.9452632,38.9278947 L29.2507895,44.4521053 C29.3668421,44.7313158 29.64,44.9124561 29.9416667,44.9124561 L36.6785088,44.9124561 C36.9322807,44.9124561 37.1687719,44.7844737 37.3064912,44.5718421 C37.4442982,44.3592982 37.4659649,44.0921053 37.3627193,43.86 Z M30.4401754,43.4153509 L28.3270175,38.3529825 C27.3389474,35.9718421 25.0357018,34.4328947 22.4577193,34.4328947 C22.4562281,34.4328947 22.4554386,34.4328947 22.4539474,34.4328947 C19.8767544,34.4328947 17.5727193,35.9711404 16.5854386,38.3514912 L14.4722807,43.4153509 L9.38596491,43.4153509 L14.7088596,31.4387719 L30.204386,31.4387719 L35.5264912,43.4153509 L30.4401754,43.4153509 Z" id="Shape"></path>
                <path d="M30.6902632,26.9475439 L14.2223684,26.9475439 C13.8092105,26.9475439 13.4738596,27.2821053 13.4738596,27.6960526 L13.4738596,30.6901754 L14.9709649,30.6901754 L14.9709649,28.4445614 L29.9417544,28.4445614 L29.9417544,30.6901754 L31.4388596,30.6901754 L31.4388596,27.6960526 C31.4387719,27.282193 31.1041228,26.9475439 30.6902632,26.9475439 Z" id="Shape"></path>
                <path d="M26.9221053,16.2749123 C26.8352632,15.947807 26.5380702,15.7194737 26.1990351,15.7194737 L18.7136842,15.7194737 C18.3745614,15.7194737 18.0774561,15.947807 17.9898246,16.2749123 L14.9957018,27.5029825 L16.4426316,27.8892105 L19.2885965,17.2165789 L25.6235088,17.2165789 L28.4701754,27.8892105 L29.9163158,27.5029825 L26.9221053,16.2749123 Z" id="Shape"></path>
                <path d="M23.1734211,19.9958772 C23.0783333,19.6792105 22.7864035,19.462193 22.4563158,19.462193 C22.1262281,19.462193 21.8342982,19.6792982 21.7392105,19.9958772 L19.4935965,27.4812281 L20.927807,27.9108772 L22.4563158,22.815614 L23.9848246,27.9108772 L25.4190351,27.4812281 L23.1734211,19.9958772 Z" id="Shape"></path>
                <path d="M26.1990351,12.7253509 L18.7136842,12.7253509 C18.3005263,12.7253509 17.9651754,13.0607018 17.9651754,13.4738596 L17.9651754,16.4679825 C17.9651754,16.8811404 18.3005263,17.2164912 18.7136842,17.2164912 L26.1990351,17.2164912 C26.6129825,17.2164912 26.9475439,16.8811404 26.9475439,16.4679825 L26.9475439,13.4738596 C26.9475439,13.0607018 26.6128947,12.7253509 26.1990351,12.7253509 Z M25.4504386,15.7194737 L19.4621053,15.7194737 L19.4621053,14.2223684 L25.4504386,14.2223684 L25.4504386,15.7194737 Z" id="Shape"></path>
                <path d="M24.9190351,5.13736842 C24.7498246,3.915 23.6914035,2.99429825 22.4592982,2.99429825 C22.457807,2.99429825 22.4563158,2.99429825 22.4548246,2.99429825 C21.2220175,2.99429825 20.1635965,3.915 19.9951754,5.12535088 L18.7226316,13.3592982 L20.2024561,13.5883333 L21.4764912,5.34315789 C21.5438596,4.85736842 21.9645614,4.49131579 22.4563158,4.49131579 C22.4563158,4.49131579 22.4563158,4.49131579 22.4571053,4.49131579 L22.4578947,4.49131579 C22.9481579,4.49131579 23.3696491,4.85736842 23.4385088,5.35438596 L24.7110526,13.5883333 L26.1901754,13.3592982 L24.9190351,5.13736842 Z" id="Shape"></path>
                <rect id="Rectangle-path" x="21.707807" y="0.000175438596" width="1.49710526" height="3.7427193"></rect>
                <rect id="Rectangle-path" x="20.2107018" y="5.98850877" width="3.7427193" height="1.49710526"></rect>
                <rect id="Rectangle-path" x="0.000175438596" y="43.4153509" width="17.2164035" height="1.49710526"></rect>
                <rect id="Rectangle-path" x="27.6960526" y="43.4153509" width="10.4795614" height="1.49710526"></rect>
                <path d="M12.7253509,8.98263158 L0.748684211,8.98263158 C0.335526316,8.98263158 0.000175438596,9.31798246 0.000175438596,9.73114035 L0.000175438596,20.2107018 C0.000175438596,20.6238596 0.335526316,20.9592105 0.748684211,20.9592105 L12.7252632,20.9592105 C13.1384211,20.9592105 13.4737719,20.6238596 13.4737719,20.2107018 L13.4737719,9.73114035 C13.4738596,9.31798246 13.1385088,8.98263158 12.7253509,8.98263158 Z M11.9768421,19.462193 L1.4972807,19.462193 L1.4972807,10.4797368 L11.9768421,10.4797368 L11.9768421,19.462193 Z" id="Shape"></path>
                <path d="M13.2545614,9.20192982 L10.2604386,6.20780702 C10.1204386,6.06710526 9.9295614,5.98850877 9.73122807,5.98850877 L3.74289474,5.98850877 C3.5445614,5.98850877 3.35368421,6.06710526 3.21368421,6.20780702 L0.219473684,9.20192982 C0.00543859649,9.41605263 -0.0589473684,9.73789474 0.0570175439,10.017807 C0.173070175,10.2970175 0.44622807,10.4796491 0.748684211,10.4796491 L12.7252632,10.4796491 C13.0277193,10.4796491 13.3008772,10.2970175 13.4169298,10.017807 C13.5329825,9.73789474 13.4685965,9.41605263 13.2545614,9.20192982 Z M2.55570175,8.98263158 L4.05280702,7.48552632 L9.42131579,7.48552632 L10.9184211,8.98263158 L2.55570175,8.98263158 Z" id="Shape"></path>
                <path d="M6.73701754,11.9767544 C5.08570175,11.9767544 3.74289474,13.3196491 3.74289474,14.9708772 C3.74289474,16.6221053 5.08578947,17.965 6.73701754,17.965 C8.38824561,17.965 9.73114035,16.6221053 9.73114035,14.9708772 C9.73114035,13.3196491 8.38824561,11.9767544 6.73701754,11.9767544 Z M6.73701754,16.4679825 C5.91140351,16.4679825 5.23991228,15.7965789 5.23991228,14.9708772 C5.23991228,14.1452632 5.91131579,13.4737719 6.73701754,13.4737719 C7.56263158,13.4737719 8.23412281,14.1451754 8.23412281,14.9708772 C8.23412281,15.7965789 7.56263158,16.4679825 6.73701754,16.4679825 Z" id="Shape"></path>
                <path d="M11.2282456,19.462193 L2.24578947,19.462193 C1.83263158,19.462193 1.4972807,19.7975439 1.4972807,20.2107018 L1.4972807,44.9124561 L2.99438596,44.9124561 L2.99438596,20.9592105 L10.4797368,20.9592105 L10.4797368,37.4270175 L11.9768421,37.4270175 L11.9768421,20.2107018 C11.9767544,19.7975439 11.6414035,19.462193 11.2282456,19.462193 Z" id="Shape"></path>
                <path d="M9.73114035,2.99429825 L3.74289474,2.99429825 C3.32973684,2.99429825 2.99438596,3.32964912 2.99438596,3.74280702 L2.99438596,6.73692982 C2.99438596,7.15008772 3.32973684,7.4854386 3.74289474,7.4854386 L9.73122807,7.4854386 C10.144386,7.4854386 10.4797368,7.15008772 10.4797368,6.73692982 L10.4797368,3.74289474 C10.4797368,3.32964912 10.144386,2.99429825 9.73114035,2.99429825 Z M8.98263158,5.98850877 L4.49140351,5.98850877 L4.49140351,4.49140351 L8.98263158,4.49140351 L8.98263158,5.98850877 Z" id="Shape"></path>
                <path d="M10.2603509,3.21368421 L7.26622807,0.219473684 C6.97350877,-0.0731578947 6.5004386,-0.0731578947 6.20780702,0.219473684 L3.21359649,3.21368421 C2.99947368,3.42780702 2.93517544,3.74964912 3.05114035,4.0295614 C3.16719298,4.30877193 3.44035088,4.49140351 3.74280702,4.49140351 L9.73114035,4.49140351 C10.0335088,4.49140351 10.3067544,4.30877193 10.422807,4.0295614 C10.5388596,3.74964912 10.4744737,3.4277193 10.2603509,3.21368421 Z M5.54982456,2.99429825 L6.73701754,1.80710526 L7.92421053,2.99429825 L5.54982456,2.99429825 Z" id="Shape"></path>
                <rect id="Rectangle-path" x="4.49140351" y="22.4563158" width="1.49710526" height="4.49122807"></rect>
                <rect id="Rectangle-path" x="7.48552632" y="22.4563158" width="1.49710526" height="4.49122807"></rect>
                <rect id="Rectangle-path" x="4.49140351" y="40.4212281" width="1.49710526" height="4.49122807"></rect>
                <rect id="Rectangle-path" x="7.48552632" y="40.4212281" width="1.49710526" height="4.49122807"></rect>
                <rect id="Rectangle-path" x="4.49140351" y="34.4328947" width="1.49710526" height="4.49122807"></rect>
                <rect id="Rectangle-path" x="7.48552632" y="34.4328947" width="1.49710526" height="4.49122807"></rect>
                <rect id="Rectangle-path" x="4.49140351" y="28.4446491" width="1.49710526" height="4.49122807"></rect>
                <rect id="Rectangle-path" x="7.48552632" y="28.4446491" width="1.49710526" height="4.49122807"></rect>
                <path d="M42.6668421,4.49140351 L30.6902632,4.49140351 C30.2763158,4.49140351 29.9417544,4.82675439 29.9417544,5.23991228 L29.9417544,30.6901754 L31.4388596,30.6901754 L31.4388596,5.98842105 L41.9184211,5.98842105 L41.9184211,34.4328947 L32.9359649,34.4328947 L32.9359649,35.93 L42.6669298,35.93 C43.0808772,35.93 43.4154386,35.5954386 43.4154386,35.1814912 L43.4154386,5.23991228 C43.4153509,4.82675439 43.0807895,4.49140351 42.6668421,4.49140351 Z" id="Shape"></path>
                <rect id="Rectangle-path" x="29.1931579" y="10.4797368" width="14.9707895" height="1.49710526"></rect>
                <path d="M36.6785088,7.48552632 C36.2645614,7.48552632 35.93,7.82087719 35.93,8.23403509 L35.93,11.2281579 C35.93,11.6413158 36.2645614,11.9766667 36.6785088,11.9766667 C37.0924561,11.9766667 37.4270175,11.6413158 37.4270175,11.2281579 L37.4270175,8.23412281 C37.4271053,7.82087719 37.0924561,7.48552632 36.6785088,7.48552632 Z" id="Shape"></path>
                <path d="M33.684386,7.48552632 C33.2704386,7.48552632 32.9358772,7.82087719 32.9358772,8.23403509 L32.9358772,11.2281579 C32.9358772,11.6413158 33.2704386,11.9766667 33.684386,11.9766667 C34.0983333,11.9766667 34.4328947,11.6413158 34.4328947,11.2281579 L34.4328947,8.23412281 C34.4328947,7.82087719 34.0983333,7.48552632 33.684386,7.48552632 Z" id="Shape"></path>
                <path d="M39.6727193,7.48552632 C39.2587719,7.48552632 38.9242105,7.82087719 38.9242105,8.23403509 L38.9242105,11.2281579 C38.9242105,11.6413158 39.2587719,11.9766667 39.6727193,11.9766667 C40.0866667,11.9766667 40.4212281,11.6413158 40.4212281,11.2281579 L40.4212281,8.23412281 C40.4212281,7.82087719 40.0866667,7.48552632 39.6727193,7.48552632 Z" id="Shape"></path>
                <path d="M41.1697368,0.000175438596 L32.1872807,0.000175438596 C31.7733333,0.000175438596 31.4387719,0.335526316 31.4387719,0.748684211 L31.4387719,5.23991228 C31.4387719,5.65307018 31.7733333,5.98842105 32.1872807,5.98842105 L41.1697368,5.98842105 C41.5836842,5.98842105 41.9182456,5.65307018 41.9182456,5.23991228 L41.9182456,0.748684211 C41.9183333,0.335526316 41.5836842,0.000175438596 41.1697368,0.000175438596 Z M40.4212281,4.49140351 L32.9358772,4.49140351 L32.9358772,1.4972807 L40.4212281,1.4972807 L40.4212281,4.49140351 Z" id="Shape"></path>
                <path d="M35.1814912,2.99429825 C34.7675439,2.99429825 34.4329825,3.32964912 34.4329825,3.74280702 L34.4329825,5.23991228 C34.4329825,5.65307018 34.7675439,5.98842105 35.1814912,5.98842105 C35.5954386,5.98842105 35.93,5.65307018 35.93,5.23991228 L35.93,3.74289474 C35.93,3.32964912 35.5954386,2.99429825 35.1814912,2.99429825 Z" id="Shape"></path>
                <path d="M38.175614,2.99429825 C37.7616667,2.99429825 37.4271053,3.32964912 37.4271053,3.74280702 L37.4271053,4.49131579 C37.4271053,4.90447368 37.7616667,5.23982456 38.175614,5.23982456 C38.5895614,5.23982456 38.9241228,4.90447368 38.9241228,4.49131579 L38.9241228,3.74280702 C38.9241228,3.32964912 38.5895614,2.99429825 38.175614,2.99429825 Z" id="Shape"></path>
                <path d="M44.1639474,34.4328947 L32.9358772,34.4328947 L32.9358772,35.93 L43.4154386,35.93 L43.4154386,44.9124561 L44.9125439,44.9124561 L44.9125439,35.1814912 C44.9124561,34.7675439 44.5778947,34.4328947 44.1639474,34.4328947 Z" id="Shape"></path>
                <path d="M36.6785088,37.4271053 C35.4404386,37.4271053 34.4328947,38.4346491 34.4328947,39.6727193 L34.4328947,40.8179825 L35.93,40.8179825 L35.93,39.6727193 C35.93,39.2595614 36.2653509,38.9242105 36.6785088,38.9242105 C37.0916667,38.9242105 37.4270175,39.2595614 37.4270175,39.6727193 L37.4270175,44.1639474 L38.9241228,44.1639474 L38.9241228,39.6727193 C38.9241228,38.4346491 37.9165789,37.4271053 36.6785088,37.4271053 Z" id="Shape"></path>
                <rect id="Rectangle-path" x="36.6785088" y="43.4153509" width="7.48535088" height="1.49710526"></rect>
                <path d="M42.6668421,37.4271053 C41.4287719,37.4271053 40.4212281,38.4346491 40.4212281,39.6727193 L40.4212281,44.1639474 L41.9183333,44.1639474 L41.9183333,39.6727193 C41.9183333,39.2595614 42.2536842,38.9242105 42.6668421,38.9242105 C43.08,38.9242105 43.4153509,39.2595614 43.4153509,39.6727193 L43.4153509,44.1639474 L44.9124561,44.1639474 L44.9124561,39.6727193 C44.9124561,38.4346491 43.9049123,37.4271053 42.6668421,37.4271053 Z" id="Shape"></path>
                <rect id="Rectangle-path" x="29.1931579" y="16.4679825" width="14.9707895" height="1.49710526"></rect>
                <path d="M36.6785088,13.4738596 C36.2645614,13.4738596 35.93,13.8092105 35.93,14.2223684 L35.93,17.2164912 C35.93,17.6296491 36.2645614,17.965 36.6785088,17.965 C37.0924561,17.965 37.4270175,17.6296491 37.4270175,17.2164912 L37.4270175,14.2223684 C37.4271053,13.8092105 37.0924561,13.4738596 36.6785088,13.4738596 Z" id="Shape"></path>
                <path d="M33.684386,13.4738596 C33.2704386,13.4738596 32.9358772,13.8092105 32.9358772,14.2223684 L32.9358772,17.2164912 C32.9358772,17.6296491 33.2704386,17.965 33.684386,17.965 C34.0983333,17.965 34.4328947,17.6296491 34.4328947,17.2164912 L34.4328947,14.2223684 C34.4328947,13.8092105 34.0983333,13.4738596 33.684386,13.4738596 Z" id="Shape"></path>
                <path d="M39.6727193,13.4738596 C39.2587719,13.4738596 38.9242105,13.8092105 38.9242105,14.2223684 L38.9242105,17.2164912 C38.9242105,17.6296491 39.2587719,17.965 39.6727193,17.965 C40.0866667,17.965 40.4212281,17.6296491 40.4212281,17.2164912 L40.4212281,14.2223684 C40.4212281,13.8092105 40.0866667,13.4738596 39.6727193,13.4738596 Z" id="Shape"></path>
                <rect id="Rectangle-path" x="29.1931579" y="22.4563158" width="14.9707895" height="1.49710526"></rect>
                <path d="M36.6785088,19.462193 C36.2645614,19.462193 35.93,19.7975439 35.93,20.2107018 L35.93,23.2048246 C35.93,23.6187719 36.2645614,23.9533333 36.6785088,23.9533333 C37.0924561,23.9533333 37.4270175,23.6187719 37.4270175,23.2048246 L37.4270175,20.2107018 C37.4271053,19.7975439 37.0924561,19.462193 36.6785088,19.462193 Z" id="Shape"></path>
                <path d="M33.684386,19.462193 C33.2704386,19.462193 32.9358772,19.7975439 32.9358772,20.2107018 L32.9358772,23.2048246 C32.9358772,23.6187719 33.2704386,23.9533333 33.684386,23.9533333 C34.0983333,23.9533333 34.4328947,23.6187719 34.4328947,23.2048246 L34.4328947,20.2107018 C34.4328947,19.7975439 34.0983333,19.462193 33.684386,19.462193 Z" id="Shape"></path>
                <path d="M39.6727193,19.462193 C39.2587719,19.462193 38.9242105,19.7975439 38.9242105,20.2107018 L38.9242105,23.2048246 C38.9242105,23.6187719 39.2587719,23.9533333 39.6727193,23.9533333 C40.0866667,23.9533333 40.4212281,23.6187719 40.4212281,23.2048246 L40.4212281,20.2107018 C40.4212281,19.7975439 40.0866667,19.462193 39.6727193,19.462193 Z" id="Shape"></path>
                <rect id="Rectangle-path" x="30.6902632" y="28.4446491" width="13.4736842" height="1.49710526"></rect>
                <path d="M36.6785088,25.4504386 C36.2645614,25.4504386 35.93,25.785 35.93,26.1989474 L35.93,29.1930702 C35.93,29.6070175 36.2645614,29.9415789 36.6785088,29.9415789 C37.0924561,29.9415789 37.4270175,29.6070175 37.4270175,29.1930702 L37.4270175,26.1989474 C37.4271053,25.7850877 37.0924561,25.4504386 36.6785088,25.4504386 Z" id="Shape"></path>
                <path d="M33.684386,25.4504386 C33.2704386,25.4504386 32.9358772,25.785 32.9358772,26.1989474 L32.9358772,29.1930702 C32.9358772,29.6070175 33.2704386,29.9415789 33.684386,29.9415789 C34.0983333,29.9415789 34.4328947,29.6070175 34.4328947,29.1930702 L34.4328947,26.1989474 C34.4328947,25.7850877 34.0983333,25.4504386 33.684386,25.4504386 Z" id="Shape"></path>
                <path d="M39.6727193,25.4504386 C39.2587719,25.4504386 38.9242105,25.785 38.9242105,26.1989474 L38.9242105,29.1930702 C38.9242105,29.6070175 39.2587719,29.9415789 39.6727193,29.9415789 C40.0866667,29.9415789 40.4212281,29.6070175 40.4212281,29.1930702 L40.4212281,26.1989474 C40.4212281,25.7850877 40.0866667,25.4504386 39.6727193,25.4504386 Z" id="Shape"></path>
                <rect id="Rectangle-path" x="32.1872807" y="34.4328947" width="11.9765789" height="1.49710526"></rect>
                <path d="M36.6785088,31.4387719 C36.2645614,31.4387719 35.93,31.7733333 35.93,32.1872807 L35.93,35.1814035 C35.93,35.5953509 36.2645614,35.9299123 36.6785088,35.9299123 C37.0924561,35.9299123 37.4270175,35.5953509 37.4270175,35.1814035 L37.4270175,32.1872807 C37.4271053,31.7734211 37.0924561,31.4387719 36.6785088,31.4387719 Z" id="Shape"></path>
                <path d="M33.684386,31.4387719 C33.2704386,31.4387719 32.9358772,31.7733333 32.9358772,32.1872807 L32.9358772,35.1814035 C32.9358772,35.5953509 33.2704386,35.9299123 33.684386,35.9299123 C34.0983333,35.9299123 34.4328947,35.5953509 34.4328947,35.1814035 L34.4328947,32.1872807 C34.4328947,31.7734211 34.0983333,31.4387719 33.684386,31.4387719 Z" id="Shape"></path>
                <path d="M39.6727193,31.4387719 C39.2587719,31.4387719 38.9242105,31.7733333 38.9242105,32.1872807 L38.9242105,35.1814035 C38.9242105,35.5953509 39.2587719,35.9299123 39.6727193,35.9299123 C40.0866667,35.9299123 40.4212281,35.5953509 40.4212281,35.1814035 L40.4212281,32.1872807 C40.4212281,31.7734211 40.0866667,31.4387719 39.6727193,31.4387719 Z" id="Shape"></path>
            </g>
        </g>
    </g>
</svg>