<?xml version="1.0" encoding="UTF-8"?>
<svg width="44px" height="45px" viewBox="0 0 44 45" version="1.1" xmlns="http://www.w3.org/2000/svg" xmlns:xlink="http://www.w3.org/1999/xlink">
    <!-- Generator: Sketch 49 (51002) - http://www.bohemiancoding.com/sketch -->
    <title>boat</title>
    <desc>Created with Sketch.</desc>
    <defs></defs>
    <g id="Page-1" stroke="none" stroke-width="1" fill="none" fill-rule="evenodd">
        <g id="Hype-Tur---XL" transform="translate(-757.000000, -2641.000000)" fill="#5B4E5C" fill-rule="nonzero">
            <g id="boat" transform="translate(757.000000, 2641.000000)">
                <rect id="Rectangle-path" x="21.5111111" y="14.673913" width="1.95555556" height="28.3695652"></rect>
                <path d="M38.3170019,42.9678225 C37.1702488,43.7953545 35.5694619,43.7953545 34.4212285,42.966416 C32.7483395,41.7653282 30.4118159,41.7639216 28.7381433,42.9678225 C27.5913902,43.7953545 25.9906033,43.7953545 24.8423698,42.966416 C23.1686972,41.7653282 20.8321736,41.7645835 19.1578043,42.9678225 C18.0110512,43.7960991 16.4095677,43.7946926 15.2620309,42.966416 C13.5891419,41.7653282 11.2525312,41.7639216 9.57816198,42.9678225 C8.43219259,43.7960991 6.82992535,43.7946926 5.68238852,42.966416 C4.00949961,41.7653282 1.67288891,41.7659901 0,42.966416 L0.896311777,44.0933719 C2.04158453,43.2707214 3.6415877,43.2707214 4.78459639,44.0919653 C6.46044601,45.302237 8.80149777,45.302237 10.475867,44.0933719 C11.6203561,43.2700595 13.2196626,43.2707214 14.3641516,44.0919653 C15.2025554,44.6971011 16.2066719,45 17.2113979,45 C18.2147307,45 19.2187601,44.6971011 20.0555094,44.0933719 C21.2007821,43.2700595 22.8000887,43.2707214 23.9445777,44.0919653 C25.6182503,45.302237 27.959215,45.3015751 29.6358484,44.0933719 C30.7811211,43.2700595 32.3796439,43.271466 33.5234363,44.0919653 C35.1978056,45.302237 37.5388574,45.3015751 39.214707,44.0933719 C40.3606764,43.2693149 41.9599829,43.2707214 43.1029916,44.0933719 L44,42.966416 C42.3271982,41.7645835 39.9898908,41.7645835 38.3170019,42.9678225 Z" id="Shape"></path>
                <path d="M35.4316181,5.86956522 L8.56838194,5.86956522 C8.15648149,5.86956522 7.82222222,6.20466707 7.82222222,6.61760581 L7.82222222,18.5869565 L9.31462909,18.5869565 L9.31462909,7.36573406 L34.6853709,7.36573406 L34.6853709,18.5869565 L36.1777778,18.5869565 L36.1777778,6.61760581 C36.1777778,6.20466707 35.844218,5.86956522 35.4316181,5.86956522 Z" id="Shape"></path>
                <path d="M25.7029621,0.669017196 C25.659099,0.287916958 25.3238858,0 24.924438,0 L20.053248,0 C19.6546261,0 19.3194129,0.287916958 19.2748157,0.669017196 L18.5777778,6.68242136 L20.1347343,6.84782609 L20.7542318,1.50343912 L24.2236378,1.50343912 L24.8423094,6.84782609 L26.4,6.68242136 L25.7029621,0.669017196 Z" id="Shape"></path>
                <rect id="Rectangle-path" x="16.6222222" y="0" width="10.7555556" height="1.95652174"></rect>
                <path d="M40.6024182,20.498422 L24.8948115,14.3369966 C23.8171496,13.911396 22.6850913,13.6956522 21.5299505,13.6956522 C21.5234161,13.6956522 21.5176455,13.6956522 21.5111111,13.6956522 L21.5139964,15.1733935 C21.5190881,15.1733935 21.5248587,15.1733935 21.5299505,15.1733935 C22.5055234,15.1733935 23.462257,15.3558927 24.3740986,15.7156966 L39.5811895,21.6805977 C39.0343391,28.5979056 36.6610051,35.2247559 32.69931,40.8785946 L31.7860258,42.18639 L32.9658614,43.0434783 L33.877703,41.7371546 C38.0986513,35.7139022 40.5842577,28.624484 41.0651703,21.2372493 C41.0854524,20.9143262 40.8979075,20.6151245 40.6024182,20.498422 Z" id="Shape"></path>
                <path d="M21.4922726,13.6956522 C20.3371829,13.6956522 19.2044958,13.9113909 18.1282394,14.3362023 L2.41997036,20.4982614 C2.12305156,20.6149612 1.93619383,20.9134633 1.9571538,21.2370714 C2.43872402,28.6241317 4.92354151,35.7133826 9.14362409,41.7357137 L10.0561042,43.0434783 L11.2351239,42.1864103 L10.32188,40.8779531 C6.36188781,35.225027 3.98789512,28.5982465 3.44106895,21.6811884 L18.649693,15.7149563 C19.5600516,15.3558535 20.5159791,15.1733586 21.4922726,15.1733586 C21.4973641,15.1733586 21.5031344,15.1733586 21.5082259,15.1733586 L21.5111111,13.6956522 C21.504577,13.6956522 21.4988067,13.6956522 21.4922726,13.6956522 Z" id="Shape"></path>
                <rect id="Rectangle-path" x="8.8" y="39.1304348" width="26.4" height="1.95652174"></rect>
                <path d="M23.9557351,17.9958407 C22.6940017,17.4800521 21.3052058,17.4792427 20.0449694,17.9958407 L2.93333333,24.9876321 L3.49168708,26.4130435 L20.6040276,19.4205326 C21.504297,19.0521507 22.4963193,19.0528701 23.3973813,19.4205326 L40.5090174,26.4130435 L41.0666667,24.9876321 L23.9557351,17.9958407 Z" id="Shape"></path>
                <rect id="Rectangle-path" x="21.5111111" y="8.80434783" width="1.95555556" height="1.95652174"></rect>
                <rect id="Rectangle-path" x="18.5777778" y="8.80434783" width="1.95555556" height="1.95652174"></rect>
                <rect id="Rectangle-path" x="15.6444444" y="8.80434783" width="1.95555556" height="1.95652174"></rect>
                <rect id="Rectangle-path" x="12.7111111" y="8.80434783" width="1.95555556" height="1.95652174"></rect>
                <rect id="Rectangle-path" x="24.4444444" y="8.80434783" width="1.95555556" height="1.95652174"></rect>
                <rect id="Rectangle-path" x="27.3777778" y="8.80434783" width="1.95555556" height="1.95652174"></rect>
                <rect id="Rectangle-path" x="30.3111111" y="8.80434783" width="1.95555556" height="1.95652174"></rect>
                <rect id="Rectangle-path" x="9.77777778" y="8.80434783" width="1.95555556" height="1.95652174"></rect>
                <rect id="Rectangle-path" x="33.2444444" y="8.80434783" width="1.95555556" height="1.95652174"></rect>
                <rect id="Rectangle-path" x="21.5111111" y="11.7391304" width="1.95555556" height="1.95652174"></rect>
                <rect id="Rectangle-path" x="18.5777778" y="11.7391304" width="1.95555556" height="1.95652174"></rect>
                <rect id="Rectangle-path" x="15.6444444" y="11.7391304" width="1.95555556" height="1.95652174"></rect>
                <rect id="Rectangle-path" x="12.7111111" y="11.7391304" width="1.95555556" height="1.95652174"></rect>
                <rect id="Rectangle-path" x="24.4444444" y="11.7391304" width="1.95555556" height="1.95652174"></rect>
                <rect id="Rectangle-path" x="27.3777778" y="11.7391304" width="1.95555556" height="1.95652174"></rect>
                <rect id="Rectangle-path" x="30.3111111" y="11.7391304" width="1.95555556" height="1.95652174"></rect>
                <rect id="Rectangle-path" x="9.77777778" y="11.7391304" width="1.95555556" height="1.95652174"></rect>
                <rect id="Rectangle-path" x="33.2444444" y="11.7391304" width="1.95555556" height="1.95652174"></rect>
                <rect id="Rectangle-path" x="12.7111111" y="14.673913" width="1.95555556" height="1.95652174"></rect>
                <rect id="Rectangle-path" x="30.3111111" y="14.673913" width="1.95555556" height="1.95652174"></rect>
                <rect id="Rectangle-path" x="9.77777778" y="14.673913" width="1.95555556" height="1.95652174"></rect>
                <rect id="Rectangle-path" x="33.2444444" y="14.673913" width="1.95555556" height="1.95652174"></rect>
                <rect id="Rectangle-path" x="16.6222222" y="2.93478261" width="2.93333333" height="1.95652174"></rect>
                <rect id="Rectangle-path" x="24.4444444" y="2.93478261" width="2.93333333" height="1.95652174"></rect>
                <rect id="Rectangle-path" x="13.6888889" y="1.95652174" width="1.95555556" height="4.89130435"></rect>
                <rect id="Rectangle-path" x="28.3555556" y="1.95652174" width="1.95555556" height="4.89130435"></rect>
                <rect id="Rectangle-path" x="10.7555556" y="1.95652174" width="1.95555556" height="4.89130435"></rect>
                <rect id="Rectangle-path" x="31.2888889" y="1.95652174" width="1.95555556" height="4.89130435"></rect>
            </g>
        </g>
    </g>
</svg>