<?xml version="1.0" encoding="UTF-8"?>
<svg width="37px" height="45px" viewBox="0 0 37 45" version="1.1" xmlns="http://www.w3.org/2000/svg" xmlns:xlink="http://www.w3.org/1999/xlink">
    <!-- Generator: Sketch 49 (51002) - http://www.bohemiancoding.com/sketch -->
    <title>002-earth-globe</title>
    <desc>Created with Sketch.</desc>
    <defs></defs>
    <g id="Page-1" stroke="none" stroke-width="1" fill="none" fill-rule="evenodd">
        <g id="Hype-Tur---XL" transform="translate(-760.000000, -3119.000000)" fill="#5B4E5C" fill-rule="nonzero">
            <g id="002-earth-globe" transform="translate(760.000000, 3119.000000)">
                <path d="M31.2010648,43.4716242 L30.889057,43.4716242 C30.5550984,41.8382484 29.1028005,40.6053822 27.3668679,40.6053822 L21.1362979,40.6053822 L21.1362979,39.1012739 C23.5042979,39.0202548 25.8977953,38.5244904 28.2123083,37.5689809 C28.3884896,37.4962739 28.5284378,37.3567834 28.6013834,37.1811783 C28.6744249,37.0055732 28.6744249,36.8082803 28.6013834,36.6326752 L28.2345466,35.7500637 C28.0826166,35.3844268 27.6620052,35.2107325 27.2952642,35.3622611 C26.9284275,35.5136943 26.7541632,35.9329299 26.9061891,36.2984713 L26.9926503,36.5067516 C25.0675959,37.2184395 23.093272,37.5964013 21.1362021,37.668535 L21.1362021,37.4421019 C21.1362021,37.0463694 20.8144171,36.7255414 20.4172902,36.7255414 C20.0201632,36.7255414 19.6983782,37.0463694 19.6983782,37.4421019 L19.6983782,37.6658599 C12.5420415,37.3838217 5.84274093,33.0490127 2.92693005,26.0328344 C-0.975611399,16.6419745 3.3212772,5.86977707 12.5135725,1.66538217 L12.6001295,1.87366242 C12.7520596,2.23929936 13.1723834,2.41299363 13.5394119,2.26146497 C13.9062487,2.11003185 14.080513,1.69079618 13.928487,1.32525478 L13.5616503,0.442547771 C13.4097202,0.0768152866 12.9892047,-0.0967834395 12.6223679,0.0547452229 C2.24588083,4.33882166 -2.69937047,16.2385987 1.59876425,26.5813376 C4.74357254,34.1488854 11.9775518,38.8181847 19.6984741,39.1009873 L19.6984741,40.6053822 L13.4679041,40.6053822 C11.7319715,40.6053822 10.2796736,41.8382484 9.94571503,43.4716242 L9.63370725,43.4716242 C9.23658031,43.4716242 8.91479534,43.7924522 8.91479534,44.1881847 C8.91479534,44.5839172 9.23658031,44.9047452 9.63370725,44.9047452 L31.2010648,44.9047452 C31.5981917,44.9047452 31.9199767,44.5839172 31.9199767,44.1881847 C31.9199767,43.7924522 31.5981917,43.4716242 31.2010648,43.4716242 Z M13.4679041,42.0385032 L27.3668679,42.0385032 C28.3040415,42.0385032 29.1031839,42.6376433 29.3999508,43.4716242 L11.4348212,43.4716242 C11.7316839,42.6375478 12.5307306,42.0385032 13.4679041,42.0385032 Z" id="Shape"></path>
                <path d="M35.3047098,25.9642357 C37.2766373,21.8810828 37.5664067,17.0111465 35.693785,12.5049363 C33.1242979,6.32197452 27.125601,2.32691083 20.4112513,2.32691083 C18.2395622,2.32691083 16.1127332,2.75044586 14.0898109,3.58557325 C10.0093627,5.27025478 6.83129275,8.43792994 5.14117876,12.5049363 C3.45096891,16.5720382 3.45106477,21.0517834 5.14127461,25.1188854 C7.7106658,31.3018471 13.7094585,35.2969108 20.4238083,35.2969108 C22.5954974,35.2969108 24.7223264,34.8734713 26.7452487,34.0382484 C30.5806917,32.4547452 33.501487,29.5892675 35.2165233,26.1452866 C35.2509352,26.0943631 35.2798834,26.0386624 35.3008756,25.9778025 C35.3023135,25.9733121 35.303272,25.9687261 35.3047098,25.9642357 Z M34.229601,24.868758 C33.0288264,24.5105732 31.7991036,24.2919745 30.5635337,24.2120064 C30.4972021,23.3444904 30.377,22.4450637 30.2027358,21.522707 C30.1293109,21.133758 29.7529845,20.8780892 29.3632383,20.9510828 C28.9731088,21.0243631 28.7163135,21.3989809 28.7898342,21.7878344 C28.9456943,22.6132166 29.0534352,23.4133758 29.1166036,24.1819108 C27.3268005,24.2228025 25.5440907,24.5533758 23.8388316,25.1724841 L21.3566684,19.1996178 L27.3263212,16.7350318 C27.6273057,17.5093949 27.8964663,18.2932166 28.1283394,19.0734076 C28.2412565,19.4528025 28.6409715,19.669586 29.021899,19.5569427 C29.4025389,19.444586 29.6196503,19.0457962 29.5070207,18.6664013 C29.2609611,17.8386306 28.9749301,17.0073248 28.6549663,16.1866242 L34.6243316,13.7221338 C35.9787617,17.4711783 35.7397953,21.4455096 34.229601,24.868758 Z M14.0583705,22.2128981 L20.0284067,19.748121 L22.5105699,25.7208917 C20.8644534,26.485414 19.3684456,27.5091401 18.073158,28.7427707 C16.5415881,26.9444904 15.1625233,24.7081529 14.0583705,22.2128981 Z M26.7764974,15.4109236 L20.8064611,17.8757006 L18.3242979,11.9029299 C19.9704145,11.1384076 21.4664223,10.1146815 22.7617098,8.88105096 C24.2933756,10.6793312 25.6724404,12.9156688 26.7764974,15.4109236 Z M11.6886451,10.6970064 C11.8765207,8.06216561 12.6912876,6.16643312 14.0060337,5.25630573 L16.4452539,11.1258917 C14.8946088,11.6817516 13.2747565,11.9765924 11.6489611,12.0098408 C11.6454145,11.5620382 11.6581632,11.1236943 11.6886451,10.6970064 Z M17.7736114,10.5774841 L15.3343912,4.70789809 C16.9101503,4.42471338 18.8307953,5.19105096 20.8329171,6.92178344 C21.1570984,7.20200637 21.477158,7.50296178 21.792329,7.82207006 C20.6189689,8.9443949 19.2643472,9.87764331 17.7736114,10.5774841 Z M16.9958446,12.4507643 L19.4781995,18.4241083 L13.5081632,20.8888854 C12.5187487,18.3466242 11.9074819,15.7935669 11.7145259,13.4425796 C13.505671,13.4019745 15.2894352,13.0702548 16.9958446,12.4507643 Z M26.8274922,32.3640764 L24.389614,26.4978344 C25.9393005,25.9423567 27.5580984,25.6475159 29.1828394,25.6139809 C29.2085285,28.811465 28.3704689,31.2822611 26.8274922,32.3640764 Z M23.0613523,27.0463376 L25.5006684,32.9159236 C23.9251969,33.1990127 22.0042642,32.4327707 20.0021425,30.7020382 C19.6779611,30.4218153 19.3579016,30.1208599 19.0428264,29.8017516 C20.2159948,28.6793312 21.5706166,27.7461783 23.0613523,27.0463376 Z M34.0728782,12.3985032 L28.1049508,14.8624204 C26.9214301,12.181242 25.4276269,9.77426752 23.7610933,7.8422293 C24.5816114,6.91089172 25.2985104,5.88477707 25.8950155,4.77974522 C29.446057,6.15353503 32.3956088,8.84350318 34.0728782,12.3985032 Z M24.5074197,4.32124204 C24.0130959,5.20136943 23.4343238,6.02474522 22.7813601,6.78124204 C22.4508523,6.44808917 22.1150725,6.13328025 21.7748834,5.83910828 C20.7544119,4.95697452 19.7354741,4.2927707 18.7439508,3.85328025 C19.2957876,3.79184713 19.851842,3.75993631 20.4113472,3.75993631 C21.8215648,3.76003185 23.1964119,3.95522293 24.5074197,4.32124204 Z M10.9904378,7.05085987 C10.6001166,8.06130573 10.3503187,9.2506051 10.2543679,10.5954459 C10.2224482,11.0432484 10.2083575,11.5024204 10.2110415,11.9709554 C9.2140544,11.8963376 8.22205181,11.7223567 7.24941192,11.4491083 C8.20585233,9.74178344 9.47439637,8.25449045 10.9904378,7.05085987 Z M6.46953627,13.0533439 C6.51132902,12.9526433 6.55465544,12.8528981 6.59846114,12.7534395 C7.8012487,13.1127707 9.03327202,13.3320382 10.2709508,13.4121019 C10.4632358,15.9527389 11.1145699,18.7073885 12.1797098,21.437293 L6.21015285,23.901879 C4.93211917,20.3701911 5.01829275,16.5452866 6.46953627,13.0533439 Z M6.76208549,25.2253185 L12.730013,22.7614013 C13.9135337,25.4425796 15.4073368,27.8495541 17.0738705,29.7815924 C16.2533523,30.7129299 15.5364534,31.7390446 14.9399482,32.844172 C11.3888109,31.4702866 8.43925907,28.7802229 6.76208549,25.2253185 Z M16.327544,33.3025796 C16.8218679,32.4224522 17.4006399,31.5990764 18.0535078,30.8425796 C18.3840155,31.1757325 18.7197953,31.4905414 19.0599845,31.7847134 C20.0810311,32.6674204 21.100544,33.3308599 22.0927383,33.7702548 C21.5403264,33.8317834 20.9836969,33.8637898 20.4236166,33.8637898 C19.013399,33.8637898 17.6385518,33.6685987 16.327544,33.3025796 Z M29.8441425,30.5669427 C29.9899378,30.1889809 30.1167539,29.7857962 30.223057,29.3578662 C30.499215,28.2464331 30.6321658,26.9981847 30.6236347,25.6527707 C31.6181295,25.7271975 32.6076399,25.900414 33.5778834,26.1725159 C32.6401347,27.8423885 31.3809845,29.3415287 29.8441425,30.5669427 Z" id="Shape"></path>
            </g>
        </g>
    </g>
</svg>