<?xml version="1.0" encoding="UTF-8"?>
<svg width="56px" height="45px" viewBox="0 0 56 45" version="1.1" xmlns="http://www.w3.org/2000/svg" xmlns:xlink="http://www.w3.org/1999/xlink">
    <!-- Generator: Sketch 49 (51002) - http://www.bohemiancoding.com/sketch -->
    <title>006-resort</title>
    <desc>Created with Sketch.</desc>
    <defs></defs>
    <g id="Page-1" stroke="none" stroke-width="1" fill="none" fill-rule="evenodd">
        <g id="Hype-Tur---XL" transform="translate(-464.000000, -2775.000000)" fill="#5B4E5C" fill-rule="nonzero">
            <g id="006-resort" transform="translate(464.000000, 2775.000000)">
                <path d="M33.014212,36.6 L23.5815326,36.6 C23.0608909,36.6 22.6382979,37.0171617 22.6382979,37.533309 L22.6382979,44.066691 C22.6382979,44.5828383 23.0608909,45 23.5815326,45 L33.014212,45 C33.5358486,45 33.9574468,44.5828383 33.9574468,44.066691 L33.9574468,37.533309 C33.9574468,37.0171617 33.5358486,36.6 33.014212,36.6 Z M32.0708667,43.1333819 L24.5246569,43.1333819 L24.5246569,38.4666181 L32.0708667,38.4666181 L32.0708667,43.1333819 Z" id="Shape"></path>
                <rect id="Rectangle-path" x="27.4042553" y="37.2" width="1.78723404" height="6.6"></rect>
                <path d="M37.2068897,0 L18.7930024,0 C18.2848203,0 17.8723404,0.42000835 17.8723404,0.937465668 L17.8723404,44.0625343 C17.8723404,44.5809804 18.2848203,45 18.7930024,45 L37.2069976,45 C37.7161507,45 38.1276596,44.5809804 38.1276596,44.0625343 L38.1276596,0.937465668 C38.1276596,0.42000835 37.7160428,0 37.2068897,0 Z M36.2862277,43.1250687 L19.7136644,43.1250687 L19.7136644,1.8750412 L36.2862277,1.8750412 L36.2862277,43.1250687 Z" id="Shape"></path>
                <path d="M18.7064165,3.6 L11.0808176,3.6 C10.5546985,3.6 10.1276596,4.02153537 10.1276596,4.54087401 L10.1276596,44.059126 C10.1276596,44.579457 10.5546985,45 11.0808176,45 L18.7064165,45 C19.2325356,45 19.6595745,44.579457 19.6595745,44.059126 L19.6595745,4.54087401 C19.6595745,4.02153537 19.2325356,3.6 18.7064165,3.6 Z M17.7531468,43.118252 L12.0339755,43.118252 L12.0339755,5.48185828 L17.7531468,5.48185828 L17.7531468,43.118252 Z" id="Shape"></path>
                <rect id="Rectangle-path" x="8.34042553" y="3.6" width="2.38297872" height="1.8"></rect>
                <rect id="Rectangle-path" x="16.0851064" y="0" width="24.4255319" height="1.8"></rect>
                <rect id="Rectangle-path" x="21.4468085" y="31.8" width="1.78723404" height="2.4"></rect>
                <rect id="Rectangle-path" x="25.0212766" y="31.8" width="1.78723404" height="2.4"></rect>
                <rect id="Rectangle-path" x="28.5957447" y="31.8" width="1.78723404" height="2.4"></rect>
                <rect id="Rectangle-path" x="32.7659574" y="31.8" width="1.78723404" height="2.4"></rect>
                <rect id="Rectangle-path" x="21.4468085" y="27.6" width="1.78723404" height="2.4"></rect>
                <rect id="Rectangle-path" x="25.0212766" y="27.6" width="1.78723404" height="2.4"></rect>
                <rect id="Rectangle-path" x="28.5957447" y="27.6" width="1.78723404" height="2.4"></rect>
                <rect id="Rectangle-path" x="32.7659574" y="27.6" width="1.78723404" height="2.4"></rect>
                <rect id="Rectangle-path" x="21.4468085" y="22.8" width="1.78723404" height="2.4"></rect>
                <rect id="Rectangle-path" x="25.0212766" y="22.8" width="1.78723404" height="2.4"></rect>
                <rect id="Rectangle-path" x="28.5957447" y="22.8" width="1.78723404" height="2.4"></rect>
                <rect id="Rectangle-path" x="32.7659574" y="22.8" width="1.78723404" height="2.4"></rect>
                <rect id="Rectangle-path" x="21.4468085" y="17.4" width="1.78723404" height="2.4"></rect>
                <rect id="Rectangle-path" x="25.0212766" y="17.4" width="1.78723404" height="2.4"></rect>
                <rect id="Rectangle-path" x="28.5957447" y="17.4" width="1.78723404" height="2.4"></rect>
                <rect id="Rectangle-path" x="32.7659574" y="17.4" width="1.78723404" height="2.4"></rect>
                <rect id="Rectangle-path" x="21.4468085" y="13.2" width="1.78723404" height="2.4"></rect>
                <rect id="Rectangle-path" x="25.0212766" y="13.2" width="1.78723404" height="2.4"></rect>
                <rect id="Rectangle-path" x="28.5957447" y="13.2" width="1.78723404" height="2.4"></rect>
                <rect id="Rectangle-path" x="32.7659574" y="13.2" width="1.78723404" height="2.4"></rect>
                <rect id="Rectangle-path" x="21.4468085" y="8.4" width="1.78723404" height="2.4"></rect>
                <rect id="Rectangle-path" x="25.0212766" y="8.4" width="1.78723404" height="2.4"></rect>
                <rect id="Rectangle-path" x="28.5957447" y="8.4" width="1.78723404" height="2.4"></rect>
                <rect id="Rectangle-path" x="32.7659574" y="8.4" width="1.78723404" height="2.4"></rect>
                <rect id="Rectangle-path" x="21.4468085" y="3.6" width="1.78723404" height="2.4"></rect>
                <rect id="Rectangle-path" x="25.0212766" y="3.6" width="1.78723404" height="2.4"></rect>
                <rect id="Rectangle-path" x="28.5957447" y="3.6" width="1.78723404" height="2.4"></rect>
                <rect id="Rectangle-path" x="32.7659574" y="3.6" width="1.78723404" height="2.4"></rect>
                <rect id="Rectangle-path" x="13.7021277" y="36.6" width="1.78723404" height="2.4"></rect>
                <rect id="Rectangle-path" x="13.7021277" y="31.8" width="1.78723404" height="2.4"></rect>
                <rect id="Rectangle-path" x="13.7021277" y="27.6" width="1.78723404" height="2.4"></rect>
                <rect id="Rectangle-path" x="13.7021277" y="22.8" width="1.78723404" height="2.4"></rect>
                <rect id="Rectangle-path" x="13.7021277" y="17.4" width="1.78723404" height="2.4"></rect>
                <rect id="Rectangle-path" x="13.7021277" y="13.2" width="1.78723404" height="2.4"></rect>
                <rect id="Rectangle-path" x="13.7021277" y="8.4" width="1.78723404" height="2.4"></rect>
                <path d="M44.9191824,3.6 L37.2935835,3.6 C36.7664591,3.6 36.3404255,4.02153537 36.3404255,4.54087401 L36.3404255,44.059126 C36.3404255,44.579457 36.7664591,45 37.2935835,45 L44.9191824,45 C45.4463068,45 45.8723404,44.579457 45.8723404,44.059126 L45.8723404,4.54087401 C45.8723404,4.02153537 45.4463068,3.6 44.9191824,3.6 Z M43.9660245,43.118252 L38.2468532,43.118252 L38.2468532,5.48185828 L43.9660245,5.48185828 L43.9660245,43.118252 Z" id="Shape"></path>
                <rect id="Rectangle-path" x="44.6808511" y="3.6" width="2.38297872" height="1.8"></rect>
                <rect id="Rectangle-path" x="39.9148936" y="36.6" width="1.78723404" height="2.4"></rect>
                <rect id="Rectangle-path" x="39.9148936" y="31.8" width="1.78723404" height="2.4"></rect>
                <rect id="Rectangle-path" x="39.9148936" y="27.6" width="1.78723404" height="2.4"></rect>
                <rect id="Rectangle-path" x="39.9148936" y="22.8" width="1.78723404" height="2.4"></rect>
                <rect id="Rectangle-path" x="39.9148936" y="17.4" width="1.78723404" height="2.4"></rect>
                <rect id="Rectangle-path" x="39.9148936" y="13.2" width="1.78723404" height="2.4"></rect>
                <rect id="Rectangle-path" x="39.9148936" y="8.4" width="1.78723404" height="2.4"></rect>
                <rect id="Rectangle-path" x="0" y="43.2" width="11.3191489" height="1.8"></rect>
                <rect id="Rectangle-path" x="44.6808511" y="43.2" width="11.3191489" height="1.8"></rect>
                <rect id="Rectangle-path" x="3.57446809" y="24.6" width="1.78723404" height="19.8"></rect>
                <rect id="Rectangle-path" transform="translate(4.468085, 29.400000) rotate(-53.130102) translate(-4.468085, -29.400000) " x="3.57446809" y="24.6" width="1.78723404" height="9.6"></rect>
                <rect id="Rectangle-path" transform="translate(4.765957, 29.100000) rotate(-36.882502) translate(-4.765957, -29.100000) " x="0" y="28.2" width="9.53191489" height="1.8"></rect>
                <rect id="Rectangle-path" x="50.6382979" y="24.6" width="1.78723404" height="19.8"></rect>
                <rect id="Rectangle-path" transform="translate(51.531915, 29.400000) rotate(-53.130102) translate(-51.531915, -29.400000) " x="50.6382979" y="24.6" width="1.78723404" height="9.6"></rect>
                <rect id="Rectangle-path" transform="translate(51.234043, 29.100000) rotate(-36.857292) translate(-51.234043, -29.100000) " x="46.4680851" y="28.2" width="9.53191489" height="1.8"></rect>
            </g>
        </g>
    </g>
</svg>