<?xml version="1.0" encoding="UTF-8"?>
<svg width="33px" height="45px" viewBox="0 0 33 45" version="1.1" xmlns="http://www.w3.org/2000/svg" xmlns:xlink="http://www.w3.org/1999/xlink">
    <!-- Generator: Sketch 49 (51002) - http://www.bohemiancoding.com/sketch -->
    <title>005-ball</title>
    <desc>Created with Sketch.</desc>
    <defs></defs>
    <g id="Page-1" stroke="none" stroke-width="1" fill="none" fill-rule="evenodd">
        <g id="Hype-Tur---XL" transform="translate(-475.000000, -3119.000000)" fill="#5B4E5C" fill-rule="nonzero">
            <g id="005-ball" transform="translate(475.000000, 3119.000000)">
                <rect id="Rectangle-path" x="24.4285714" y="23.7980769" width="1.28571429" height="1.29807692"></rect>
                <path d="M30.3772174,0 L25.5793043,0 C24.1330435,0 22.9565217,1.19032258 22.9565217,2.65354839 C22.9565217,2.73846774 22.971587,2.81975806 22.9794783,2.90322581 L22.9565217,2.90322581 L22.9565217,8.70967742 L12.9130435,8.70967742 L12.9130435,5.01387097 C13.1770435,5.15032258 13.4661522,5.24758065 13.7753478,5.28604839 L17.7281739,5.78540323 C17.8357826,5.79991935 17.9448261,5.80645161 18.0538696,5.80645161 L18.8996739,5.80645161 C20.3452174,5.80645161 21.5217391,4.61612903 21.5217391,3.15290323 L21.5217391,2.65354839 C21.5217391,1.19032258 20.3452174,0 18.8989565,0 L14.1010435,0 C12.6547826,0 11.4782609,1.19032258 11.4782609,2.65354839 C11.4782609,2.73846774 11.4933261,2.81975806 11.5012174,2.90322581 L11.4782609,2.90322581 L11.4782609,8.70967742 L10.0434783,8.70967742 L10.0434783,2.90322581 L10.0205217,2.90322581 C10.028413,2.81975806 10.0434783,2.73846774 10.0434783,2.65354839 C10.0434783,1.19032258 8.86695652,0 7.42069565,0 L2.62278261,0 C1.17652174,0 0,1.19032258 0,2.65354839 L0,3.15290323 C0,4.61612903 1.17652174,5.80645161 2.62278261,5.80645161 L3.46858696,5.80645161 C3.57763043,5.80645161 3.68595652,5.79991935 3.79428261,5.78612903 L7.7471087,5.28677419 C8.05558696,5.24685484 8.34469565,5.15032258 8.60869565,5.01387097 L8.60869565,8.70967742 L7.89130435,8.70967742 C6.94004348,8.70967742 6.14015217,9.34112903 5.85678261,10.2084677 C3.76702174,10.5053226 2.15217391,12.3212903 2.15217391,14.516129 L2.15217391,35.5645161 C2.15217391,37.7179839 3.70676087,39.506371 5.73913043,39.8540323 L5.73913043,39.9193548 C5.73913043,40.8643548 6.34102174,41.6627419 7.17391304,41.9632258 L7.17391304,45 L24.3913043,45 L24.3913043,41.9632258 C25.2241957,41.6627419 25.826087,40.8643548 25.826087,39.9193548 L25.826087,34.1129032 L26.5434783,34.1129032 C27.7300435,34.1129032 28.6956522,33.1359677 28.6956522,31.9354839 L28.6956522,16.6935484 L25.826087,16.6935484 L25.826087,10.8870968 C25.826087,9.94209677 25.2241957,9.14370968 24.3913043,8.84322581 L24.3913043,5.01387097 C24.6553043,5.15032258 24.944413,5.24758065 25.2536087,5.28604839 L29.2064348,5.78540323 C29.3140435,5.79991935 29.423087,5.80645161 29.5321304,5.80645161 L30.3779348,5.80645161 C31.8234783,5.80645161 33,4.61612903 33,3.15290323 L33,2.65354839 C33,1.19032258 31.8234783,0 30.3772174,0 Z M14.1010435,1.4516129 L18.8989565,1.4516129 C19.5539348,1.4516129 20.0869565,1.9908871 20.0869565,2.65354839 L20.0869565,3.15290323 C20.0869565,3.81556452 19.5539348,4.35483871 18.8989565,4.35483871 L18.0531522,4.35483871 C18.0036522,4.35483871 17.9548696,4.35193548 17.9053696,4.34540323 L13.9532609,3.84604839 C13.3606957,3.77056452 12.9130435,3.25814516 12.9130435,2.65354839 C12.9130435,1.9908871 13.4460652,1.4516129 14.1010435,1.4516129 Z M5.73913043,38.3646774 C4.50521739,38.0402419 3.58695652,36.9130645 3.58695652,35.5645161 L3.58695652,14.516129 C3.58695652,13.1675806 4.50521739,12.0404032 5.73913043,11.7159677 L5.73913043,38.3646774 Z M7.56776087,3.84604839 L3.61565217,4.34540323 C3.56686957,4.35193548 3.51736957,4.35483871 3.46786957,4.35483871 L2.62206522,4.35483871 C1.96780435,4.35483871 1.43478261,3.81556452 1.43478261,3.15290323 L1.43478261,2.65354839 C1.43478261,1.9908871 1.96780435,1.4516129 2.62278261,1.4516129 L7.42069565,1.4516129 C8.07567391,1.4516129 8.60869565,1.9908871 8.60869565,2.65354839 C8.60869565,3.25814516 8.16104348,3.77056452 7.56776087,3.84604839 Z M7.17391304,10.8870968 C7.17391304,10.4871774 7.49602174,10.1612903 7.89130435,10.1612903 L23.673913,10.1612903 C24.0691957,10.1612903 24.3913043,10.4871774 24.3913043,10.8870968 L24.3913043,13.0645161 L7.17391304,13.0645161 L7.17391304,10.8870968 Z M22.9565217,43.5483871 L8.60869565,43.5483871 L8.60869565,42.0967742 L22.9565217,42.0967742 L22.9565217,43.5483871 Z M24.3913043,39.9193548 C24.3913043,40.3192742 24.0691957,40.6451613 23.673913,40.6451613 L7.89130435,40.6451613 C7.49602174,40.6451613 7.17391304,40.3192742 7.17391304,39.9193548 L7.17391304,14.516129 L24.3913043,14.516129 L24.3913043,16.6935484 L21.5217391,16.6935484 L21.5217391,31.9354839 C21.5217391,33.1359677 22.4873478,34.1129032 23.673913,34.1129032 L24.3913043,34.1129032 L24.3913043,39.9193548 Z M27.2608696,31.9354839 C27.2608696,32.3354032 26.9387609,32.6612903 26.5434783,32.6612903 L23.673913,32.6612903 C23.2786304,32.6612903 22.9565217,32.3354032 22.9565217,31.9354839 L22.9565217,22.5 L27.2608696,22.5 L27.2608696,31.9354839 Z M27.2608696,18.1451613 L27.2608696,21.0483871 L22.9565217,21.0483871 L22.9565217,18.1451613 L27.2608696,18.1451613 Z M31.5652174,3.15290323 C31.5652174,3.81556452 31.0321957,4.35483871 30.3772174,4.35483871 L29.531413,4.35483871 C29.481913,4.35483871 29.4331304,4.35193548 29.3836304,4.34540323 L25.4315217,3.84604839 C24.8389565,3.77056452 24.3913043,3.25814516 24.3913043,2.65354839 C24.3913043,1.9908871 24.9243261,1.4516129 25.5793043,1.4516129 L30.3772174,1.4516129 C31.0321957,1.4516129 31.5652174,1.9908871 31.5652174,2.65354839 L31.5652174,3.15290323 Z" id="Shape"></path>
                <rect id="Rectangle-path" x="21.4285714" y="37.6442308" width="1.28571429" height="1.29807692"></rect>
                <rect id="Rectangle-path" x="18.8571429" y="37.6442308" width="1.28571429" height="1.29807692"></rect>
                <rect id="Rectangle-path" x="15.8571429" y="37.6442308" width="1.28571429" height="1.29807692"></rect>
            </g>
        </g>
    </g>
</svg>