<?xml version="1.0" encoding="UTF-8"?>
<svg width="57px" height="29px" viewBox="0 0 57 29" version="1.1" xmlns="http://www.w3.org/2000/svg" xmlns:xlink="http://www.w3.org/1999/xlink">
    <!-- Generator: Sketch 49 (51002) - http://www.bohemiancoding.com/sketch -->
    <title>009-transport</title>
    <desc>Created with Sketch.</desc>
    <defs></defs>
    <g id="Page-1" stroke="none" stroke-width="1" fill="none" fill-rule="evenodd">
        <g id="Hype-Tur---XL" transform="translate(-750.000000, -2574.000000)" fill="#5B4E5C" fill-rule="nonzero">
            <g id="009-transport" transform="translate(750.000000, 2574.000000)">
                <path d="M11,17 C7.69281683,17 5,19.6927916 5,22.9999438 C5,26.3070959 7.69281683,29 11,29 C14.3071832,29 17,26.3072084 17,23.0000562 C17,19.6929041 14.3071832,17 11,17 Z M11,26.600045 C9.01515009,26.600045 7.3999775,24.9848875 7.3999775,23.0000562 C7.3999775,21.015225 9.01515009,19.4000675 11,19.4000675 C12.9848499,19.4000675 14.6000225,21.015225 14.6000225,23.0000562 C14.6000225,24.984775 12.9848499,26.600045 11,26.600045 Z" id="Shape"></path>
                <path d="M47,17 C43.6928168,17 41,19.6927916 41,22.9999438 C41,26.3070959 43.6928168,29 47,29 C50.3071832,29 53,26.3072084 53,23.0000562 C53,19.6929041 50.3071832,17 47,17 Z M47,26.600045 C45.0151501,26.600045 43.3999775,24.9848875 43.3999775,23.0000562 C43.3999775,21.015225 45.0151501,19.4000675 47,19.4000675 C48.9848499,19.4000675 50.6000225,21.015225 50.6000225,23.0000562 C50.6000225,24.984775 48.9848499,26.600045 47,26.600045 Z" id="Shape"></path>
                <path d="M49.875,9.5999775 L47.86575,9.5999775 C47.131875,9.5999775 46.41225,9.3456146 45.8374629,8.87997637 L36.48,1.31512705 C35.4302871,0.468000731 34.1121621,0 32.7702129,0 L15.60375,0 C13.6135371,0 11.7681621,0.99843906 10.6637871,2.67120417 L8.642625,5.73840897 C8.037,6.6528104 7.02525,7.20001125 5.93746289,7.20001125 C2.66475,7.20001125 0,9.89281546 0,13.1999831 L0,18.0000281 C0,21.3071958 2.66475,24 5.93746289,24 C6.59296289,24 7.125,23.4623617 7.125,22.7999606 C7.125,22.1375596 6.59296289,21.6000338 5.93746289,21.6000338 C3.97330078,21.6000338 2.37496289,19.9848687 2.37496289,18.0000281 L2.37496289,13.1999831 C2.37496289,11.2151425 3.97330078,9.5999775 5.93746289,9.5999775 C7.82325,9.5999775 9.57121289,8.65441352 10.6185879,7.06793604 L12.63975,4.00309375 C13.302375,2.99992969 14.4115371,2.39985375 15.60375,2.39985375 L32.7702129,2.39985375 C33.5776758,2.39985375 34.3662129,2.68065419 34.998,3.18949248 L44.3554629,10.7518668 C45.3458379,11.5559056 46.5950508,11.9998312 47.8680879,11.9998312 L49.875,11.9998312 C53.359125,11.9998312 54.6250371,15.5877994 54.6250371,17.9998031 C54.6250371,20.3637693 53.8343242,21.5998087 52.0625371,21.5998087 C51.4070371,21.5998087 50.875,22.1374471 50.875,22.7998481 C50.875,23.4622492 51.4070371,23.9998875 52.0625371,23.9998875 C55.4469121,24 57,21.4200335 57,18.0000281 C57,13.9271843 54.5039121,9.5999775 49.875,9.5999775 Z" id="Shape"></path>
                <path d="M41.7915203,22 L16.2083664,22 C15.541369,22 15,22.4480172 15,23 C15,23.5519828 15.541369,24 16.2083664,24 L41.7916336,24 C42.458631,24 43,23.5519828 43,23 C43,22.4480172 42.4585177,22 41.7915203,22 Z" id="Shape"></path>
                <path d="M38.833306,9.66663021 L28.333388,9.66663021 L28.333388,6.1666849 C28.333388,5.52269496 27.810689,5 27.166694,5 C26.522699,5 26,5.52269496 26,6.1666849 L26,10.8333151 C26,11.477305 26.522699,12 27.166694,12 L38.833306,12 C39.477301,12 40,11.477305 40,10.8333151 C40,10.1893252 39.477301,9.66663021 38.833306,9.66663021 Z" id="Shape"></path>
                <path d="M22.8000532,9.66644689 L15.1414764,9.66644689 L16.6751043,6.68896263 C16.9703097,6.11262949 16.7303428,5.41258543 16.137457,5.12316097 C15.5422087,4.8361429 14.8246707,5.06715744 14.5269902,5.64589699 L12.1269841,10.3128938 C11.9397807,10.6722133 11.9613811,11.1039436 12.1797476,11.4469652 C12.398114,11.7899868 12.7845586,12 13.1998036,12 L22.7999407,12 C23.4623527,12 24,11.477264 24,10.8332234 C24,10.1891829 23.4624652,9.66644689 22.8000532,9.66644689 Z" id="Shape"></path>
                <path d="M31.7499707,14 L29.2500293,14 C28.5600347,14 28,14.4480172 28,15 C28,15.5519828 28.5600347,16 29.2500293,16 L31.7499707,16 C32.4399653,16 33,15.5519828 33,15 C33,14.4480172 32.4399653,14 31.7499707,14 Z" id="Shape"></path>
            </g>
        </g>
    </g>
</svg>