<?xml version="1.0" encoding="UTF-8"?>
<svg width="50px" height="45px" viewBox="0 0 50 45" version="1.1" xmlns="http://www.w3.org/2000/svg" xmlns:xlink="http://www.w3.org/1999/xlink">
    <!-- Generator: Sketch 49 (51002) - http://www.bohemiancoding.com/sketch -->
    <title>church</title>
    <desc>Created with Sketch.</desc>
    <defs></defs>
    <g id="Page-1" stroke="none" stroke-width="1" fill="none" fill-rule="evenodd">
        <g id="Hype-Tur---XL" transform="translate(-467.000000, -2982.000000)" fill="#5B4E5C" fill-rule="nonzero">
            <g id="church" transform="translate(467.000000, 2982.000000)">
                <path d="M28.7480007,20.2298302 C28.1786728,19.6209701 27.4214224,19.2857143 26.6160134,19.2857143 C26.0349992,19.2857143 25.4793367,19.4600917 25.00086,19.7857774 C24.5223833,19.4600917 23.9665323,19.2857143 23.3856124,19.2857143 C22.5802033,19.2857143 21.8230471,19.6209701 21.2537192,20.2297295 C20.6841086,20.8383881 20.3703704,21.6478175 20.3703704,22.5087239 C20.3703704,23.3696303 20.6840143,24.1790597 21.253625,24.787819 L24.484026,28.2405112 C24.6268056,28.3931291 24.8138799,28.4693878 25.0009542,28.4693878 C25.1881228,28.4693878 25.3751971,28.3930284 25.5179767,28.2405112 L28.7480007,24.7877183 C29.9235059,23.5310125 29.9235059,21.4863346 28.7480007,20.2298302 Z M27.7138615,23.6826231 L25.0007657,26.5827676 L22.2874815,23.6825224 C21.9940999,23.3689252 21.8324715,22.9520716 21.8324715,22.5086232 C21.83266,22.0652755 21.9941942,21.6484219 22.28767,21.3348247 C22.5809572,21.0212275 22.9708446,20.8486634 23.3856124,20.8486634 C23.8004744,20.8486634 24.1905502,21.0213282 24.4839317,21.3349254 C24.6210567,21.4814991 24.8070001,21.563802 25.0009542,21.563802 C25.1949083,21.563802 25.3807575,21.4813984 25.5178825,21.3348247 C25.8111697,21.0212275 26.2010571,20.8486634 26.6159191,20.8486634 C27.0306869,20.8486634 27.4205742,21.0213282 27.7138615,21.3349254 C28.3192849,21.9821667 28.3192849,23.0353819 27.7138615,23.6826231 Z" id="Shape"></path>
                <path d="M49.2422866,43.4864703 L46.9696348,43.4864703 L46.9696348,28.4462812 L47.9730508,28.8107145 C48.0585975,28.8417342 48.1459997,28.8564637 48.2318394,28.8564637 C48.5414091,28.8564637 48.8319359,28.6654679 48.9439474,28.3580993 C49.0869158,27.9653775 48.8840842,27.5311986 48.4909209,27.3883907 L37.3802981,23.3526042 C36.9869395,23.2097963 36.55237,23.4124976 36.4094015,23.8051218 C36.2664331,24.1978436 36.4692647,24.6320225 36.862428,24.7748304 L45.4545011,27.895827 L45.4545011,43.4863728 L34.8483694,43.4863728 L34.8483694,20.9133593 L35.6013953,21.5971594 C35.6056922,21.6011589 35.6104773,21.6044754 35.6148718,21.6083773 C35.6243445,21.6165712 35.6340124,21.62457 35.643778,21.6322761 C35.6533483,21.6397872 35.6630163,21.6469081 35.6727819,21.6539314 C35.6823522,21.6606621 35.6919225,21.6671978 35.7016881,21.6734407 C35.7125279,21.6803665 35.7234654,21.6869997 35.7345005,21.6933402 C35.7439732,21.6988028 35.7535435,21.7040703 35.7633091,21.7091427 C35.7750278,21.7151906 35.7869418,21.7208483 35.7989535,21.7263109 C35.8087191,21.730798 35.8185824,21.73509 35.8285433,21.7390894 C35.840848,21.7440643 35.8534456,21.7484539 35.8660432,21.7528435 C35.8761995,21.7562576 35.886258,21.7597693 35.8965119,21.7627932 C35.9095978,21.7665975 35.9228791,21.7698165 35.9361603,21.772938 C35.9462189,21.7753767 35.9561798,21.7779129 35.9664337,21.7798638 C35.9815703,21.7827902 35.9966094,21.7847411 36.0117461,21.7867896 C36.0205351,21.7879602 36.0291288,21.7894234 36.0380156,21.7903013 C36.0621366,21.7926424 36.0865506,21.7940081 36.1107693,21.7940081 L36.110867,21.7940081 L36.1109646,21.7940081 C36.1902613,21.7940081 36.2668237,21.7817172 36.3386009,21.7590864 C36.3421165,21.7579159 36.3455345,21.7564527 36.3488548,21.7552821 C36.3693626,21.7485514 36.389675,21.7412355 36.4094015,21.7327489 C36.4177023,21.7292373 36.4256124,21.7248477 36.4337179,21.7210434 C36.4482687,21.7141176 36.4629171,21.7073869 36.4769795,21.6995832 C36.4865498,21.6943156 36.4958272,21.6881702 36.5052021,21.682415 C36.5174091,21.6749039 36.5298115,21.6674904 36.5415302,21.659394 C36.5509052,21.652956 36.5598895,21.6458351 36.5689715,21.6389093 C36.5803973,21.6302277 36.5918231,21.6214485 36.6027605,21.612084 C36.611159,21.6048656 36.6192644,21.5973545 36.6273699,21.5898435 C36.6386003,21.5793085 36.6494401,21.5686759 36.6600846,21.5575556 C36.6636979,21.5536538 36.6677995,21.5503372 36.6714128,21.5463378 C36.6752213,21.5421433 36.6785416,21.5374611 36.6822526,21.533169 C36.6912369,21.5227316 36.700026,21.5121965 36.7085221,21.5012714 C36.7156509,21.492102 36.7225845,21.4829326 36.7292251,21.4734706 C36.7367447,21.4629356 36.7436782,21.452108 36.7507095,21.4412803 C36.7572524,21.4309404 36.7636001,21.420698 36.7695571,21.410163 C36.7757094,21.3994329 36.7812758,21.3885077 36.7869399,21.3773874 C36.7924086,21.3663647 36.797975,21.3552444 36.8030531,21.3440266 C36.8080336,21.3329063 36.8124281,21.3215909 36.8168226,21.310178 C36.8213148,21.29857 36.825807,21.286962 36.8296156,21.2751588 C36.8334242,21.2636484 36.8367445,21.2520403 36.8399671,21.2403348 C36.8432874,21.2281415 36.8467054,21.2159482 36.8494397,21.2036573 C36.8519788,21.1921469 36.8542249,21.1805388 36.856178,21.1688333 C36.8585218,21.1558596 36.8606702,21.1427884 36.8622327,21.1297172 C36.8635999,21.1184993 36.8645764,21.1072815 36.8654553,21.0959661 C36.8665296,21.082017 36.8672131,21.0679703 36.8676038,21.0540212 C36.8677014,21.0483635 36.868385,21.0429009 36.868385,21.0373408 L36.868385,17.0007739 C36.868385,16.9951162 36.8677014,16.9897511 36.8676038,16.984191 C36.8672131,16.9704369 36.8665296,16.9567804 36.8654553,16.943124 C36.8645764,16.9313208 36.8635999,16.9195177 36.862135,16.9078122 C36.8606702,16.8955213 36.8587171,16.8832305 36.856471,16.8709396 C36.8543226,16.8584537 36.8520765,16.8460653 36.8492444,16.833872 C36.8467054,16.8223615 36.8435804,16.8110462 36.8404554,16.7996332 C36.8370374,16.7872448 36.8336195,16.7748564 36.8296156,16.7627607 C36.8259046,16.7514453 36.8216078,16.7404226 36.8173109,16.7293023 C36.8129164,16.7176943 36.8084242,16.7060862 36.8034437,16.6946733 C36.7983656,16.6832604 36.7927992,16.6721401 36.7871352,16.6610198 C36.7817641,16.6503873 36.7764907,16.6398522 36.7706313,16.6295123 C36.7642837,16.6182945 36.7575454,16.6074669 36.7506118,16.5965417 C36.7442642,16.5866895 36.7380142,16.5767397 36.7312759,16.5671802 C36.7240494,16.5569378 36.7163345,16.5469881 36.7086197,16.5369408 C36.7009049,16.5270886 36.6930924,16.5172364 36.6849869,16.5077744 C36.6773698,16.4989953 36.6694596,16.4904112 36.6615495,16.4819247 C36.6518815,16.4717798 36.6422136,16.4619276 36.6320574,16.4522706 C36.6281511,16.4485638 36.6246355,16.4443693 36.6205339,16.4406625 L25.7575669,6.57628452 L25.7575669,3.63213958 L27.0201621,3.63213958 C27.4386183,3.63213958 27.7777778,3.29336099 27.7777778,2.87537474 C27.7777778,2.45748603 27.4386183,2.1186099 27.0201621,2.1186099 L25.7575669,2.1186099 L25.7575669,0.756764842 C25.7575669,0.338876136 25.4184074,0 24.9999512,0 C24.5815926,0 24.2423355,0.338778589 24.2423355,0.756764842 L24.2423355,2.11880499 L22.9797403,2.11880499 C22.5613817,2.11880499 22.2221246,2.45758358 22.2221246,2.87556983 C22.2221246,3.29345854 22.5612841,3.63233468 22.9797403,3.63233468 L24.2423355,3.63233468 L24.2423355,6.57647962 L13.3793684,16.4407601 C13.3752668,16.4444668 13.3717512,16.4486613 13.3676497,16.4525632 C13.3575911,16.4620252 13.3479231,16.4717798 13.3384505,16.4817296 C13.3303451,16.4903136 13.3223373,16.4989953 13.3147201,16.507872 C13.306517,16.517334 13.2988022,16.5270886 13.2910873,16.5370384 C13.2832748,16.5469881 13.2756577,16.5569378 13.2685288,16.5671802 C13.2616928,16.5768373 13.2554429,16.586787 13.2490952,16.5967367 C13.2422593,16.6075644 13.2354234,16.618392 13.2291734,16.6295123 C13.2232164,16.6399498 13.2178453,16.6505824 13.2124742,16.6613125 C13.2069078,16.6723352 13.2013414,16.6833579 13.1964586,16.6945758 C13.1912828,16.7060862 13.1867907,16.7178894 13.1822008,16.7296925 C13.1780993,16.7406177 13.1739001,16.7514453 13.1701891,16.7624681 C13.1660876,16.7748564 13.1625719,16.7874399 13.1590563,16.8000234 C13.156029,16.8111437 13.1530017,16.8221664 13.1504626,16.8333843 C13.1476306,16.8458702 13.1453845,16.8585512 13.1431384,16.8712323 C13.1410876,16.8832305 13.1391345,16.8951311 13.1376697,16.9072269 C13.1362048,16.9192251 13.1351306,16.9312233 13.134154,16.9434166 C13.1331775,16.9567804 13.1324939,16.9700468 13.1322009,16.9835082 C13.1320056,16.9892634 13.131322,16.9948235 13.131322,17.0005788 L13.131322,20.834932 C13.131322,20.8686831 13.1342517,20.9016537 13.1385486,20.9342342 C13.1092517,21.1484461 13.171361,21.3735831 13.3282943,21.5461427 C13.4778057,21.7104108 13.6829811,21.793813 13.8890354,21.793813 C14.070871,21.793813 14.2532925,21.7288471 14.3984094,21.5969644 L15.1515329,20.9130667 L15.1515329,43.4862752 L4.54530362,43.4862752 L4.54530362,27.895827 L13.1373767,24.7748304 C13.5306376,24.6320225 13.7334693,24.1978436 13.5904031,23.8051218 C13.447337,23.4123025 13.0125722,23.2096987 12.6196043,23.3526042 L1.50898143,27.3883907 C1.11572048,27.5311986 0.912888842,27.9653775 1.05595497,28.3580993 C1.16786881,28.6655655 1.45839559,28.8564637 1.7679653,28.8564637 C1.85390263,28.8564637 1.94140246,28.8417342 2.02685151,28.8107145 L3.03026752,28.4461837 L3.03026752,43.4864703 L0.757615708,43.4864703 C0.33925715,43.4864703 0,43.8252489 0,44.2432352 C0,44.6611239 0.339159494,45 0.757615708,45 L49.2423843,45 C49.6608405,45 50,44.6612214 50,44.2432352 C49.9999023,43.8252489 49.6607429,43.4864703 49.2422866,43.4864703 Z M14.6464558,19.3266698 L14.6464558,17.3354555 L24.9999512,7.93364245 L35.3533489,17.335358 L35.3533489,19.3266698 L25.5095205,10.3877144 C25.5090322,10.3872266 25.5085439,10.386934 25.5080556,10.3865438 C25.4932119,10.3731799 25.4777823,10.3608891 25.4621573,10.3488909 C25.4576651,10.3453792 25.4532706,10.3413798 25.4487784,10.3379657 C25.4331535,10.3264552 25.4170402,10.3162129 25.4007316,10.3061656 C25.3955559,10.3029466 25.3906731,10.2991422 25.3853996,10.2960208 C25.3716301,10.2879244 25.3572747,10.2809011 25.3431146,10.2736826 C25.3350091,10.2695857 25.327099,10.2649035 25.3188959,10.2610016 C25.3092279,10.2565145 25.2991693,10.2530028 25.2893061,10.2490034 C25.2763178,10.2435408 25.2633296,10.2377856 25.2500483,10.2331033 C25.2463374,10.2318352 25.2424312,10.2309573 25.2387202,10.2297868 C25.1960445,10.2156425 25.1523923,10.2049124 25.1083494,10.1985719 C25.105908,10.1981817 25.1032713,10.1981817 25.1008299,10.1977915 C25.0794432,10.1949627 25.0579589,10.1926216 25.0363769,10.1916461 C24.9225099,10.1861835 24.807764,10.2069609 24.7008307,10.2528077 C24.6942877,10.2556366 24.6876471,10.2578801 24.6811041,10.2608065 C24.6711432,10.2653912 24.6615729,10.2710489 24.6518073,10.2761213 C24.6393073,10.2825594 24.6267097,10.2886072 24.6146004,10.2958257 C24.6086433,10.2993373 24.6029793,10.3036294 24.5970223,10.3073361 C24.581495,10.3170908 24.5660653,10.3268454 24.5511239,10.3378682 C24.5462411,10.3414774 24.5415536,10.3457694 24.5367685,10.3495737 C24.5215341,10.3613768 24.5063974,10.3731799 24.4919444,10.3863487 C24.4913584,10.3868364 24.4908701,10.3872266 24.4902842,10.3877144 L14.6464558,19.3266698 Z M24.2423355,43.4864703 L21.7172427,43.4864703 L21.7172427,36.171467 C21.7172427,34.6237961 22.7964399,33.3241857 24.2423355,32.9815052 L24.2423355,43.4864703 Z M28.2827573,43.4864703 L25.7575669,43.4864703 L25.7575669,32.9815052 C27.2035601,33.3240881 28.2827573,34.6237961 28.2827573,36.171467 L28.2827573,43.4864703 Z M33.3332357,43.4864703 L29.797891,43.4864703 L29.797891,36.171467 C29.797891,33.528838 27.6455515,31.3790132 24.9999512,31.3790132 C22.3544485,31.3790132 20.202109,33.5289355 20.202109,36.171467 L20.202109,43.4864703 L16.6667643,43.4864703 L16.6667643,19.5374676 L24.9999512,11.9702093 L33.3332357,19.5374676 L33.3332357,43.4864703 Z" id="Shape"></path>
                <path d="M9.25930809,29.3877551 C7.72747514,29.3877551 6.48148148,30.6995883 6.48148148,32.3120328 L6.48148148,38.6922096 C6.48148148,39.1326401 6.82064098,39.4897959 7.23909719,39.4897959 L11.2794213,39.4897959 C11.6977799,39.4897959 12.037037,39.1327429 12.037037,38.6922096 L12.037037,32.3120328 C12.037037,30.6995883 10.7909457,29.3877551 9.25930809,29.3877551 Z M10.5218056,37.894726 L7.99661524,37.894726 L7.99661524,32.3120328 C7.99661524,31.5791128 8.56302038,30.982825 9.25921043,30.982825 C9.95540048,30.982825 10.5218056,31.5791128 10.5218056,32.3120328 L10.5218056,37.894726 Z" id="Shape"></path>
                <path d="M39.8148148,29.3877551 C38.2831503,29.3877551 37.037037,30.6995883 37.037037,32.3120328 L37.037037,38.6922096 C37.037037,39.1326401 37.3762025,39.4897959 37.7946661,39.4897959 L41.8349636,39.4897959 C42.2534271,39.4897959 42.5925926,39.1327429 42.5925926,38.6922096 L42.5925926,32.3120328 C42.5925926,30.6995883 41.3464794,29.3877551 39.8148148,29.3877551 Z M41.0773345,37.894726 L38.5520998,37.894726 L38.5520998,32.3120328 C38.5520998,31.5791128 39.1185149,30.982825 39.8147172,30.982825 C40.5109194,30.982825 41.0773345,31.5791128 41.0773345,32.3120328 L41.0773345,37.894726 Z" id="Shape"></path>
            </g>
        </g>
    </g>
</svg>