<?xml version="1.0" encoding="UTF-8"?>
<svg width="45px" height="45px" viewBox="0 0 45 45" version="1.1" xmlns="http://www.w3.org/2000/svg" xmlns:xlink="http://www.w3.org/1999/xlink">
    <!-- Generator: Sketch 49 (51002) - http://www.bohemiancoding.com/sketch -->
    <title>002-travel</title>
    <desc>Created with Sketch.</desc>
    <defs></defs>
    <g id="Page-1" stroke="none" stroke-width="1" fill="none" fill-rule="evenodd">
        <g id="Hype-Tur---XL" transform="translate(-469.000000, -2566.000000)" fill="#5B4E5C" fill-rule="nonzero">
            <g id="002-travel" transform="translate(469.000000, 2566.000000)">
                <path d="M42.1877472,22.4999121 L37.9767064,22.4999121 L15.7526234,0.274483494 C15.3865797,-0.091494498 14.7931758,-0.091494498 14.4270442,0.274483494 L0.274466876,14.4242263 C-0.0914889586,14.7902921 -0.0914889586,15.383732 0.274466876,15.7498857 L7.02408457,22.4999121 L2.81497728,22.4999121 C1.26177424,22.4999121 0.00263656941,23.759126 0.00263656941,25.3124231 L0.00263656941,42.187489 C0.00263656941,43.7407861 1.26177424,45 2.81497728,45 L33.7507251,45 C34.4711237,45 35.1280689,44.7287685 35.6255896,44.2832492 C36.1231981,44.7287685 36.7800554,45 37.5004541,45 L42.1876593,45 C43.7408623,45 45,43.7407861 45,42.187489 L45,25.3124231 C45.0000879,23.759126 43.7409502,22.4999121 42.1877472,22.4999121 Z M35.6255896,23.216663 C35.127981,22.7711436 34.4711237,22.4999121 33.7507251,22.4999121 L9.76506214,22.4999121 L22.5453051,9.7188075 L35.8566409,23.0309493 C35.7764013,23.0889574 35.6991499,23.1507447 35.6255896,23.216663 Z M15.0898777,2.26292876 L21.2195501,8.39297224 L8.39562798,21.2176708 L2.2656041,15.0879789 L15.0898777,2.26292876 Z M43.1251355,42.187489 C43.1251355,42.7052547 42.7053936,43.125022 42.1876593,43.125022 L37.5004541,43.125022 C36.9827197,43.125022 36.5629779,42.7052547 36.5629779,42.187489 L34.6881134,42.187489 C34.6881134,42.7052547 34.2683715,43.125022 33.7506372,43.125022 L2.81488939,43.125022 C2.29715504,43.125022 1.87741319,42.7052547 1.87741319,42.187489 L1.87741319,25.3124231 C1.87741319,24.7946574 2.29715504,24.3748901 2.81488939,24.3748901 L33.7506372,24.3748901 C34.2683715,24.3748901 34.6881134,24.7946574 34.6881134,25.3124231 L36.5629779,25.3124231 C36.5629779,24.7946574 36.9827197,24.3748901 37.5004541,24.3748901 L42.1876593,24.3748901 C42.7053936,24.3748901 43.1251355,24.7946574 43.1251355,25.3124231 L43.1251355,42.187489 Z" id="Shape"></path>
                <rect id="Rectangle-path" x="35" y="27" width="2" height="2"></rect>
                <rect id="Rectangle-path" x="35" y="31" width="2" height="2"></rect>
                <rect id="Rectangle-path" x="35" y="35" width="2" height="2"></rect>
                <rect id="Rectangle-path" x="35" y="39" width="2" height="2"></rect>
                <path d="M28.5902867,29.0525233 C28.4199231,28.8980119 28.1989814,28.8125824 27.9700308,28.8124945 L11.5343369,28.8124945 L9.7412967,26.3750286 C9.56597102,26.1389548 9.29070797,26 8.99846949,26 L6.92859929,26 C6.41576734,26 6,26.4197648 6,26.9375275 L6,34.4374835 C6,34.9552462 6.41576734,35.375011 6.92859929,35.375011 L14.3571325,35.375011 L14.3571325,40.0624725 C14.3571325,40.5802351 14.7728998,41 15.2857318,41 L18.0714426,41 C18.3467927,41.0000878 18.6080402,40.8768654 18.7845846,40.6634674 L23.1488359,35.375011 L31.0713975,35.375011 C31.5842294,35.375011 31.9999967,34.9552462 31.9999967,34.4374835 L31.9999967,32.5625165 C32.0006932,32.2968236 31.889613,32.0432597 31.6945261,31.8650178 L28.5902867,29.0525233 Z M30.1428852,33.5000439 L22.714352,33.5000439 C22.4390019,33.499956 22.1777545,33.6231784 22.00121,33.8365765 L17.6369588,39.1250329 L16.2144181,39.1250329 L16.2144181,34.4374835 C16.2144181,33.9197208 15.7986508,33.499956 15.2858188,33.499956 L7.85719859,33.499956 L7.85719859,27.874967 L8.53134061,27.874967 L10.3243808,30.312433 C10.4997065,30.5485067 10.7749695,30.6874615 11.067208,30.6874615 L27.6115446,30.6874615 L30.1427982,32.9806113 L30.1427982,33.5000439 L30.1428852,33.5000439 Z" id="Shape"></path>
                <rect id="Rectangle-path" transform="translate(24.000000, 16.000000) rotate(-135.000000) translate(-24.000000, -16.000000) " x="21" y="15" width="6" height="2"></rect>
                <rect id="Rectangle-path" transform="translate(22.000000, 19.000000) rotate(-135.000000) translate(-22.000000, -19.000000) " x="19" y="18" width="6" height="2"></rect>
            </g>
        </g>
    </g>
</svg>