<svg xmlns="http://www.w3.org/2000/svg" viewBox="0 0 383.94 76.76"><defs><style>.fc48f42f-7a84-47f7-82ea-a5826ea3b80e{fill:#5c4f5d;}</style></defs><title>horizontal-brand</title><g id="a17ebfc2-ee8b-4806-886c-0bbd27a0c7e2" data-name="Layer 2"><g id="501efc95-4349-4372-b636-43649505730e" data-name="Layer 1"><path class="fc48f42f-7a84-47f7-82ea-a5826ea3b80e" d="M163,59.33h-2.75V48.75H145.75V59.33H143v-24h2.75V46.14h14.49V35.29H163Z"/><path class="fc48f42f-7a84-47f7-82ea-a5826ea3b80e" d="M192.53,51.09v8.24h-2.71V51.19l-9.31-15.9h2.85l7.8,12.53,7.69-12.53h2.82Z"/><path class="fc48f42f-7a84-47f7-82ea-a5826ea3b80e" d="M219.23,35.29h9q4.47,0,6.92,2.11a7.43,7.43,0,0,1,2.46,6,7.84,7.84,0,0,1-2.46,6.18q-2.44,2.2-6.92,2.2H222v7.59h-2.74ZM222,37.93V49.1h6.19a7.82,7.82,0,0,0,5.06-1.45A5.13,5.13,0,0,0,235,43.43a4.92,4.92,0,0,0-1.77-4.11,8,8,0,0,0-5.06-1.39Z"/><path class="fc48f42f-7a84-47f7-82ea-a5826ea3b80e" d="M272.27,37.93H258.7v7.9h12.12v2.65H258.7v8.24h14v2.61H256v-24h16.32Z"/><path class="fc48f42f-7a84-47f7-82ea-a5826ea3b80e" d="M307.23,37.93h-7.86v21.4h-2.75V37.93h-7.83V35.29h18.44Z"/><path class="fc48f42f-7a84-47f7-82ea-a5826ea3b80e" d="M344.61,35.29V49.44a9.92,9.92,0,0,1-2.68,7.37,11.65,11.65,0,0,1-14.82,0,9.89,9.89,0,0,1-2.7-7.37V35.29h2.75V49.44a6.79,6.79,0,0,0,7.39,7.38,7.24,7.24,0,0,0,5.37-1.94,7.35,7.35,0,0,0,1.94-5.44V35.29Z"/><path class="fc48f42f-7a84-47f7-82ea-a5826ea3b80e" d="M380.82,59.33l-5-7.66c-.69,0-1.23.07-1.62.07h-6.39v7.59h-2.75v-24h9.14q4.5,0,7,2.11a7.38,7.38,0,0,1,2.49,6,8.43,8.43,0,0,1-1.39,5,7.69,7.69,0,0,1-4,2.85l5.63,8.17Zm-13-10.23h6.39a7.85,7.85,0,0,0,5.07-1.45,5.13,5.13,0,0,0,1.77-4.22,4.92,4.92,0,0,0-1.77-4.11,8,8,0,0,0-5.07-1.39h-6.39Z"/><rect class="fc48f42f-7a84-47f7-82ea-a5826ea3b80e" x="7.26" y="46.97" width="94.13" height="2.69"/><path class="fc48f42f-7a84-47f7-82ea-a5826ea3b80e" d="M43.19,6.26a5.89,5.89,0,1,0,5.89,5.89A5.89,5.89,0,0,0,43.19,6.26Zm0,9.83a3.94,3.94,0,1,1,3.94-3.94A3.95,3.95,0,0,1,43.19,16.09Z"/><polygon class="fc48f42f-7a84-47f7-82ea-a5826ea3b80e" points="32.69 21.94 0 75.35 2.29 76.75 32.65 27.14 62.22 76.75 64.53 75.37 32.69 21.94"/><polygon class="fc48f42f-7a84-47f7-82ea-a5826ea3b80e" points="28.49 41.67 27.45 41.04 32.7 32.45 37.35 41.06 36.27 41.65 32.63 34.9 28.49 41.67"/><polygon class="fc48f42f-7a84-47f7-82ea-a5826ea3b80e" points="60.77 28.65 59.73 28.01 64.99 19.42 69.64 28.04 68.56 28.62 64.92 21.87 60.77 28.65"/><path class="fc48f42f-7a84-47f7-82ea-a5826ea3b80e" d="M65.1,9,43.72,44l.75.35a1.71,1.71,0,0,0,.73.13h.22l.17-.07.66.61L65.06,14.22,94.63,63.83l2.31-1.38Z"/><rect class="fc48f42f-7a84-47f7-82ea-a5826ea3b80e" x="42.66" width="1.06" height="4.63"/><rect class="fc48f42f-7a84-47f7-82ea-a5826ea3b80e" x="47.69" y="4.63" width="4.63" height="1.06" transform="translate(11 36.87) rotate(-45)"/><rect class="fc48f42f-7a84-47f7-82ea-a5826ea3b80e" x="50.5" y="11.45" width="4.63" height="1.06"/><rect class="fc48f42f-7a84-47f7-82ea-a5826ea3b80e" x="49.44" y="16.48" width="1.06" height="4.63" transform="translate(1.35 40.84) rotate(-45)"/><rect class="fc48f42f-7a84-47f7-82ea-a5826ea3b80e" x="42.61" y="19.29" width="1.06" height="4.63"/><rect class="fc48f42f-7a84-47f7-82ea-a5826ea3b80e" x="34.02" y="18.23" width="4.63" height="1.06" transform="translate(-2.62 31.18) rotate(-45)"/><rect class="fc48f42f-7a84-47f7-82ea-a5826ea3b80e" x="31.21" y="11.4" width="4.63" height="1.06"/><rect class="fc48f42f-7a84-47f7-82ea-a5826ea3b80e" x="35.84" y="2.81" width="1.06" height="4.63" transform="translate(7.03 27.21) rotate(-44.99)"/></g></g></svg>