<?xml version="1.0" encoding="UTF-8"?>
<svg width="105px" height="12px" viewBox="0 0 105 12" version="1.1" xmlns="http://www.w3.org/2000/svg" xmlns:xlink="http://www.w3.org/1999/xlink">
    <!-- Generator: Sketch 49 (51002) - http://www.bohemiancoding.com/sketch -->
    <title>LOGOTIPO</title>
    <desc>Created with Sketch.</desc>
    <defs></defs>
    <g id="Page-1" stroke="none" stroke-width="1" fill="none" fill-rule="evenodd">
        <g id="Hype-Tur---XL" transform="translate(-86.000000, -42.000000)" fill="#5B4E5C">
            <g id="LOGOTIPO" transform="translate(86.000000, 42.000000)">
                <polygon id="Fill-1" points="7.79079129 1.48387097 7.79079129 6.07113678 1.24146677 6.07113678 1.24146677 1.48387097 0 1.48387097 0 11.6451613 1.24146677 11.6451613 1.24146677 7.17453162 7.79079129 7.17453162 7.79079129 11.6451613 9.03225806 11.6451613 9.03225806 1.48387097"></polygon>
                <polygon id="Fill-2" points="25.7445605 1.48387097 22.0495022 6.78236371 18.3049844 1.48387097 16.9354839 1.48387097 21.4065284 8.20481758 21.4065284 11.6451613 22.7088024 11.6451613 22.7088024 8.16171292 27.0967742 1.48387097"></polygon>
                <path d="M34.2538736,1.22403964 L34.2538736,6.00093468 L36.9536174,6.00093468 C37.9133517,6.00093468 38.6503997,5.79473161 39.1656346,5.38275329 C39.6804329,4.97163059 39.9384871,4.36885026 39.9384871,3.57526793 C39.9384871,2.80179254 39.6804329,2.21612451 39.1656346,1.81954724 C38.6503997,1.42254218 37.9133517,1.22403964 36.9536174,1.22403964 L34.2538736,1.22403964 Z M33.0539874,0.0924896371 L36.9985913,0.0924896371 C38.298468,0.0924896371 39.305796,0.393665896 40.0205754,0.99644622 C40.7357913,1.59879874 41.0929627,2.44885161 41.0929627,3.54574924 C41.0929627,4.68286074 40.7357913,5.56457135 40.0205754,6.19173668 C39.305796,6.81890201 38.298468,7.13205687 36.9985913,7.13205687 L34.2538736,7.13205687 L34.2538736,10.3795412 L33.0539874,10.3795412 L33.0539874,0.0924896371 Z" id="Fill-3"></path>
                <polygon id="Fill-5" points="56.2129256 1.22403964 50.2881602 1.22403964 50.2881602 4.60414421 55.583291 4.60414421 55.583291 5.73612203 50.2881602 5.73612203 50.2881602 9.26296446 56.4076669 9.26296446 56.4076669 10.3795412 49.088274 10.3795412 49.088274 0.0924896371 56.2129256 0.0924896371"></polygon>
                <polygon id="Fill-7" points="71.4812587 1.22403964 68.04665 1.22403964 68.04665 10.3795412 66.8467639 10.3795412 66.8467639 1.22403964 63.427001 1.22403964 63.427001 0.0924896371 71.4812587 0.0924896371"></polygon>
                <path d="M87.8011077,0.0927035407 L87.8011077,6.14745864 C87.8011077,7.48948978 87.4107517,8.54018422 86.6309131,9.29954198 C85.8506377,10.0588997 84.7756306,10.4383647 83.4067648,10.4383647 C82.0261098,10.4383647 80.9436797,10.0588997 80.159038,9.29954198 C79.3739596,8.54018422 78.9818571,7.48948978 78.9818571,6.14745864 L78.9818571,0.0927035407 L80.1813066,0.0927035407 L80.1813066,6.14745864 C80.1813066,7.13697666 80.4686156,7.91045205 81.0436702,8.46916823 C81.6187248,9.02745661 82.4059864,9.30724251 83.4067648,9.30724251 C84.4057967,9.30724251 85.1886918,9.03002345 85.7537037,8.47686876 C86.318279,7.92328626 86.6012216,7.14681622 86.6012216,6.14745864 L86.6012216,0.0927035407 L87.8011077,0.0927035407 Z" id="Fill-9"></path>
                <path d="M97.9410191,6.00072077 L100.730711,6.00072077 C101.690882,6.00072077 102.427493,5.79494552 102.943165,5.3829672 C103.4584,4.97184449 103.71558,4.36906417 103.71558,3.57548184 C103.71558,2.80157864 103.4584,2.21633841 102.943165,1.81933334 C102.427493,1.42232827 101.690882,1.22382574 100.730711,1.22382574 L97.9410191,1.22382574 L97.9410191,6.00072077 Z M103.61035,10.3797551 L101.435447,7.10275208 C101.135476,7.12285902 100.900564,7.13184297 100.730711,7.13184297 L97.9410191,7.13184297 L97.9410191,10.3797551 L96.7411329,10.3797551 L96.7411329,0.0927035407 L100.730711,0.0927035407 C102.04063,0.0927035407 103.058437,0.393451992 103.78326,0.996232316 C104.507645,1.59901264 104.870929,2.44906552 104.870929,3.54596314 C104.870929,4.3887433 104.668328,5.09376954 104.263127,5.66232529 C103.858362,6.23088104 103.275447,6.63729786 102.515694,6.88243138 L104.975723,10.3797551 L103.61035,10.3797551 Z" id="Fill-11"></path>
            </g>
        </g>
    </g>
</svg>